<svg id="svg" version="1.1" xmlns="http://www.w3.org/2000/svg" xmlns:xlink="http://www.w3.org/1999/xlink" width="400" height="400" viewBox="0, 0, 400,400"><g id="svgg"><path id="path0" d="M0.000 200.000 L 0.000 400.000 3.800 400.000 L 7.600 400.000 7.600 200.000 L 7.600 0.000 3.800 0.000 L 0.000 0.000 0.000 200.000 M392.400 200.000 L 392.400 400.000 396.200 400.000 L 400.000 400.000 400.000 200.000 L 400.000 0.000 396.200 0.000 L 392.400 0.000 392.400 200.000 M208.643 129.433 C 208.509 129.781,208.400 133.906,208.400 138.600 C 208.400 143.294,208.509 147.419,208.643 147.767 C 209.010 148.724,226.990 148.724,227.357 147.767 C 227.491 147.419,227.600 143.009,227.600 137.967 L 227.600 128.800 218.243 128.800 C 210.079 128.800,208.855 128.881,208.643 129.433 M90.800 129.510 C 87.810 129.597,86.893 129.763,86.500 130.287 C 85.968 130.996,85.723 277.316,86.250 279.950 L 86.500 281.200 95.803 281.200 L 105.107 281.200 105.348 280.300 C 105.481 279.805,105.592 276.855,105.595 273.744 C 105.599 268.859,105.700 267.965,106.334 267.182 L 107.068 266.275 107.834 267.377 C 108.513 268.354,113.209 273.209,114.800 274.579 C 115.130 274.864,115.953 275.378,116.629 275.722 C 117.305 276.066,118.092 276.629,118.378 276.974 C 118.664 277.318,119.155 277.600,119.470 277.600 C 119.785 277.600,120.705 278.050,121.514 278.600 C 122.323 279.150,123.266 279.600,123.608 279.600 C 123.951 279.600,124.944 279.966,125.815 280.413 C 126.687 280.861,128.750 281.408,130.400 281.629 C 132.050 281.850,134.326 282.313,135.457 282.657 C 137.679 283.333,142.991 283.243,146.400 282.471 C 147.390 282.247,149.856 281.880,151.880 281.655 C 153.904 281.429,155.974 280.987,156.480 280.672 C 156.986 280.358,158.284 279.888,159.363 279.628 C 160.443 279.369,161.703 278.892,162.163 278.568 C 162.624 278.245,163.675 277.798,164.500 277.575 C 165.325 277.352,166.000 276.990,166.000 276.770 C 166.000 276.551,166.810 276.024,167.800 275.600 C 168.790 275.176,169.600 274.654,169.600 274.441 C 169.600 274.228,169.965 273.938,170.412 273.796 C 171.383 273.488,179.015 265.911,180.313 263.967 C 182.913 260.071,183.586 258.961,183.593 258.554 C 183.597 258.309,183.949 257.664,184.375 257.122 C 184.802 256.580,185.277 255.611,185.432 254.968 C 185.587 254.326,186.139 252.991,186.657 252.003 C 187.176 251.015,187.600 249.748,187.600 249.188 C 187.600 248.628,187.957 247.469,188.394 246.612 C 188.905 245.609,189.336 243.551,189.604 240.828 C 189.834 238.502,190.315 234.761,190.674 232.514 C 191.280 228.718,191.279 228.079,190.655 223.514 C 190.286 220.811,189.813 216.883,189.604 214.785 C 189.395 212.687,188.949 210.420,188.613 209.746 C 188.277 209.073,187.832 207.622,187.623 206.521 C 187.414 205.420,186.891 203.907,186.460 203.160 C 186.030 202.412,185.556 201.217,185.408 200.505 C 185.260 199.792,184.957 199.097,184.736 198.961 C 184.515 198.824,183.978 197.967,183.542 197.056 C 182.183 194.212,181.289 192.742,180.430 191.942 C 179.973 191.517,179.599 191.041,179.598 190.884 C 179.594 190.475,174.024 184.766,172.600 183.712 C 171.940 183.223,170.742 182.323,169.938 181.712 C 167.405 179.785,161.076 176.400,160.008 176.400 C 159.656 176.400,158.656 176.033,157.785 175.583 C 156.913 175.134,154.760 174.588,153.000 174.370 C 151.240 174.152,148.872 173.709,147.738 173.387 C 144.959 172.596,135.821 172.582,133.944 173.365 C 133.200 173.676,131.162 174.130,129.415 174.373 C 127.668 174.616,126.124 175.000,125.983 175.227 C 125.843 175.454,124.880 175.895,123.844 176.207 C 122.807 176.519,121.494 177.140,120.926 177.587 C 120.357 178.034,119.691 178.403,119.446 178.407 C 118.875 178.417,115.650 180.528,114.586 181.589 C 114.138 182.035,113.643 182.400,113.486 182.400 C 113.038 182.400,108.569 186.982,108.279 187.740 C 107.930 188.648,106.858 189.018,106.273 188.433 C 105.921 188.082,105.749 180.530,105.600 159.013 C 105.490 143.092,105.298 129.964,105.172 129.839 C 104.895 129.562,96.021 129.359,90.800 129.510 M265.913 140.666 L 264.026 140.843 263.913 157.004 C 263.804 172.629,263.773 173.186,263.000 173.770 C 262.340 174.269,260.522 174.378,252.600 174.393 C 247.320 174.404,242.762 174.563,242.471 174.748 C 241.639 175.275,241.576 190.687,242.403 191.210 C 242.734 191.419,247.289 191.590,252.624 191.594 C 260.294 191.599,262.405 191.715,263.024 192.167 C 263.777 192.718,263.807 193.662,264.034 224.667 C 264.162 242.230,264.410 257.011,264.584 257.514 C 264.758 258.017,265.238 259.090,265.650 259.899 C 266.063 260.707,266.400 261.746,266.400 262.207 C 266.400 262.668,266.850 263.655,267.400 264.400 C 267.950 265.145,268.400 265.964,268.400 266.219 C 268.400 267.147,276.597 275.600,277.497 275.600 C 277.688 275.600,278.455 276.050,279.200 276.600 C 279.945 277.150,280.856 277.600,281.224 277.600 C 281.591 277.600,282.325 277.940,282.853 278.356 C 283.418 278.800,285.131 279.318,287.007 279.611 C 288.763 279.885,290.807 280.355,291.549 280.655 C 292.569 281.067,295.463 281.200,303.410 281.200 L 313.922 281.200 314.337 280.008 C 315.114 277.780,314.923 265.181,314.103 264.559 C 313.549 264.138,310.394 264.021,299.200 264.007 C 284.520 263.987,284.424 263.978,283.660 262.526 C 282.945 261.169,283.007 192.658,283.724 192.063 C 284.074 191.772,289.155 191.591,299.091 191.514 C 307.255 191.451,314.084 191.250,314.267 191.066 C 314.702 190.631,314.702 175.368,314.267 174.933 C 314.084 174.750,307.255 174.549,299.091 174.486 C 289.155 174.409,284.074 174.228,283.724 173.937 C 283.308 173.592,283.200 170.258,283.200 157.827 C 283.200 145.440,283.089 142.001,282.670 141.428 C 282.128 140.686,271.069 140.184,265.913 140.666 M208.674 174.659 C 208.285 175.049,208.345 280.093,208.734 280.708 C 208.983 281.099,211.158 281.191,218.228 281.108 L 227.400 281.000 227.400 227.800 L 227.400 174.600 218.174 174.493 C 213.099 174.434,208.824 174.509,208.674 174.659 M170.582 196.095 C 171.138 196.889,171.207 200.485,171.195 228.083 L 171.182 259.177 170.291 260.183 L 169.400 261.188 138.276 261.235 C 109.116 261.278,107.103 261.237,106.376 260.578 C 105.417 259.710,105.129 196.631,106.080 195.680 C 106.445 195.315,114.137 195.200,138.257 195.200 L 169.955 195.200 170.582 196.095 " stroke="none" fill="#f8f8f9" fill-rule="evenodd"></path><path id="path1" d="M8.800 200.000 L 8.800 400.000 200.000 400.000 L 391.200 400.000 391.200 200.000 L 391.200 0.000 200.000 0.000 L 8.800 0.000 8.800 200.000 M106.320 127.680 C 106.584 127.944,106.800 128.653,106.800 129.256 C 106.800 129.859,106.980 130.464,107.201 130.601 C 107.469 130.766,107.469 131.097,107.201 131.598 C 106.945 132.077,106.800 141.803,106.800 158.560 L 106.800 184.773 108.200 183.947 C 108.970 183.493,109.600 182.881,109.600 182.587 C 109.600 182.294,109.931 181.949,110.335 181.821 C 110.739 181.692,111.672 181.050,112.407 180.394 C 113.142 179.737,113.961 179.200,114.226 179.200 C 114.491 179.200,115.003 178.750,115.363 178.200 C 115.724 177.650,116.276 177.200,116.591 177.200 C 116.907 177.200,117.828 176.750,118.638 176.200 C 119.449 175.650,120.537 175.200,121.056 175.200 C 121.575 175.200,122.000 175.025,122.000 174.810 C 122.000 174.199,124.231 173.200,125.596 173.200 C 126.276 173.200,127.380 172.795,128.050 172.300 C 129.248 171.414,129.452 171.400,141.200 171.400 C 152.948 171.400,153.152 171.414,154.350 172.300 C 155.198 172.927,156.127 173.200,157.410 173.200 C 159.490 173.200,160.800 173.746,160.800 174.614 C 160.800 175.019,161.240 175.200,162.226 175.200 C 163.774 175.200,165.213 175.801,165.720 176.658 C 165.896 176.956,166.376 177.200,166.787 177.200 C 168.064 177.200,168.800 177.654,168.800 178.443 C 168.800 178.987,169.086 179.200,169.818 179.200 C 170.378 179.200,171.272 179.636,171.805 180.169 C 172.338 180.702,173.131 181.251,173.567 181.389 C 174.003 181.528,174.464 181.972,174.593 182.377 C 174.721 182.782,175.194 183.210,175.643 183.327 C 176.092 183.445,176.554 183.904,176.670 184.348 C 176.787 184.792,177.268 185.210,177.741 185.278 C 178.264 185.352,178.648 185.736,178.722 186.259 C 178.790 186.732,179.194 187.210,179.620 187.321 C 180.047 187.433,180.518 187.856,180.668 188.262 C 180.818 188.668,181.359 189.396,181.870 189.881 C 182.382 190.365,182.800 191.059,182.800 191.423 C 182.800 191.787,183.250 192.439,183.800 192.871 C 184.350 193.304,184.800 194.021,184.800 194.465 C 184.800 194.909,185.165 195.571,185.612 195.936 C 186.059 196.301,186.539 197.316,186.679 198.190 C 186.819 199.065,187.275 200.056,187.692 200.394 C 188.144 200.760,188.540 201.734,188.672 202.804 C 188.794 203.792,189.136 204.795,189.431 205.033 C 190.294 205.727,190.800 207.491,190.800 209.803 C 190.800 211.316,191.067 212.406,191.700 213.477 C 193.374 216.310,193.260 240.740,191.564 242.436 C 190.967 243.033,190.800 243.774,190.800 245.826 C 190.800 248.466,190.346 249.927,189.342 250.520 C 189.034 250.701,188.800 251.510,188.800 252.389 C 188.800 253.458,188.490 254.307,187.800 255.127 C 187.250 255.781,186.800 256.616,186.800 256.984 C 186.800 257.837,186.031 259.312,185.387 259.694 C 185.114 259.856,184.772 260.621,184.627 261.394 C 184.433 262.433,184.159 262.800,183.582 262.800 C 183.011 262.800,182.800 263.075,182.800 263.818 C 182.800 264.378,182.395 265.242,181.900 265.737 C 181.405 266.233,180.779 267.124,180.509 267.719 C 180.238 268.314,179.743 268.800,179.409 268.800 C 179.074 268.800,178.800 269.074,178.800 269.409 C 178.800 269.743,178.350 270.222,177.800 270.473 C 177.250 270.723,176.800 271.163,176.800 271.450 C 176.800 271.737,176.395 272.185,175.900 272.446 C 175.405 272.706,174.640 273.260,174.200 273.675 C 172.115 275.646,170.933 276.473,169.912 276.678 C 169.300 276.800,168.800 277.141,168.800 277.436 C 168.800 278.166,167.511 278.800,166.026 278.800 C 165.216 278.800,164.800 278.999,164.800 279.386 C 164.800 280.161,163.547 280.800,162.026 280.800 C 161.194 280.800,160.800 280.996,160.800 281.410 C 160.800 282.237,159.162 282.800,156.758 282.800 C 155.321 282.800,154.429 283.050,153.551 283.700 C 151.720 285.054,130.761 285.109,128.934 283.765 C 128.286 283.289,126.856 282.821,125.600 282.676 C 124.177 282.511,123.185 282.159,122.791 281.679 C 122.456 281.271,121.583 280.817,120.851 280.670 C 120.119 280.524,118.984 279.953,118.329 279.402 C 117.675 278.851,116.884 278.400,116.573 278.400 C 116.261 278.400,115.782 278.040,115.507 277.600 C 115.232 277.160,114.712 276.800,114.350 276.800 C 113.988 276.800,113.397 276.350,113.037 275.800 C 112.676 275.250,112.139 274.800,111.842 274.800 C 111.545 274.800,110.764 274.170,110.106 273.400 C 109.448 272.630,108.610 272.000,108.242 272.000 C 107.875 272.000,107.408 271.595,107.204 271.100 C 106.954 270.493,106.841 272.112,106.854 276.078 C 106.865 279.312,106.757 282.147,106.613 282.378 C 106.154 283.122,85.179 282.940,84.098 282.184 L 83.219 281.568 83.213 205.684 C 83.206 126.096,83.168 128.334,84.535 127.673 C 85.823 127.049,105.696 127.056,106.320 127.680 M228.926 127.660 C 230.362 128.416,230.388 128.612,230.394 139.073 L 230.400 149.146 229.238 149.973 C 227.625 151.121,208.523 151.266,207.395 150.138 C 206.157 148.899,206.000 147.552,206.000 138.138 C 206.000 126.008,204.666 127.231,217.926 127.213 C 224.807 127.204,228.333 127.347,228.926 127.660 M284.300 139.403 C 284.689 139.537,284.800 143.247,284.800 156.145 C 284.800 171.232,284.860 172.737,285.466 172.970 C 285.832 173.110,292.774 173.207,300.892 173.185 C 311.775 173.156,315.802 173.270,316.226 173.621 C 316.993 174.258,317.080 191.560,316.320 192.320 C 315.963 192.677,311.858 192.800,300.320 192.800 L 284.800 192.800 284.800 227.000 L 284.800 261.200 300.000 261.200 C 314.667 261.200,315.228 261.228,316.000 262.000 C 316.997 262.997,317.254 280.826,316.291 282.144 C 315.171 283.675,286.057 282.968,285.454 281.396 C 285.297 280.988,284.647 280.800,283.394 280.800 C 281.975 280.800,281.339 280.575,280.564 279.800 C 280.014 279.250,279.226 278.800,278.813 278.800 C 278.399 278.800,277.553 278.388,276.931 277.884 C 276.309 277.381,275.305 276.755,274.700 276.493 C 274.095 276.231,273.600 275.763,273.600 275.452 C 273.600 275.141,273.150 274.774,272.600 274.636 C 272.050 274.498,271.600 274.130,271.600 273.820 C 271.600 273.509,271.060 272.870,270.400 272.400 C 269.740 271.930,269.200 271.386,269.200 271.191 C 269.200 270.996,268.750 270.386,268.200 269.836 C 267.650 269.286,267.200 268.378,267.200 267.818 C 267.200 267.191,266.975 266.800,266.614 266.800 C 265.908 266.800,265.200 265.584,265.200 264.372 C 265.200 263.888,264.750 263.075,264.200 262.565 C 263.347 261.775,263.200 261.284,263.200 259.239 C 263.200 257.477,263.034 256.747,262.573 256.489 C 261.346 255.802,261.219 252.670,261.210 222.900 L 261.200 192.800 250.614 192.800 C 237.831 192.800,239.200 194.011,239.200 182.706 C 239.200 173.522,239.270 173.200,241.256 173.200 C 241.859 173.200,242.460 173.027,242.591 172.815 C 242.741 172.572,243.178 172.590,243.775 172.862 C 244.426 173.158,245.426 173.172,246.974 172.905 C 248.212 172.692,249.320 172.671,249.436 172.859 C 249.675 173.244,259.590 173.332,260.567 172.957 C 261.130 172.741,261.200 170.928,261.200 156.634 C 261.200 139.434,261.206 139.384,263.200 139.128 C 264.617 138.946,283.696 139.195,284.300 139.403 M229.500 173.912 L 230.400 174.492 230.400 228.000 L 230.400 281.508 229.449 282.131 C 228.216 282.939,228.250 282.937,217.000 282.852 L 207.400 282.780 206.702 281.378 C 205.615 279.193,205.608 175.686,206.695 174.200 L 207.400 173.235 217.200 173.118 C 227.672 172.992,228.118 173.021,229.500 173.912 M107.280 197.280 C 106.915 197.645,106.800 205.120,106.800 228.480 L 106.800 259.200 138.000 259.200 L 169.200 259.200 169.200 228.000 L 169.200 196.800 138.480 196.800 C 115.120 196.800,107.645 196.915,107.280 197.280 " stroke="none" fill="#040b64" fill-rule="evenodd"></path><path id="path2" d="M7.798 200.000 C 7.798 310.110,7.844 355.155,7.900 300.100 C 7.956 245.045,7.956 154.955,7.900 99.900 C 7.844 44.845,7.798 89.890,7.798 200.000 M392.198 200.000 C 392.198 310.110,392.244 355.155,392.300 300.100 C 392.356 245.045,392.356 154.955,392.300 99.900 C 392.244 44.845,392.198 89.890,392.198 200.000 M208.209 128.648 C 207.327 129.530,207.454 147.862,208.349 148.939 C 208.831 149.519,210.045 149.600,218.259 149.600 L 227.620 149.600 228.010 148.574 C 228.599 147.024,228.519 129.079,227.920 128.480 C 227.099 127.659,209.044 127.814,208.209 128.648 M85.844 129.013 C 84.777 130.080,84.768 130.794,84.885 206.532 C 84.998 279.891,85.010 280.872,85.786 281.439 C 86.428 281.908,88.335 281.994,96.186 281.907 L 105.800 281.800 106.008 275.400 C 106.274 267.179,106.082 267.336,110.505 271.731 C 117.328 278.511,122.556 281.020,135.400 283.679 C 137.957 284.208,146.339 283.839,149.436 283.061 C 150.736 282.734,152.790 282.342,154.000 282.189 C 155.210 282.036,157.190 281.501,158.400 281.001 C 159.610 280.501,161.183 279.967,161.895 279.815 C 162.608 279.663,163.303 279.357,163.439 279.136 C 163.576 278.915,164.433 278.394,165.344 277.978 C 171.345 275.239,177.770 269.316,182.893 261.803 C 183.494 260.921,183.989 259.999,183.993 259.754 C 183.997 259.509,184.336 258.879,184.746 258.354 C 185.715 257.116,187.529 252.777,188.206 250.078 C 188.498 248.912,188.925 247.732,189.153 247.456 C 189.382 247.181,189.765 245.616,190.005 243.978 C 190.245 242.340,190.741 239.560,191.109 237.800 C 191.907 233.977,192.004 221.183,191.254 218.600 C 190.998 217.720,190.526 215.155,190.205 212.901 C 189.883 210.647,189.366 208.397,189.055 207.901 C 188.744 207.405,188.364 206.280,188.211 205.400 C 188.057 204.520,187.609 203.170,187.214 202.400 C 186.819 201.630,185.893 199.740,185.156 198.200 C 181.958 191.520,176.752 185.208,171.600 181.765 C 170.830 181.250,169.480 180.325,168.600 179.710 C 165.344 177.432,157.999 174.360,154.000 173.602 C 152.790 173.373,150.630 172.922,149.200 172.601 C 145.642 171.801,135.709 171.799,132.787 172.597 C 131.584 172.926,129.415 173.457,127.966 173.778 C 126.518 174.099,124.808 174.639,124.166 174.979 C 123.525 175.319,122.370 175.874,121.600 176.213 C 116.398 178.502,112.344 181.593,108.340 186.326 C 107.255 187.607,106.792 187.916,106.540 187.526 C 106.353 187.237,106.147 174.049,106.083 158.220 C 106.002 138.384,105.831 129.278,105.534 128.920 C 104.845 128.090,86.682 128.176,85.844 129.013 M227.600 137.967 C 227.600 143.009,227.491 147.419,227.357 147.767 C 226.990 148.724,209.010 148.724,208.643 147.767 C 208.509 147.419,208.400 143.294,208.400 138.600 C 208.400 133.906,208.509 129.781,208.643 129.433 C 208.855 128.881,210.079 128.800,218.243 128.800 L 227.600 128.800 227.600 137.967 M105.172 129.839 C 105.298 129.964,105.490 143.092,105.600 159.013 C 105.749 180.530,105.921 188.082,106.273 188.433 C 106.858 189.018,107.930 188.648,108.279 187.740 C 108.569 186.982,113.038 182.400,113.486 182.400 C 113.643 182.400,114.138 182.035,114.586 181.589 C 115.650 180.528,118.875 178.417,119.446 178.407 C 119.691 178.403,120.357 178.034,120.926 177.587 C 121.494 177.140,122.807 176.519,123.844 176.207 C 124.880 175.895,125.843 175.454,125.983 175.227 C 126.124 175.000,127.668 174.616,129.415 174.373 C 131.162 174.130,133.200 173.676,133.944 173.365 C 135.821 172.582,144.959 172.596,147.738 173.387 C 148.872 173.709,151.240 174.152,153.000 174.370 C 154.760 174.588,156.913 175.134,157.785 175.583 C 158.656 176.033,159.656 176.400,160.008 176.400 C 161.076 176.400,167.405 179.785,169.938 181.712 C 170.742 182.323,171.940 183.223,172.600 183.712 C 174.024 184.766,179.594 190.475,179.598 190.884 C 179.599 191.041,179.973 191.517,180.430 191.942 C 181.289 192.742,182.183 194.212,183.542 197.056 C 183.978 197.967,184.515 198.824,184.736 198.961 C 184.957 199.097,185.260 199.792,185.408 200.505 C 185.556 201.217,186.030 202.412,186.460 203.160 C 186.891 203.907,187.414 205.420,187.623 206.521 C 187.832 207.622,188.277 209.073,188.613 209.746 C 188.949 210.420,189.395 212.687,189.604 214.785 C 189.813 216.883,190.286 220.811,190.655 223.514 C 191.279 228.079,191.280 228.718,190.674 232.514 C 190.315 234.761,189.834 238.502,189.604 240.828 C 189.336 243.551,188.905 245.609,188.394 246.612 C 187.957 247.469,187.600 248.628,187.600 249.188 C 187.600 249.748,187.176 251.015,186.657 252.003 C 186.139 252.991,185.587 254.326,185.432 254.968 C 185.277 255.611,184.802 256.580,184.375 257.122 C 183.949 257.664,183.597 258.309,183.593 258.554 C 183.586 258.961,182.913 260.071,180.313 263.967 C 179.015 265.911,171.383 273.488,170.412 273.796 C 169.965 273.938,169.600 274.228,169.600 274.441 C 169.600 274.654,168.790 275.176,167.800 275.600 C 166.810 276.024,166.000 276.551,166.000 276.770 C 166.000 276.990,165.325 277.352,164.500 277.575 C 163.675 277.798,162.624 278.245,162.163 278.568 C 161.703 278.892,160.443 279.369,159.363 279.628 C 158.284 279.888,156.986 280.358,156.480 280.672 C 155.974 280.987,153.904 281.429,151.880 281.655 C 149.856 281.880,147.390 282.247,146.400 282.471 C 142.991 283.243,137.679 283.333,135.457 282.657 C 134.326 282.313,132.050 281.850,130.400 281.629 C 128.750 281.408,126.687 280.861,125.815 280.413 C 124.944 279.966,123.951 279.600,123.608 279.600 C 123.266 279.600,122.323 279.150,121.514 278.600 C 120.705 278.050,119.785 277.600,119.470 277.600 C 119.155 277.600,118.664 277.318,118.378 276.974 C 118.092 276.629,117.305 276.066,116.629 275.722 C 115.953 275.378,115.130 274.864,114.800 274.579 C 113.209 273.209,108.513 268.354,107.834 267.377 L 107.068 266.275 106.334 267.182 C 105.700 267.965,105.599 268.859,105.595 273.744 C 105.592 276.855,105.481 279.805,105.348 280.300 L 105.107 281.200 95.803 281.200 L 86.500 281.200 86.250 279.950 C 85.723 277.316,85.968 130.996,86.500 130.287 C 86.893 129.763,87.810 129.597,90.800 129.510 C 96.021 129.359,104.895 129.562,105.172 129.839 M263.029 140.629 C 262.478 141.179,262.400 143.243,262.400 157.238 L 262.400 173.220 261.382 173.607 C 260.822 173.820,256.238 173.986,251.195 173.976 C 245.166 173.964,241.740 174.111,241.191 174.405 C 240.092 174.993,240.100 190.915,241.200 191.609 C 241.533 191.819,246.034 191.990,251.326 191.994 C 257.116 191.998,261.156 192.162,261.626 192.414 C 262.380 192.817,262.400 193.552,262.400 220.628 C 262.400 250.883,262.801 256.752,265.185 261.385 C 265.633 262.256,266.003 263.246,266.007 263.585 C 266.015 264.224,267.046 265.841,269.856 269.620 C 272.312 272.923,277.929 277.497,280.400 278.207 C 280.950 278.365,281.670 278.723,282.000 279.003 C 282.548 279.467,287.024 280.769,291.000 281.622 C 293.715 282.204,314.127 282.088,314.951 281.486 C 315.680 280.953,315.718 280.157,315.625 267.529 C 315.588 262.394,316.966 262.800,299.586 262.800 C 285.405 262.800,284.812 262.770,284.414 262.026 C 283.780 260.842,283.844 193.116,284.480 192.480 C 284.836 192.124,288.791 192.000,299.800 192.000 C 310.809 192.000,314.764 191.876,315.120 191.520 C 315.461 191.179,315.600 188.720,315.600 183.000 C 315.600 177.280,315.461 174.821,315.120 174.480 C 314.764 174.124,310.809 174.000,299.800 174.000 C 288.791 174.000,284.836 173.876,284.480 173.520 C 284.123 173.163,284.000 168.942,284.000 157.000 C 284.000 145.058,283.877 140.837,283.520 140.480 C 282.714 139.674,263.846 139.811,263.029 140.629 M282.670 141.428 C 283.089 142.001,283.200 145.440,283.200 157.827 C 283.200 170.258,283.308 173.592,283.724 173.937 C 284.074 174.228,289.155 174.409,299.091 174.486 C 307.255 174.549,314.084 174.750,314.267 174.933 C 314.702 175.368,314.702 190.631,314.267 191.066 C 314.084 191.250,307.255 191.451,299.091 191.514 C 289.155 191.591,284.074 191.772,283.724 192.063 C 283.007 192.658,282.945 261.169,283.660 262.526 C 284.424 263.978,284.520 263.987,299.200 264.007 C 310.394 264.021,313.549 264.138,314.103 264.559 C 314.923 265.181,315.114 277.780,314.337 280.008 L 313.922 281.200 303.410 281.200 C 295.463 281.200,292.569 281.067,291.549 280.655 C 290.807 280.355,288.763 279.885,287.007 279.611 C 285.131 279.318,283.418 278.800,282.853 278.356 C 282.325 277.940,281.591 277.600,281.224 277.600 C 280.856 277.600,279.945 277.150,279.200 276.600 C 278.455 276.050,277.688 275.600,277.497 275.600 C 276.597 275.600,268.400 267.147,268.400 266.219 C 268.400 265.964,267.950 265.145,267.400 264.400 C 266.850 263.655,266.400 262.668,266.400 262.207 C 266.400 261.746,266.063 260.707,265.650 259.899 C 265.238 259.090,264.758 258.017,264.584 257.514 C 264.410 257.011,264.162 242.230,264.034 224.667 C 263.807 193.662,263.777 192.718,263.024 192.167 C 262.405 191.715,260.294 191.599,252.624 191.594 C 247.289 191.590,242.734 191.419,242.403 191.210 C 241.576 190.687,241.639 175.275,242.471 174.748 C 242.762 174.563,247.320 174.404,252.600 174.393 C 260.522 174.378,262.340 174.269,263.000 173.770 C 263.773 173.186,263.804 172.629,263.913 157.004 L 264.026 140.843 265.913 140.666 C 271.069 140.184,282.128 140.686,282.670 141.428 M208.080 174.480 C 207.465 175.095,207.377 279.360,207.990 280.974 L 208.380 282.000 217.910 282.000 C 224.789 282.000,227.574 281.866,227.920 281.520 C 228.617 280.823,228.617 175.177,227.920 174.480 C 227.238 173.798,208.762 173.798,208.080 174.480 M227.400 227.800 L 227.400 281.000 218.228 281.108 C 211.158 281.191,208.983 281.099,208.734 280.708 C 208.345 280.093,208.285 175.049,208.674 174.659 C 208.824 174.509,213.099 174.434,218.174 174.493 L 227.400 174.600 227.400 227.800 M106.080 195.680 C 105.129 196.631,105.417 259.710,106.376 260.578 C 107.103 261.237,109.116 261.278,138.276 261.235 L 169.400 261.188 170.291 260.183 L 171.182 259.177 171.195 228.083 C 171.207 200.485,171.138 196.889,170.582 196.095 L 169.955 195.200 138.257 195.200 C 114.137 195.200,106.445 195.315,106.080 195.680 M169.813 196.420 C 170.300 197.210,170.036 259.275,169.542 259.870 C 168.869 260.681,107.645 260.467,106.661 259.651 C 105.885 259.006,105.625 199.038,106.390 197.026 L 106.780 196.000 138.166 196.000 C 159.667 196.000,169.635 196.132,169.813 196.420 " stroke="none" fill="#848cb4" fill-rule="evenodd"></path><path id="path3" d="M8.198 200.000 C 8.198 310.110,8.244 355.155,8.300 300.100 C 8.356 245.045,8.356 154.955,8.300 99.900 C 8.244 44.845,8.198 89.890,8.198 200.000 M391.798 200.000 C 391.798 310.110,391.844 355.155,391.900 300.100 C 391.956 245.045,391.956 154.955,391.900 99.900 C 391.844 44.845,391.798 89.890,391.798 200.000 M85.620 128.171 C 84.022 129.056,84.057 127.353,84.028 205.677 L 84.000 281.155 84.889 281.777 C 85.888 282.477,104.881 282.716,105.944 282.043 C 106.484 281.701,106.547 280.879,106.750 271.600 C 106.809 268.879,106.912 268.360,107.265 269.000 C 107.508 269.440,108.897 270.938,110.353 272.329 C 113.886 275.704,114.304 276.054,116.400 277.383 C 117.390 278.011,118.653 278.832,119.208 279.206 C 119.762 279.581,120.662 280.024,121.208 280.192 C 121.753 280.359,123.100 280.908,124.200 281.411 C 125.300 281.915,127.010 282.446,128.000 282.593 C 128.990 282.739,130.430 283.160,131.200 283.529 C 133.232 284.503,148.684 284.512,150.839 283.540 C 151.630 283.184,153.250 282.767,154.439 282.614 C 157.469 282.224,159.600 281.636,159.600 281.189 C 159.600 280.980,160.337 280.692,161.237 280.548 C 162.138 280.404,163.379 279.862,163.995 279.343 C 164.611 278.824,165.485 278.400,165.937 278.400 C 166.389 278.400,167.244 277.950,167.838 277.400 C 168.431 276.850,169.150 276.400,169.436 276.400 C 169.721 276.400,170.190 276.085,170.477 275.700 C 170.765 275.315,171.505 274.739,172.123 274.420 C 174.394 273.247,180.201 267.003,182.236 263.546 C 182.475 263.139,182.951 262.489,183.294 262.103 C 183.929 261.386,185.066 259.313,186.201 256.800 C 186.549 256.030,187.167 254.770,187.574 254.000 C 187.981 253.230,188.443 251.790,188.601 250.800 C 188.758 249.810,189.153 248.698,189.479 248.330 C 189.804 247.961,190.241 246.251,190.450 244.530 C 190.659 242.808,191.138 240.590,191.515 239.600 C 192.529 236.934,192.528 219.154,191.513 216.200 C 191.135 215.100,190.640 212.799,190.413 211.087 C 190.186 209.374,189.753 207.574,189.450 207.087 C 189.148 206.599,188.684 205.300,188.420 204.200 C 188.156 203.100,187.700 201.930,187.407 201.600 C 187.114 201.270,186.673 200.243,186.426 199.317 C 186.180 198.391,185.788 197.516,185.556 197.373 C 185.324 197.229,184.795 196.322,184.381 195.356 C 183.967 194.390,183.442 193.600,183.214 193.600 C 182.986 193.600,182.800 193.370,182.800 193.089 C 182.800 192.542,180.350 189.142,178.950 187.747 C 178.483 187.281,178.033 186.738,177.950 186.539 C 177.868 186.341,176.450 185.058,174.800 183.689 C 173.150 182.319,171.366 180.839,170.837 180.399 C 170.307 179.960,169.703 179.600,169.494 179.600 C 169.286 179.600,168.581 179.150,167.927 178.600 C 167.273 178.050,166.507 177.600,166.223 177.600 C 165.940 177.600,165.223 177.218,164.630 176.752 C 164.037 176.286,162.800 175.735,161.882 175.529 C 160.963 175.323,159.915 174.886,159.553 174.558 C 159.191 174.230,157.658 173.770,156.147 173.536 C 154.636 173.303,152.860 172.816,152.200 172.456 C 150.389 171.466,132.519 171.485,130.190 172.478 C 129.315 172.851,127.617 173.352,126.416 173.592 C 125.215 173.831,123.955 174.269,123.616 174.563 C 123.277 174.858,122.328 175.315,121.506 175.579 C 120.684 175.842,119.911 176.220,119.789 176.418 C 119.667 176.615,118.809 177.113,117.883 177.524 C 116.958 177.934,115.953 178.569,115.651 178.935 C 115.349 179.301,114.905 179.600,114.665 179.600 C 114.425 179.600,113.862 179.951,113.414 180.381 C 112.966 180.811,111.835 181.891,110.900 182.781 C 109.965 183.671,109.200 184.559,109.200 184.753 C 109.200 184.948,108.840 185.201,108.401 185.316 C 107.962 185.431,107.433 185.947,107.226 186.462 C 106.720 187.726,106.727 188.144,106.768 157.200 C 106.802 131.471,106.682 128.680,105.507 127.934 C 104.583 127.347,86.724 127.560,85.620 128.171 M207.810 128.248 C 206.737 129.320,207.072 149.026,208.176 149.833 C 209.615 150.883,227.257 150.642,228.238 149.558 C 229.234 148.457,229.425 129.435,228.451 128.261 C 227.631 127.273,208.797 127.260,207.810 128.248 M227.920 128.480 C 228.519 129.079,228.599 147.024,228.010 148.574 L 227.620 149.600 218.259 149.600 C 210.045 149.600,208.831 149.519,208.349 148.939 C 207.454 147.862,207.327 129.530,208.209 128.648 C 209.044 127.814,227.099 127.659,227.920 128.480 M105.534 128.920 C 105.831 129.278,106.002 138.384,106.083 158.220 C 106.147 174.049,106.353 187.237,106.540 187.526 C 106.792 187.916,107.255 187.607,108.340 186.326 C 112.344 181.593,116.398 178.502,121.600 176.213 C 122.370 175.874,123.525 175.319,124.166 174.979 C 124.808 174.639,126.518 174.099,127.966 173.778 C 129.415 173.457,131.584 172.926,132.787 172.597 C 135.709 171.799,145.642 171.801,149.200 172.601 C 150.630 172.922,152.790 173.373,154.000 173.602 C 157.999 174.360,165.344 177.432,168.600 179.710 C 169.480 180.325,170.830 181.250,171.600 181.765 C 176.752 185.208,181.958 191.520,185.156 198.200 C 185.893 199.740,186.819 201.630,187.214 202.400 C 187.609 203.170,188.057 204.520,188.211 205.400 C 188.364 206.280,188.744 207.405,189.055 207.901 C 189.366 208.397,189.883 210.647,190.205 212.901 C 190.526 215.155,190.998 217.720,191.254 218.600 C 192.004 221.183,191.907 233.977,191.109 237.800 C 190.741 239.560,190.245 242.340,190.005 243.978 C 189.765 245.616,189.382 247.181,189.153 247.456 C 188.925 247.732,188.498 248.912,188.206 250.078 C 187.529 252.777,185.715 257.116,184.746 258.354 C 184.336 258.879,183.997 259.509,183.993 259.754 C 183.989 259.999,183.494 260.921,182.893 261.803 C 177.770 269.316,171.345 275.239,165.344 277.978 C 164.433 278.394,163.576 278.915,163.439 279.136 C 163.303 279.357,162.608 279.663,161.895 279.815 C 161.183 279.967,159.610 280.501,158.400 281.001 C 157.190 281.501,155.210 282.036,154.000 282.189 C 152.790 282.342,150.736 282.734,149.436 283.061 C 146.339 283.839,137.957 284.208,135.400 283.679 C 122.556 281.020,117.328 278.511,110.505 271.731 C 106.082 267.336,106.274 267.179,106.008 275.400 L 105.800 281.800 96.186 281.907 C 88.335 281.994,86.428 281.908,85.786 281.439 C 85.010 280.872,84.998 279.891,84.885 206.532 C 84.768 130.794,84.777 130.080,85.844 129.013 C 86.682 128.176,104.845 128.090,105.534 128.920 M263.929 139.524 C 262.059 139.740,262.049 139.820,261.921 156.682 C 261.855 165.511,261.670 172.864,261.512 173.022 C 261.353 173.181,256.843 173.330,251.489 173.355 C 238.681 173.414,239.925 172.371,239.984 182.998 C 240.012 188.053,240.191 191.551,240.434 191.795 C 240.675 192.036,244.988 192.281,251.103 192.400 L 261.368 192.600 261.661 194.000 C 261.822 194.770,261.967 208.135,261.982 223.701 C 262.006 247.459,262.104 252.279,262.597 253.729 C 262.919 254.679,263.356 256.677,263.567 258.170 C 263.779 259.662,264.216 261.180,264.539 261.542 C 264.861 261.904,265.322 262.936,265.561 263.836 C 265.801 264.737,266.357 265.799,266.798 266.198 C 267.239 266.598,267.600 267.138,267.600 267.399 C 267.600 269.306,276.878 277.689,280.000 278.602 C 280.550 278.763,281.309 279.165,281.686 279.496 C 282.063 279.827,283.233 280.258,284.286 280.453 C 285.339 280.649,286.830 281.122,287.600 281.504 C 288.827 282.114,290.620 282.215,302.075 282.325 L 315.149 282.449 315.797 281.460 C 316.833 279.879,316.528 264.044,315.438 262.841 C 314.690 262.015,314.410 262.000,299.746 262.000 L 284.815 262.000 284.598 261.100 C 284.478 260.605,284.429 244.990,284.490 226.400 L 284.600 192.600 300.115 192.400 C 313.321 192.230,315.686 192.111,316.009 191.600 C 316.658 190.572,316.502 175.092,315.832 174.176 C 315.237 173.362,314.207 173.325,288.900 173.219 L 284.400 173.200 284.400 156.849 C 284.400 144.001,284.290 140.406,283.885 140.070 C 283.407 139.674,266.612 139.214,263.929 139.524 M283.520 140.480 C 283.877 140.837,284.000 145.058,284.000 157.000 C 284.000 168.942,284.123 173.163,284.480 173.520 C 284.836 173.876,288.791 174.000,299.800 174.000 C 310.809 174.000,314.764 174.124,315.120 174.480 C 315.461 174.821,315.600 177.280,315.600 183.000 C 315.600 188.720,315.461 191.179,315.120 191.520 C 314.764 191.876,310.809 192.000,299.800 192.000 C 288.791 192.000,284.836 192.124,284.480 192.480 C 283.844 193.116,283.780 260.842,284.414 262.026 C 284.812 262.770,285.405 262.800,299.586 262.800 C 316.966 262.800,315.588 262.394,315.625 267.529 C 315.718 280.157,315.680 280.953,314.951 281.486 C 314.127 282.088,293.715 282.204,291.000 281.622 C 287.024 280.769,282.548 279.467,282.000 279.003 C 281.670 278.723,280.950 278.365,280.400 278.207 C 277.929 277.497,272.312 272.923,269.856 269.620 C 267.046 265.841,266.015 264.224,266.007 263.585 C 266.003 263.246,265.633 262.256,265.185 261.385 C 262.801 256.752,262.400 250.883,262.400 220.628 C 262.400 193.552,262.380 192.817,261.626 192.414 C 261.156 192.162,257.116 191.998,251.326 191.994 C 246.034 191.990,241.533 191.819,241.200 191.609 C 240.100 190.915,240.092 174.993,241.191 174.405 C 241.740 174.111,245.166 173.964,251.195 173.976 C 256.238 173.986,260.822 173.820,261.382 173.607 L 262.400 173.220 262.400 157.238 C 262.400 143.243,262.478 141.179,263.029 140.629 C 263.846 139.811,282.714 139.674,283.520 140.480 M209.000 173.470 C 207.133 173.932,207.200 171.891,207.200 228.000 C 207.200 269.816,207.306 281.188,207.700 281.712 C 208.453 282.714,227.354 282.817,228.346 281.825 C 228.945 281.227,229.000 276.667,229.000 227.951 L 229.000 174.730 228.132 174.027 C 227.279 173.336,211.409 172.874,209.000 173.470 M227.920 174.480 C 228.617 175.177,228.617 280.823,227.920 281.520 C 227.574 281.866,224.789 282.000,217.910 282.000 L 208.380 282.000 207.990 280.974 C 207.377 279.360,207.465 175.095,208.080 174.480 C 208.762 173.798,227.238 173.798,227.920 174.480 M106.390 197.026 C 105.625 199.038,105.885 259.006,106.661 259.651 C 107.645 260.467,168.869 260.681,169.542 259.870 C 170.036 259.275,170.300 197.210,169.813 196.420 C 169.635 196.132,159.667 196.000,138.166 196.000 L 106.780 196.000 106.390 197.026 M169.400 228.000 L 169.400 259.400 138.077 259.400 L 106.754 259.400 106.739 228.322 C 106.731 211.230,106.843 197.054,106.988 196.820 C 107.170 196.525,116.721 196.426,138.325 196.498 L 169.400 196.600 169.400 228.000 " stroke="none" fill="#5c5c94" fill-rule="evenodd"></path><path id="path4" d="M8.598 200.000 C 8.598 310.110,8.644 355.155,8.700 300.100 C 8.756 245.045,8.756 154.955,8.700 99.900 C 8.644 44.845,8.598 89.890,8.598 200.000 M391.398 200.000 C 391.398 310.110,391.444 355.155,391.500 300.100 C 391.556 245.045,391.556 154.955,391.500 99.900 C 391.444 44.845,391.398 89.890,391.398 200.000 M84.535 127.673 C 83.168 128.334,83.206 126.096,83.213 205.684 L 83.219 281.568 84.098 282.184 C 84.837 282.701,86.693 282.800,95.702 282.800 L 106.426 282.800 106.760 281.900 C 106.944 281.405,106.985 280.730,106.851 280.400 C 106.681 279.982,106.564 280.103,106.463 280.800 C 106.384 281.350,106.112 281.932,105.860 282.094 C 104.862 282.732,85.842 282.445,84.889 281.777 L 84.000 281.155 84.005 205.877 C 84.008 164.475,84.121 130.188,84.256 129.684 C 84.753 127.829,86.038 127.600,95.952 127.600 C 106.251 127.600,106.121 127.565,106.608 130.444 C 106.801 131.590,106.993 131.935,107.227 131.556 C 107.420 131.243,107.401 130.841,107.183 130.623 C 106.973 130.413,106.800 129.772,106.800 129.200 C 106.800 128.628,106.584 127.944,106.320 127.680 C 105.696 127.056,85.823 127.049,84.535 127.673 M206.900 127.977 C 206.013 128.717,206.000 128.869,206.000 138.138 C 206.000 147.552,206.157 148.899,207.395 150.138 C 208.523 151.266,227.625 151.121,229.238 149.973 L 230.400 149.146 230.394 139.073 C 230.388 128.612,230.362 128.416,228.926 127.660 C 227.270 126.788,207.993 127.066,206.900 127.977 M228.451 128.261 C 229.425 129.435,229.234 148.457,228.238 149.558 C 227.257 150.642,209.615 150.883,208.176 149.833 C 207.072 149.026,206.737 129.320,207.810 128.248 C 208.797 127.260,227.631 127.273,228.451 128.261 M263.200 139.128 C 261.206 139.384,261.200 139.433,261.200 156.643 C 261.200 169.141,261.088 172.778,260.700 172.935 C 260.380 173.064,260.433 173.148,260.848 173.168 C 261.871 173.218,261.991 171.358,261.996 155.349 C 261.999 142.829,262.092 140.422,262.583 140.014 C 263.358 139.371,283.097 139.417,283.876 140.063 C 284.292 140.409,284.400 143.859,284.400 156.849 C 284.400 172.167,284.444 173.198,285.100 173.168 C 285.518 173.150,285.599 173.056,285.300 172.935 C 284.911 172.778,284.800 169.043,284.800 156.154 C 284.800 143.249,284.689 139.537,284.300 139.403 C 283.696 139.195,264.617 138.946,263.200 139.128 M129.350 171.623 C 128.663 171.829,127.876 172.268,127.601 172.598 C 127.327 172.929,126.485 173.200,125.731 173.200 C 124.256 173.200,122.000 174.174,122.000 174.810 C 122.000 175.025,121.575 175.200,121.056 175.200 C 120.537 175.200,119.449 175.650,118.638 176.200 C 117.828 176.750,116.907 177.200,116.591 177.200 C 116.276 177.200,115.724 177.650,115.363 178.200 C 115.003 178.750,114.491 179.200,114.226 179.200 C 113.961 179.200,113.142 179.737,112.407 180.394 C 111.672 181.050,110.739 181.692,110.335 181.821 C 109.931 181.949,109.600 182.294,109.600 182.587 C 109.600 182.881,108.970 183.493,108.200 183.947 C 107.039 184.632,106.804 184.997,106.825 186.087 C 106.849 187.312,106.876 187.337,107.226 186.462 C 107.433 185.947,107.962 185.431,108.401 185.316 C 108.840 185.201,109.200 184.948,109.200 184.753 C 109.200 184.559,109.965 183.671,110.900 182.781 C 111.835 181.891,112.966 180.811,113.414 180.381 C 113.862 179.951,114.425 179.600,114.665 179.600 C 114.905 179.600,115.349 179.301,115.651 178.935 C 115.953 178.569,116.958 177.934,117.883 177.524 C 118.809 177.113,119.667 176.615,119.789 176.418 C 119.911 176.220,120.684 175.842,121.506 175.579 C 122.328 175.315,123.277 174.858,123.616 174.563 C 123.955 174.269,125.215 173.831,126.416 173.592 C 127.617 173.352,129.315 172.851,130.190 172.478 C 132.519 171.485,150.389 171.466,152.200 172.456 C 152.860 172.816,154.636 173.303,156.147 173.536 C 157.658 173.770,159.203 174.240,159.579 174.581 C 160.435 175.356,160.800 175.366,160.800 174.614 C 160.800 173.746,159.490 173.200,157.410 173.200 C 156.126 173.200,155.199 172.927,154.351 172.300 C 153.019 171.314,132.262 170.752,129.350 171.623 M242.589 172.817 C 242.459 173.028,241.859 173.200,241.256 173.200 C 239.270 173.200,239.200 173.522,239.200 182.706 C 239.200 194.011,237.831 192.800,250.614 192.800 L 261.200 192.800 261.210 222.900 C 261.219 252.670,261.346 255.802,262.573 256.489 C 263.034 256.747,263.200 257.477,263.200 259.239 C 263.200 261.284,263.347 261.775,264.200 262.565 C 264.750 263.075,265.200 263.888,265.200 264.372 C 265.200 265.584,265.908 266.800,266.614 266.800 C 266.975 266.800,267.200 267.191,267.200 267.818 C 267.200 268.378,267.650 269.286,268.200 269.836 C 268.750 270.386,269.200 270.996,269.200 271.191 C 269.200 271.386,269.740 271.930,270.400 272.400 C 271.060 272.870,271.600 273.509,271.600 273.820 C 271.600 274.130,272.050 274.498,272.600 274.636 C 273.150 274.774,273.600 275.141,273.600 275.452 C 273.600 275.763,274.095 276.231,274.700 276.493 C 275.305 276.755,276.309 277.381,276.931 277.884 C 277.553 278.388,278.399 278.800,278.813 278.800 C 279.226 278.800,280.014 279.250,280.564 279.800 C 281.339 280.575,281.975 280.800,283.394 280.800 C 284.647 280.800,285.297 280.988,285.454 281.396 C 286.057 282.968,315.171 283.675,316.291 282.144 C 317.254 280.826,316.997 262.997,316.000 262.000 C 315.228 261.228,314.667 261.200,300.000 261.200 L 284.800 261.200 284.800 227.000 L 284.800 192.800 300.320 192.800 C 311.858 192.800,315.963 192.677,316.320 192.320 C 316.665 191.975,316.800 189.326,316.800 182.929 L 316.800 174.018 315.857 173.401 C 315.164 172.947,314.662 172.885,313.957 173.166 C 313.045 173.531,313.060 173.550,314.286 173.575 C 315.130 173.591,315.714 173.866,315.986 174.374 C 316.510 175.354,316.531 190.773,316.009 191.600 C 315.686 192.111,313.321 192.230,300.115 192.400 L 284.600 192.600 284.490 226.400 C 284.429 244.990,284.478 260.605,284.598 261.100 L 284.815 262.000 299.746 262.000 C 314.410 262.000,314.690 262.015,315.438 262.841 C 316.528 264.044,316.833 279.879,315.797 281.460 L 315.149 282.449 302.075 282.325 C 290.620 282.215,288.827 282.114,287.600 281.504 C 286.830 281.122,285.339 280.649,284.286 280.453 C 283.233 280.258,282.063 279.827,281.686 279.496 C 281.309 279.165,280.550 278.763,280.000 278.602 C 276.878 277.689,267.600 269.306,267.600 267.399 C 267.600 267.138,267.239 266.598,266.798 266.198 C 266.357 265.799,265.801 264.737,265.561 263.836 C 265.322 262.936,264.861 261.904,264.539 261.542 C 264.216 261.180,263.779 259.662,263.567 258.170 C 263.356 256.677,262.919 254.679,262.597 253.729 C 262.104 252.279,262.006 247.459,261.982 223.701 C 261.967 208.135,261.822 194.770,261.661 194.000 L 261.368 192.600 251.103 192.400 C 244.988 192.281,240.675 192.036,240.434 191.795 C 239.928 191.288,239.794 174.846,240.292 174.348 C 240.487 174.153,241.446 173.762,242.423 173.479 C 243.717 173.104,244.013 172.892,243.513 172.699 C 243.135 172.554,242.719 172.607,242.589 172.817 M247.600 172.800 L 246.200 173.095 247.924 173.147 C 248.983 173.180,249.552 173.046,249.400 172.800 C 249.264 172.580,249.118 172.424,249.076 172.453 C 249.034 172.482,248.370 172.638,247.600 172.800 M227.811 173.776 L 229.000 174.724 229.000 227.948 C 229.000 276.667,228.945 281.227,228.346 281.825 C 227.354 282.817,208.453 282.714,207.700 281.712 C 207.306 281.188,207.200 269.816,207.200 228.000 C 207.200 171.891,207.133 173.917,209.000 173.480 C 209.541 173.354,209.411 173.282,208.600 173.259 C 205.797 173.180,205.989 169.178,205.997 227.570 C 206.004 276.607,206.049 280.066,206.702 281.378 L 207.400 282.780 217.000 282.852 C 228.250 282.937,228.216 282.939,229.449 282.131 L 230.400 281.508 230.400 228.000 L 230.400 174.492 229.500 173.912 C 227.737 172.775,226.424 172.670,227.811 173.776 M250.500 173.476 C 250.885 173.576,251.515 173.576,251.900 173.476 C 252.285 173.375,251.970 173.293,251.200 173.293 C 250.430 173.293,250.115 173.375,250.500 173.476 M162.263 175.583 C 162.958 175.748,164.017 176.270,164.617 176.742 C 165.217 177.214,165.940 177.600,166.223 177.600 C 166.507 177.600,167.273 178.050,167.927 178.600 C 168.581 179.150,169.286 179.600,169.494 179.600 C 169.703 179.600,170.307 179.960,170.837 180.399 C 171.366 180.839,173.150 182.319,174.800 183.689 C 176.450 185.058,177.868 186.341,177.950 186.539 C 178.033 186.738,178.483 187.281,178.950 187.747 C 180.350 189.142,182.800 192.542,182.800 193.089 C 182.800 193.370,182.986 193.600,183.214 193.600 C 183.442 193.600,183.967 194.390,184.381 195.356 C 184.795 196.322,185.324 197.229,185.556 197.373 C 185.788 197.516,186.180 198.391,186.426 199.317 C 186.673 200.243,187.114 201.270,187.407 201.600 C 187.700 201.930,188.156 203.100,188.420 204.200 C 188.684 205.300,189.148 206.600,189.452 207.088 C 189.755 207.577,190.161 208.927,190.355 210.088 L 190.706 212.200 190.753 209.926 C 190.803 207.525,190.323 205.751,189.431 205.033 C 189.136 204.795,188.794 203.792,188.672 202.804 C 188.540 201.734,188.144 200.760,187.692 200.394 C 187.275 200.056,186.819 199.065,186.679 198.190 C 186.539 197.316,186.059 196.301,185.612 195.936 C 185.165 195.571,184.800 194.909,184.800 194.465 C 184.800 194.021,184.350 193.304,183.800 192.871 C 183.250 192.439,182.800 191.787,182.800 191.423 C 182.800 191.059,182.382 190.365,181.870 189.881 C 181.359 189.396,180.818 188.668,180.668 188.262 C 180.518 187.856,180.047 187.433,179.620 187.321 C 179.194 187.210,178.790 186.732,178.722 186.259 C 178.648 185.736,178.264 185.352,177.741 185.278 C 177.268 185.210,176.787 184.792,176.670 184.348 C 176.554 183.904,176.092 183.445,175.643 183.327 C 175.194 183.210,174.721 182.782,174.593 182.377 C 174.464 181.972,174.003 181.528,173.567 181.389 C 173.131 181.251,172.338 180.702,171.805 180.169 C 171.272 179.636,170.378 179.200,169.818 179.200 C 169.086 179.200,168.800 178.987,168.800 178.443 C 168.800 177.654,168.064 177.200,166.787 177.200 C 166.376 177.200,165.896 176.956,165.720 176.658 C 165.213 175.801,163.767 175.196,162.326 175.241 L 161.000 175.282 162.263 175.583 M106.520 178.000 C 106.520 179.210,106.595 179.705,106.687 179.100 C 106.778 178.495,106.778 177.505,106.687 176.900 C 106.595 176.295,106.520 176.790,106.520 178.000 M107.069 196.664 C 106.921 196.812,106.800 197.119,106.800 197.347 C 106.800 197.594,106.993 197.567,107.280 197.280 C 107.645 196.915,115.120 196.800,138.480 196.800 L 169.200 196.800 169.200 228.000 L 169.200 259.200 138.022 259.200 L 106.844 259.200 106.689 257.500 L 106.535 255.800 106.567 257.600 L 106.600 259.400 138.000 259.400 L 169.400 259.400 169.400 228.000 L 169.400 196.600 138.369 196.498 C 121.302 196.441,107.217 196.516,107.069 196.664 M190.800 213.551 C 190.800 214.184,191.112 215.399,191.494 216.251 C 192.095 217.591,192.189 219.179,192.189 228.000 C 192.189 236.821,192.095 238.409,191.494 239.749 C 190.356 242.288,190.846 244.070,192.086 241.900 C 192.984 240.327,192.811 215.386,191.890 213.700 C 191.016 212.101,190.800 212.071,190.800 213.551 M190.368 245.294 C 190.240 246.555,189.854 247.905,189.511 248.294 C 189.168 248.682,188.758 249.810,188.601 250.800 C 188.443 251.790,187.981 253.230,187.574 254.000 C 187.167 254.770,186.549 256.030,186.201 256.800 C 185.066 259.313,183.929 261.386,183.294 262.103 C 182.951 262.489,182.475 263.139,182.236 263.546 C 180.201 267.003,174.394 273.247,172.123 274.420 C 171.505 274.739,170.765 275.315,170.477 275.700 C 170.190 276.085,169.721 276.400,169.436 276.400 C 169.150 276.400,168.431 276.850,167.838 277.400 C 167.244 277.950,166.389 278.400,165.937 278.400 C 165.485 278.400,164.611 278.824,163.995 279.343 C 163.379 279.862,162.138 280.404,161.237 280.548 C 160.337 280.692,159.600 280.980,159.600 281.189 C 159.600 281.636,157.469 282.224,154.439 282.614 C 153.250 282.767,151.630 283.184,150.839 283.540 C 148.684 284.512,133.232 284.503,131.200 283.529 C 130.430 283.160,128.990 282.739,128.000 282.593 C 127.010 282.446,125.300 281.915,124.200 281.411 C 123.100 280.908,121.753 280.359,121.208 280.192 C 120.662 280.024,119.762 279.581,119.208 279.206 C 118.653 278.832,117.390 278.011,116.400 277.383 C 114.304 276.054,113.886 275.704,110.353 272.329 C 108.897 270.938,107.508 269.440,107.265 269.000 C 106.834 268.218,106.824 268.220,106.812 269.074 C 106.792 270.494,107.530 272.000,108.245 272.000 C 108.611 272.000,109.448 272.630,110.106 273.400 C 110.764 274.170,111.545 274.800,111.842 274.800 C 112.139 274.800,112.676 275.250,113.037 275.800 C 113.397 276.350,113.988 276.800,114.350 276.800 C 114.712 276.800,115.232 277.160,115.507 277.600 C 115.782 278.040,116.261 278.400,116.573 278.400 C 116.884 278.400,117.675 278.851,118.329 279.402 C 118.984 279.953,120.119 280.524,120.851 280.670 C 121.583 280.817,122.456 281.271,122.791 281.679 C 123.185 282.159,124.177 282.511,125.600 282.676 C 126.856 282.821,128.286 283.289,128.934 283.765 C 130.761 285.109,151.720 285.054,153.551 283.700 C 154.429 283.050,155.321 282.800,156.758 282.800 C 159.162 282.800,160.800 282.237,160.800 281.410 C 160.800 280.996,161.194 280.800,162.026 280.800 C 163.547 280.800,164.800 280.161,164.800 279.386 C 164.800 278.999,165.216 278.800,166.026 278.800 C 167.511 278.800,168.800 278.166,168.800 277.436 C 168.800 277.141,169.300 276.800,169.912 276.678 C 170.933 276.473,172.115 275.646,174.200 273.675 C 174.640 273.260,175.405 272.706,175.900 272.446 C 176.395 272.185,176.800 271.737,176.800 271.450 C 176.800 271.163,177.250 270.723,177.800 270.473 C 178.350 270.222,178.800 269.743,178.800 269.409 C 178.800 269.074,179.074 268.800,179.409 268.800 C 179.743 268.800,180.238 268.314,180.509 267.719 C 180.779 267.124,181.405 266.233,181.900 265.737 C 182.395 265.242,182.800 264.378,182.800 263.818 C 182.800 263.075,183.011 262.800,183.582 262.800 C 184.159 262.800,184.433 262.433,184.627 261.394 C 184.772 260.621,185.114 259.856,185.387 259.694 C 186.031 259.312,186.800 257.837,186.800 256.984 C 186.800 256.616,187.250 255.781,187.800 255.127 C 188.498 254.298,188.800 253.460,188.800 252.357 C 188.800 251.365,189.010 250.694,189.363 250.559 C 190.319 250.192,190.847 248.251,190.721 245.567 L 190.600 243.000 190.368 245.294 M106.509 277.200 C 106.509 278.190,106.587 278.595,106.682 278.100 C 106.778 277.605,106.778 276.795,106.682 276.300 C 106.587 275.805,106.509 276.210,106.509 277.200 " stroke="none" fill="#282484" fill-rule="evenodd"></path></g></svg>