<svg xmlns="http://www.w3.org/2000/svg" version="1.0" preserveAspectRatio="xMidYMid meet" viewBox="43.48 17.17 693.52 269.69">

<g transform="translate(0.000000,326.000000) scale(0.100000,-0.100000)" fill="#000000" stroke="none">
<path d="M2172 3069 c-56 -28 -92 -88 -92 -155 0 -57 22 -100 72 -137 151 -115 351 78 244 236 -49 72 -143 96 -224 56z"/>
<path d="M1823 2686 c-80 -26 -142 -77 -178 -146 l-14 -28 51 -17 c125 -41 249 -118 360 -223 l77 -74 30 47 c73 114 62 255 -28 358 -67 75 -204 114 -298 83z"/>
<path d="M1209 2525 c-42 -8 -115 -28 -163 -46 l-86 -31 0 -274 0 -274 185 0 185 0 0 -65 0 -65 -185 0 -186 0 3 -382 c3 -381 3 -383 26 -415 44 -62 140 -65 198 -7 37 38 60 103 70 200 l7 64 53 0 54 0 0 -48 c0 -72 -36 -198 -71 -254 -60 -93 -145 -147 -264 -169 -61 -12 -65 -14 -43 -25 49 -25 157 -56 253 -70 179 -28 384 4 541 84 l79 41 -152 1 -153 0 0 54 0 53 60 6 c73 8 98 20 110 53 15 38 13 717 -2 748 -16 37 -52 57 -114 63 l-54 6 0 63 0 64 250 0 250 0 2 -477 3 -478 52 65 c66 81 146 240 175 345 31 115 31 364 0 480 -25 91 -107 264 -149 313 l-28 33 -68 -35 c-60 -32 -77 -36 -141 -36 -127 0 -224 65 -277 186 -18 39 -21 61 -17 130 l4 83 -45 11 c-73 19 -275 22 -362 5z"/>
<path d="M3494 2386 c-15 -24 -15 -28 0 -51 20 -31 56 -33 82 -4 17 19 17 23 3 47 -21 38 -62 41 -85 8z"/>
<path d="M4333 2403 c-42 -5 -45 -33 -5 -33 16 0 37 -9 46 -19 16 -18 17 -47 14 -345 -1 -179 -1 -326 2 -326 3 0 16 16 29 35 24 35 24 36 45 16 89 -81 225 -62 288 40 55 89 57 222 3 299 -64 92 -190 107 -259 31 -11 -12 -23 -21 -28 -21 -4 0 -8 74 -8 165 l0 165 -47 -2 c-27 0 -63 -3 -80 -5z m327 -321 c38 -38 53 -100 48 -193 -6 -95 -30 -147 -82 -173 -33 -16 -41 -17 -74 -4 -48 18 -79 66 -88 134 -14 112 18 227 70 252 43 21 96 14 126 -16z"/>
<path d="M780 2327 c-82 -67 -140 -133 -198 -222 -47 -71 -108 -203 -98 -212 9 -9 110 28 158 59 26 16 62 46 79 66 62 70 135 260 127 333 l-3 30 -65 -54z"/>
<path d="M3156 2278 c-10 -64 -50 -124 -91 -139 -48 -18 -46 -39 4 -39 l40 0 3 -181 3 -181 34 -30 c31 -27 39 -30 87 -26 75 6 113 45 129 131 6 29 4 37 -8 37 -9 0 -17 -14 -21 -41 -12 -76 -81 -114 -126 -69 -18 18 -20 33 -20 190 l0 170 76 0 c66 0 75 2 72 18 -3 14 -16 18 -76 20 l-72 3 0 89 c0 70 -3 90 -14 90 -8 0 -16 -16 -20 -42z"/>
<path d="M6178 2137 c-31 -21 -36 -22 -56 -9 -12 8 -51 17 -86 19 -102 9 -172 -33 -195 -115 -14 -47 3 -103 41 -136 24 -22 28 -31 18 -34 -31 -11 -70 -61 -70 -90 0 -32 47 -82 76 -82 9 0 12 -4 9 -10 -3 -5 -14 -10 -24 -10 -34 0 -71 -39 -71 -73 1 -62 57 -98 166 -105 94 -6 172 17 219 64 30 30 35 41 35 82 0 41 -5 53 -31 78 -30 29 -32 29 -167 34 -75 3 -143 9 -149 13 -7 5 -13 19 -13 31 0 35 17 43 106 48 93 5 162 33 195 79 26 37 29 108 5 144 -14 21 -15 29 -5 41 17 21 34 17 47 -11 18 -40 62 -26 62 20 0 49 -55 60 -112 22z m-89 -42 c26 -25 39 -101 27 -150 -22 -89 -143 -101 -185 -18 -19 38 -14 127 10 157 40 51 102 55 148 11z m71 -434 c51 -36 32 -98 -37 -127 -45 -19 -157 -18 -199 2 -53 25 -58 88 -9 120 54 35 197 38 245 5z"/>
<path d="M3793 2143 c-47 -3 -63 -8 -63 -18 0 -9 10 -15 23 -15 51 0 57 -22 57 -201 0 -178 -3 -189 -52 -189 -18 0 -28 -5 -28 -15 0 -13 20 -15 121 -15 92 0 120 3 117 13 -3 6 -19 13 -37 15 -22 2 -34 10 -40 25 -9 25 -7 209 3 254 10 45 66 94 115 100 36 5 44 2 76 -30 l36 -36 -3 -153 -3 -153 -34 -5 c-19 -3 -36 -11 -39 -17 -3 -10 25 -13 117 -13 99 0 121 3 121 14 0 10 -13 16 -37 18 l-38 3 -5 160 c-4 126 -9 167 -23 192 -25 47 -59 66 -120 66 -58 0 -99 -18 -136 -57 -32 -34 -41 -33 -41 3 0 33 -9 62 -19 59 -3 -1 -34 -3 -68 -5z"/>
<path d="M5015 2136 c-41 -18 -90 -73 -111 -121 -25 -59 -23 -169 4 -221 72 -140 236 -165 345 -53 26 27 47 53 47 59 0 21 -26 9 -52 -23 -49 -63 -127 -83 -194 -51 -44 21 -71 66 -80 132 l-7 52 167 0 c187 0 175 -6 155 80 -22 98 -98 160 -195 160 -27 -1 -62 -7 -79 -14z m158 -44 c21 -21 31 -42 34 -76 8 -71 0 -76 -130 -76 l-110 0 6 45 c18 129 122 184 200 107z"/>
<path d="M5634 2136 c-35 -15 -65 -53 -93 -118 l-20 -43 0 83 -1 82 -80 0 c-64 0 -80 -3 -80 -15 0 -10 10 -15 29 -15 58 0 62 -13 59 -208 l-3 -177 -42 -3 c-29 -2 -43 -8 -43 -18 0 -11 25 -14 140 -14 116 0 140 3 140 14 0 11 -15 16 -52 18 l-53 3 1 105 c1 121 25 199 75 250 44 44 61 40 53 -12 -6 -33 -4 -44 11 -55 40 -28 75 -2 75 56 0 62 -56 94 -116 67z"/>
<path d="M6470 2134 c-50 -22 -79 -52 -106 -109 -48 -102 -21 -249 57 -308 97 -73 233 -54 304 42 44 61 24 73 -27 15 -104 -118 -248 -69 -272 94 l-6 42 165 0 165 0 0 38 c0 42 -37 128 -66 154 -53 46 -148 61 -214 32z m136 -24 c42 -26 71 -95 57 -137 l-10 -28 -114 0 -114 0 3 40 c5 54 38 111 76 129 42 21 62 20 102 -4z"/>
<path d="M6883 2143 c-47 -3 -63 -8 -63 -18 0 -9 10 -15 23 -15 13 0 31 -6 40 -13 16 -11 17 -32 15 -192 l-3 -180 -34 -5 c-19 -3 -36 -11 -39 -17 -3 -10 25 -13 117 -13 101 0 121 2 121 15 0 10 -10 15 -34 15 -22 0 -36 6 -40 16 -3 9 -6 68 -6 132 0 134 13 172 69 209 42 28 76 29 118 3 43 -26 53 -67 53 -216 0 -130 -5 -144 -52 -144 -18 0 -28 -5 -28 -15 0 -12 19 -15 115 -15 96 0 115 3 115 15 0 10 -10 15 -28 15 -48 0 -52 12 -52 169 0 161 -9 196 -63 235 -59 44 -175 17 -226 -52 l-20 -27 -7 53 c-4 30 -11 51 -18 50 -6 -1 -39 -3 -73 -5z"/>
<path d="M3410 2125 c0 -10 10 -15 29 -15 16 0 38 -8 50 -17 21 -17 22 -24 19 -193 l-3 -175 -42 -3 c-29 -2 -43 -8 -43 -18 0 -11 24 -14 131 -14 100 0 130 3 127 13 -3 6 -22 14 -44 17 l-39 5 -3 208 -2 207 -90 0 c-73 0 -90 -3 -90 -15z"/>
<path d="M442 1753 c-14 -36 -6 -295 11 -367 23 -92 62 -188 108 -266 42 -71 94 -137 85 -107 -3 10 -6 185 -6 388 l0 369 -95 0 c-82 0 -97 -3 -103 -17z"/>
<path d="M3115 1506 c-20 -31 -6 -63 30 -72 46 -12 81 42 49 77 -24 26 -60 24 -79 -5z"/>
<path d="M4854 1506 c-15 -24 -15 -28 0 -51 33 -50 110 -14 90 43 -14 39 -66 44 -90 8z"/>
<path d="M4520 1428 c0 -71 -55 -159 -105 -172 -42 -11 -31 -36 15 -36 l40 0 0 -160 c0 -190 9 -222 67 -246 64 -27 137 -3 168 55 22 44 32 115 14 109 -7 -2 -17 -19 -20 -38 -15 -73 -64 -114 -108 -91 -36 20 -41 45 -41 210 l0 161 75 0 c68 0 75 2 75 20 0 18 -7 20 -75 20 l-75 0 0 95 c0 78 -3 95 -15 95 -9 0 -15 -9 -15 -22z"/>
<path d="M5200 1397 c-14 -69 -42 -114 -85 -134 -48 -23 -46 -43 5 -43 l40 0 0 -175 0 -175 29 -32 c26 -30 35 -33 84 -33 45 0 60 5 82 25 33 30 55 78 55 120 0 42 -16 37 -25 -7 -13 -73 -59 -112 -109 -93 -37 14 -46 59 -46 221 l0 149 75 0 c68 0 75 2 75 20 0 17 -8 19 -72 22 l-73 3 -3 93 c-1 50 -7 92 -12 92 -5 0 -14 -24 -20 -53z"/>
<path d="M6185 1407 c-10 -62 -44 -119 -88 -142 -49 -27 -48 -45 3 -45 l40 0 0 -176 0 -176 29 -28 c76 -77 196 -35 219 77 6 26 8 51 6 55 -11 18 -22 6 -28 -33 -7 -43 -52 -99 -79 -99 -8 0 -26 9 -41 21 l-26 20 0 170 0 169 70 0 c63 0 70 2 70 20 0 18 -7 20 -70 20 l-69 0 -3 92 c-3 101 -22 132 -33 55z"/>
<path d="M3108 1262 c-60 -2 -78 -6 -78 -17 0 -10 11 -15 33 -15 62 0 67 -16 67 -201 0 -181 -2 -189 -57 -189 -23 0 -33 -5 -33 -15 0 -13 21 -15 130 -15 107 0 130 3 130 14 0 10 -14 16 -42 18 l-43 3 -5 209 c-3 128 -9 210 -15 211 -5 0 -45 -1 -87 -3z"/>
<path d="M3388 1263 c-46 -5 -50 -21 -8 -30 17 -3 35 -14 40 -24 15 -27 13 -342 -2 -357 -7 -7 -25 -12 -40 -12 -18 0 -28 -5 -28 -15 0 -12 20 -15 120 -15 100 0 120 3 120 15 0 10 -10 15 -27 15 -55 0 -58 8 -58 147 1 144 12 179 68 213 35 22 87 26 118 10 40 -22 49 -61 49 -208 0 -149 -4 -162 -52 -162 -18 0 -28 -5 -28 -15 0 -12 20 -15 120 -15 100 0 120 3 120 15 0 10 -10 15 -28 15 -48 0 -52 13 -52 155 0 146 -10 198 -47 237 -53 55 -164 47 -225 -17 -40 -43 -48 -44 -48 -6 0 62 -6 65 -112 54z"/>
<path d="M4060 1252 c-69 -34 -99 -117 -65 -182 20 -38 53 -55 149 -75 115 -23 136 -37 136 -88 0 -18 -10 -37 -26 -52 -22 -21 -37 -25 -84 -25 -72 0 -113 26 -150 94 -40 74 -55 73 -47 -4 4 -35 7 -76 7 -91 0 -35 21 -38 42 -8 l14 21 34 -21 c25 -15 52 -21 93 -21 66 0 103 16 141 60 46 55 29 153 -32 184 -15 8 -65 21 -111 30 -94 17 -128 35 -137 71 -8 31 17 72 52 85 70 27 141 -4 182 -78 13 -23 28 -42 33 -42 10 0 12 67 3 123 -6 36 -7 37 -26 20 -18 -16 -21 -16 -66 0 -60 22 -98 21 -142 -1z"/>
<path d="M4853 1262 c-65 -2 -83 -6 -83 -17 0 -10 11 -15 34 -15 62 0 66 -12 66 -199 0 -183 -2 -191 -57 -191 -23 0 -33 -5 -33 -15 0 -13 21 -15 130 -15 109 0 130 2 130 15 0 10 -10 15 -29 15 -63 0 -61 -7 -61 215 0 112 -3 205 -7 207 -5 2 -45 2 -90 0z"/>
<path d="M5508 1263 c-34 -3 -48 -8 -48 -19 0 -7 9 -14 21 -14 11 0 29 -5 40 -10 17 -10 19 -22 19 -143 0 -73 5 -150 11 -171 13 -47 57 -92 100 -101 44 -10 112 12 158 51 21 19 42 34 45 34 3 0 6 -18 6 -40 l0 -40 75 0 c60 0 75 3 75 15 0 9 -9 15 -24 15 -53 0 -56 14 -56 232 l0 201 -52 -7 c-29 -3 -65 -6 -80 -6 -18 0 -28 -5 -28 -15 0 -8 9 -15 21 -15 11 0 29 -5 40 -10 17 -10 19 -22 19 -136 0 -143 -11 -181 -65 -214 -35 -22 -85 -26 -116 -10 -41 23 -49 59 -49 240 l0 170 -32 -2 c-18 -1 -54 -3 -80 -5z"/>
<path d="M6585 1256 c-42 -18 -102 -88 -114 -133 -32 -114 2 -235 81 -289 34 -24 53 -29 112 -32 59 -2 77 1 110 20 50 29 104 94 90 108 -7 7 -21 -3 -42 -29 -59 -74 -157 -89 -221 -35 -30 25 -44 57 -56 127 l-6 37 121 1 c215 2 205 1 208 28 10 66 -51 171 -114 197 -42 17 -129 17 -169 0z m160 -40 c36 -39 49 -88 31 -126 -11 -24 -15 -25 -115 -28 -57 -1 -108 1 -113 6 -5 5 -3 32 3 63 16 75 61 119 119 119 36 0 48 -6 75 -34z"/>
<path d="M595 722 c-179 -85 -114 -345 82 -330 130 11 201 153 132 265 -43 70 -141 99 -214 65z"/>
</g>
</svg>