<?xml version="1.0" standalone="yes"?>
<svg xmlns="http://www.w3.org/2000/svg" width="215" height="234">
<path style="fill:#fefefe; stroke:none;" d="M0 0L0 234L215 234L215 0L0 0z"/>
<path style="fill:#98a4b6; stroke:none;" d="M94 12L95 13L94 12z"/>
<path style="fill:#576c8c; stroke:none;" d="M95 12L96 13L95 12z"/>
<path style="fill:#013166; stroke:none;" d="M92 17C82.4573 13.3462 70.3442 9.76125 70 24C78.8589 21.4431 86.4365 27.0179 95 29L95 30C88.8422 30 79.1974 27.7614 77 35C87.0483 33.7312 104.247 41.3961 91.8912 52.7716C83.4615 60.5325 75.6806 51.8082 69 46.6806C62.7381 41.8742 54.8038 39.4425 47 41.8001C39.041 44.2047 35.4163 51.4654 33.4784 59C29.3366 75.1031 27.0253 91.3585 21 107L38 91L20 136L34 128L8 173C19.3527 169.128 29.6106 160.819 35 150L36 150L25 173C34.4528 167.732 41.713 160.744 48 152C50.2547 158.934 50.5728 163.095 48 170L43 169C43.4005 174.969 53.5929 183.102 50.9583 187.887C46.5772 195.842 30.3019 180.742 29 198C22.8419 197.222 14.2054 195.105 9.3179 200.279C0.212883 209.916 13.9437 225.477 24 226C22.2914 223.255 17.5858 218.73 18.6088 215.228C19.9002 210.808 26.0647 212.723 29 213.671C39.9584 217.211 49.3596 223.04 61 224.568C71.7877 225.984 76.7114 219.91 73 210L105 216.971L136 210C132.589 235.454 162.895 220.973 176 215.428C179.109 214.113 191.268 208.906 191.368 216.109C191.415 219.496 187.621 223.179 186 226C195.8 225.117 209.628 210.003 200.566 200.394C195.633 195.164 187.225 197.213 181 198C179.335 183.062 164.4 192.553 156 186L156 185C161.602 181.043 166.238 176.018 167 169L162 170L161 152L185 173L174 150L175 150C179.673 161.038 190.931 169.231 202 173L176 128L190 136C182.328 122.165 175.148 107.936 173 92L188 106C184.405 90.4603 180.564 74.3481 176.254 59C174.423 52.4807 171.281 46.1837 164.996 43C159.492 40.2114 151.411 39.3161 146.001 42.7384C137.929 47.8442 127.014 65.771 119 49C123.953 50.6356 128.223 50.9523 132 47L125 41L131 37L119 26L127 22C117.914 20.8266 97.2792 6.94771 92 17z"/>
<path style="fill:#576c8c; stroke:none;" d="M99 12L100 13L99 12z"/>
<path style="fill:#98a4b6; stroke:none;" d="M100 12L101 13L100 12M74 13L75 14L74 13z"/>
<path style="fill:#576c8c; stroke:none;" d="M81 13L82 14L81 13z"/>
<path style="fill:#98a4b6; stroke:none;" d="M82 13L83 14L82 13z"/>
<path style="fill:#2c4b75; stroke:none;" d="M93 13L94 14L93 13z"/>
<path style="fill:#576c8c; stroke:none;" d="M102 13L103 14L102 13z"/>
<path style="fill:#98a4b6; stroke:none;" d="M103 13L104 14L103 13z"/>
<path style="fill:#576c8c; stroke:none;" d="M84 14L85 15L84 14z"/>
<path style="fill:#98a4b6; stroke:none;" d="M85 14L86 15L85 14z"/>
<path style="fill:#2c4b75; stroke:none;" d="M92 14L93 15L92 14M104 14L105 15L104 14z"/>
<path style="fill:#576c8c; stroke:none;" d="M87 15L88 16L87 15z"/>
<path style="fill:#98a4b6; stroke:none;" d="M88 15L89 16L88 15M91 15L92 16L91 15z"/>
<path style="fill:#576c8c; stroke:none;" d="M106 15L107 16L106 15z"/>
<path style="fill:#2c4b75; stroke:none;" d="M91 16L92 17L91 16z"/>
<path style="fill:#576c8c; stroke:none;" d="M108 16L109 17L108 16z"/>
<path style="fill:#98a4b6; stroke:none;" d="M70 17L71 18L70 17z"/>
<path style="fill:#576c8c; stroke:none;" d="M110 17L111 18L110 17z"/>
<path style="fill:#2c4b75; stroke:none;" d="M112 18L113 19L112 18z"/>
<path style="fill:#98a4b6; stroke:none;" d="M113 18L114 19L113 18z"/>
<path style="fill:#576c8c; stroke:none;" d="M115 19L116 20L115 19z"/>
<path style="fill:#98a4b6; stroke:none;" d="M116 19L117 20L116 19z"/>
<path style="fill:#576c8c; stroke:none;" d="M118 20L119 21L118 20z"/>
<path style="fill:#98a4b6; stroke:none;" d="M119 20L120 21L119 20z"/>
<path style="fill:#576c8c; stroke:none;" d="M123 21L124 22L123 21z"/>
<path style="fill:#98a4b6; stroke:none;" d="M124 21L124 22L127 22L124 21z"/>
<path style="fill:#576c8c; stroke:none;" d="M73 22L74 23L73 22z"/>
<path style="fill:#98a4b6; stroke:none;" d="M74.6667 22.3333L75.3333 22.6667L74.6667 22.3333z"/>
<path style="fill:#2c4b75; stroke:none;" d="M76 22L77 23L76 22z"/>
<path style="fill:#98a4b6; stroke:none;" d="M72 23L73 24L72 23M78 23L79 24L78 23M70 24L71 27L72 27L70 24z"/>
<path style="fill:#576c8c; stroke:none;" d="M71 24L72 25L71 24z"/>
<path style="fill:#98a4b6; stroke:none;" d="M80 24L81 25L80 24z"/>
<path style="fill:#576c8c; stroke:none;" d="M81 24L82 25L81 24z"/>
<path style="fill:#98a4b6; stroke:none;" d="M125 24L126 25L125 24M83 25L84 26L83 25z"/>
<path style="fill:#2c4b75; stroke:none;" d="M84 25L85 26L84 25z"/>
<path style="fill:#576c8c; stroke:none;" d="M123 25L124 26L123 25z"/>
<path style="fill:#98a4b6; stroke:none;" d="M86 26L87 27L86 26z"/>
<path style="fill:#576c8c; stroke:none;" d="M119 26L119 28L121 26L119 26z"/>
<path style="fill:#98a4b6; stroke:none;" d="M121 26L122 27L121 26M88 27L89 28L88 27z"/>
<path style="fill:#576c8c; stroke:none;" d="M89 27L90 28L89 27z"/>
<path style="fill:#98a4b6; stroke:none;" d="M120 27L121 28L120 27M91 28L92 29L91 28z"/>
<path style="fill:#576c8c; stroke:none;" d="M92 28L93 29L92 28z"/>
<path style="fill:#98a4b6; stroke:none;" d="M93 29L94 30L93 29z"/>
<path style="fill:#576c8c; stroke:none;" d="M94 29L95 30L94 29z"/>
<path style="fill:#98a4b6; stroke:none;" d="M123 29L124 30L123 29M78 30L79 31L78 30M77 31L78 32L77 31z"/>
<path style="fill:#576c8c; stroke:none;" d="M124 31L125 32L124 31z"/>
<path style="fill:#98a4b6; stroke:none;" d="M125 33L126 34L125 33z"/>
<path style="fill:#2c4b75; stroke:none;" d="M80 34L81 35L80 34z"/>
<path style="fill:#576c8c; stroke:none;" d="M81 34L82 35L81 34z"/>
<path style="fill:#98a4b6; stroke:none;" d="M82 34L82 35L86 35L82 34z"/>
<path style="fill:#576c8c; stroke:none;" d="M86 34L87 35L86 34z"/>
<path style="fill:#2c4b75; stroke:none;" d="M87 34L88 35L87 34z"/>
<path style="fill:#98a4b6; stroke:none;" d="M126 34L127 35L126 34M77.6667 35.3333L78.3333 35.6667L77.6667 35.3333M89 35L90 36L89 35M127 35L128 36L127 35z"/>
<path style="fill:#576c8c; stroke:none;" d="M91 36L92 37L91 36z"/>
<path style="fill:#2c4b75; stroke:none;" d="M128 36L129 37L128 36z"/>
<path style="fill:#98a4b6; stroke:none;" d="M129 36L129 37L132 37L129 36M92 37L93 38L92 37z"/>
<path style="fill:#576c8c; stroke:none;" d="M131 37L132 38L131 37z"/>
<path style="fill:#98a4b6; stroke:none;" d="M93 38L94 39L93 38z"/>
<path style="fill:#576c8c; stroke:none;" d="M94 39L95 40L94 39z"/>
<path style="fill:#98a4b6; stroke:none;" d="M130 39L131 40L130 39M50 40L50 41L57 41L50 40M128 40L129 41L128 40M149.667 40.3333L150.333 40.6667L149.667 40.3333z"/>
<path style="fill:#576c8c; stroke:none;" d="M151 40L152 41L151 40z"/>
<path style="fill:#2c4b75; stroke:none;" d="M152 40L153 41L152 40M155 40L156 41L155 40z"/>
<path style="fill:#576c8c; stroke:none;" d="M156.667 40.3333L157.333 40.6667L156.667 40.3333z"/>
<path style="fill:#98a4b6; stroke:none;" d="M158.667 40.3333L159.333 40.6667L158.667 40.3333M46 41L47 42L46 41z"/>
<path style="fill:#2c4b75; stroke:none;" d="M47 41L48 42L47 41z"/>
<path style="fill:#576c8c; stroke:none;" d="M59 41L60 42L59 41z"/>
<path style="fill:#98a4b6; stroke:none;" d="M60 41L61 42L60 41z"/>
<path style="fill:#576c8c; stroke:none;" d="M95 41L96 42L95 41z"/>
<path style="fill:#98a4b6; stroke:none;" d="M125.333 41.6667L125.667 42.3333L125.333 41.6667M147 41L148 42L147 41z"/>
<path style="fill:#576c8c; stroke:none;" d="M161 41L162 42L161 41z"/>
<path style="fill:#98a4b6; stroke:none;" d="M162 41L163 42L162 41z"/>
<path style="fill:#576c8c; stroke:none;" d="M44 42L45 43L44 42z"/>
<path style="fill:#98a4b6; stroke:none;" d="M62 42L63 43L62 42M95 42L96 43L95 42M145 42L146 43L145 42M164 42L165 43L164 42M42 43L43 44L42 43M64 43L65 44L64 43z"/>
<path style="fill:#576c8c; stroke:none;" d="M125 43L126 44L125 43M144 43L145 44L144 43z"/>
<path style="fill:#98a4b6; stroke:none;" d="M166 43L167 44L166 43z"/>
<path style="fill:#2c4b75; stroke:none;" d="M41 44L42 45L41 44z"/>
<path style="fill:#98a4b6; stroke:none;" d="M66 44L67 45L66 44M126 44L127 45L126 44z"/>
<path style="fill:#576c8c; stroke:none;" d="M143 44L144 45L143 44z"/>
<path style="fill:#2c4b75; stroke:none;" d="M167 44L168 45L167 44z"/>
<path style="fill:#576c8c; stroke:none;" d="M67 45L68 46L67 45z"/>
<path style="fill:#98a4b6; stroke:none;" d="M127 45L128 46L127 45z"/>
<path style="fill:#576c8c; stroke:none;" d="M142 45L143 46L142 45z"/>
<path style="fill:#2c4b75; stroke:none;" d="M68 46L69 47L68 46M128 46L129 47L128 46z"/>
<path style="fill:#98a4b6; stroke:none;" d="M129 46L130 47L129 46z"/>
<path style="fill:#576c8c; stroke:none;" d="M141 46L142 47L141 46M38 47L39 48L38 47z"/>
<path style="fill:#98a4b6; stroke:none;" d="M95.3333 47.6667L95.6667 48.3333L95.3333 47.6667M132 47L133 48L132 47M140 47L141 48L140 47M37 48L38 49L37 48M71 48L72 49L71 48M131 48L132 49L131 48M139 48L140 49L139 48z"/>
<path style="fill:#2c4b75; stroke:none;" d="M171 48L172 49L171 48z"/>
<path style="fill:#98a4b6; stroke:none;" d="M72 49L73 50L72 49z"/>
<path style="fill:#576c8c; stroke:none;" d="M119 49L120 50L119 49z"/>
<path style="fill:#98a4b6; stroke:none;" d="M130 49L131 50L130 49M172 49L173 50L172 49z"/>
<path style="fill:#576c8c; stroke:none;" d="M36 50L37 51L36 50z"/>
<path style="fill:#98a4b6; stroke:none;" d="M73 50L74 51L73 50M94 50L95 51L94 50M119 50L120 51L119 50M121.667 50.3333L122.333 50.6667L121.667 50.3333z"/>
<path style="fill:#576c8c; stroke:none;" d="M123 50L124 51L123 50z"/>
<path style="fill:#2c4b75; stroke:none;" d="M124 50L125 51L124 50M126 50L127 51L126 50z"/>
<path style="fill:#576c8c; stroke:none;" d="M127 50L128 51L127 50z"/>
<path style="fill:#98a4b6; stroke:none;" d="M128 50L129 51L128 50z"/>
<path style="fill:#2c4b75; stroke:none;" d="M138 50L139 51L138 50z"/>
<path style="fill:#98a4b6; stroke:none;" d="M74 51L75 52L74 51z"/>
<path style="fill:#2c4b75; stroke:none;" d="M119 51L120 52L119 51z"/>
<path style="fill:#576c8c; stroke:none;" d="M137 51L138 52L137 51M173 51L174 52L173 51M35 52L36 53L35 52z"/>
<path style="fill:#98a4b6; stroke:none;" d="M75 52L76 53L75 52M120 52L121 53L120 52z"/>
<path style="fill:#576c8c; stroke:none;" d="M136 52L137 53L136 52M76 53L77 54L76 53z"/>
<path style="fill:#98a4b6; stroke:none;" d="M121 53L122 54L121 53z"/>
<path style="fill:#576c8c; stroke:none;" d="M135 53L136 54L135 53M174 53L175 54L174 53z"/>
<path style="fill:#98a4b6; stroke:none;" d="M34 54L35 55L34 54M78 54L79 55L78 54M90 54L91 55L90 54M122 54L123 55L122 54z"/>
<path style="fill:#2c4b75; stroke:none;" d="M134 54L135 55L134 54M34 55L35 56L34 55z"/>
<path style="fill:#98a4b6; stroke:none;" d="M80.6667 55.3333L81.3333 55.6667L80.6667 55.3333M87 55L88 56L87 55z"/>
<path style="fill:#576c8c; stroke:none;" d="M88 55L89 56L88 55z"/>
<path style="fill:#98a4b6; stroke:none;" d="M124 55L125 56L124 55M131 55L132 56L131 55z"/>
<path style="fill:#576c8c; stroke:none;" d="M132 55L133 56L132 55z"/>
<path style="fill:#98a4b6; stroke:none;" d="M175 55L176 56L175 55z"/>
<path style="fill:#2c4b75; stroke:none;" d="M127.667 56.3333L128.333 56.6667L127.667 56.3333M175 56L176 57L175 56z"/>
<path style="fill:#98a4b6; stroke:none;" d="M33 57L34 58L33 57z"/>
<path style="fill:#576c8c; stroke:none;" d="M33 58L34 59L33 58z"/>
<path style="fill:#98a4b6; stroke:none;" d="M176 58L177 59L176 58z"/>
<path style="fill:#576c8c; stroke:none;" d="M176 59L177 60L176 59z"/>
<path style="fill:#98a4b6; stroke:none;" d="M32 61L33 62L32 61z"/>
<path style="fill:#576c8c; stroke:none;" d="M32 62L33 63L32 62z"/>
<path style="fill:#98a4b6; stroke:none;" d="M177 62L178 63L177 62z"/>
<path style="fill:#2c4b75; stroke:none;" d="M32 63L33 64L32 63z"/>
<path style="fill:#576c8c; stroke:none;" d="M177 63L178 64L177 63z"/>
<path style="fill:#98a4b6; stroke:none;" d="M50 64L50 65L158 65L125 64L50 64z"/>
<path style="fill:#fefefe; stroke:none;" d="M158 64L122 65L50 65L50 122C50 138.153 49.8906 154.296 59.7461 168C81.0746 197.656 128.616 197.414 150.073 168C164.897 147.678 159 115.75 159 92C159 83.7293 161.206 71.6394 158 64z"/>
<path style="fill:#98a4b6; stroke:none;" d="M159 64L159 143L160 143L160 89L159 64z"/>
<path style="fill:#2c4b75; stroke:none;" d="M177 64L178 65L177 64z"/>
<path style="fill:#98a4b6; stroke:none;" d="M31.3333 66.6667L31.6667 67.3333L31.3333 66.6667M178.333 67.6667L178.667 68.3333L178.333 67.6667z"/>
<path style="fill:#576c8c; stroke:none;" d="M31 68L32 69L31 68z"/>
<path style="fill:#2c4b75; stroke:none;" d="M31 69L32 70L31 69z"/>
<path style="fill:#576c8c; stroke:none;" d="M178 69L179 70L178 69z"/>
<path style="fill:#98a4b6; stroke:none;" d="M30.3333 72.6667L30.6667 73.3333L30.3333 72.6667M179 73L180 74L179 73z"/>
<path style="fill:#2c4b75; stroke:none;" d="M30 74L31 75L30 74z"/>
<path style="fill:#576c8c; stroke:none;" d="M179 74L180 75L179 74z"/>
<path style="fill:#98a4b6; stroke:none;" d="M29 77L30 78L29 77M180.333 77.6667L180.667 78.3333L180.333 77.6667z"/>
<path style="fill:#576c8c; stroke:none;" d="M29 78L30 79L29 78z"/>
<path style="fill:#2c4b75; stroke:none;" d="M180 79L181 80L180 79z"/>
<path style="fill:#98a4b6; stroke:none;" d="M65 80L65 139L66 139L66 81L144 81L144 139C148.807 127.544 145 107.468 145 95C145 91.5242 146.478 83.4684 143.397 81.0278C139.275 77.7631 127.088 80 122 80L65 80M28 81L29 82L28 81z"/>
<path style="fill:#013166; stroke:none;" d="M66 81C66 104.14 57.4947 146.522 79 162L90.3511 146.985L88.74 120L93 94C104.584 104.572 98.5745 86.4393 108 84L110 85L111.067 97L120.476 110L119.434 147.996L130 162C137.435 158.459 141.667 149.801 143.331 142C147.356 123.132 144 100.291 144 81L66 81z"/>
<path style="fill:#98a4b6; stroke:none;" d="M181.333 81.6667L181.667 82.3333L181.333 81.6667z"/>
<path style="fill:#576c8c; stroke:none;" d="M28 82L29 83L28 82z"/>
<path style="fill:#2c4b75; stroke:none;" d="M181 83L182 84L181 83z"/>
<path style="fill:#98a4b6; stroke:none;" d="M104 84L105 85L104 84z"/>
<path style="fill:#2c4b75; stroke:none;" d="M106 84L107 85L106 84z"/>
<path style="fill:#576c8c; stroke:none;" d="M107 84L108 85L107 84z"/>
<path style="fill:#98a4b6; stroke:none;" d="M27 85L28 86L27 85z"/>
<path style="fill:#576c8c; stroke:none;" d="M103 85L104 86L103 85z"/>
<path style="fill:#98a4b6; stroke:none;" d="M105 85L106 86L105 85M109 85L110 86L109 85M182 85L183 86L182 85z"/>
<path style="fill:#2c4b75; stroke:none;" d="M27 86L28 87L27 86z"/>
<path style="fill:#576c8c; stroke:none;" d="M182 86L183 87L182 86z"/>
<path style="fill:#2c4b75; stroke:none;" d="M110 87L111 88L110 87z"/>
<path style="fill:#98a4b6; stroke:none;" d="M26.3333 88.6667L26.6667 89.3333L26.3333 88.6667M110 88L111 89L110 88z"/>
<path style="fill:#2c4b75; stroke:none;" d="M101.333 89.6667L101.667 90.3333L101.333 89.6667z"/>
<path style="fill:#98a4b6; stroke:none;" d="M183 89L184 90L183 89z"/>
<path style="fill:#576c8c; stroke:none;" d="M183 90L184 91L183 90z"/>
<path style="fill:#2c4b75; stroke:none;" d="M36.6667 91.3333L37.3333 91.6667L36.6667 91.3333z"/>
<path style="fill:#98a4b6; stroke:none;" d="M110 91L111 92L110 91z"/>
<path style="fill:#2c4b75; stroke:none;" d="M172 91L173 92L172 91z"/>
<path style="fill:#98a4b6; stroke:none;" d="M25 92L26 93L25 92M36 92L35 94L37 94L36 92z"/>
<path style="fill:#576c8c; stroke:none;" d="M102 92L103 93L102 92M110 92L111 93L110 92z"/>
<path style="fill:#98a4b6; stroke:none;" d="M173 92L173 95L174 95L173 92M184.333 92.6667L184.667 93.3333L184.333 92.6667z"/>
<path style="fill:#576c8c; stroke:none;" d="M25 93L26 94L25 93z"/>
<path style="fill:#fefefe; stroke:none;" d="M173 93L174 94L173 93z"/>
<path style="fill:#98a4b6; stroke:none;" d="M34 94L35 95L34 94z"/>
<path style="fill:#576c8c; stroke:none;" d="M36 94L37 95L36 94z"/>
<path style="fill:#fefefe; stroke:none;" d="M93 94L94 95L93 94z"/>
<path style="fill:#2c4b75; stroke:none;" d="M94 94L95 95L94 94z"/>
<path style="fill:#98a4b6; stroke:none;" d="M109.333 94.6667L109.667 95.3333L109.333 94.6667M175 94L176 95L175 94M24 95L25 96L24 95M33 95L34 96L33 95M93.3333 95.6667L93.6667 96.3333L93.3333 95.6667z"/>
<path style="fill:#576c8c; stroke:none;" d="M102 95L103 96L102 95M173 95L174 96L173 95M176 95L177 96L176 95M24 96L25 97L24 96z"/>
<path style="fill:#98a4b6; stroke:none;" d="M32 96L33 97L32 96z"/>
<path style="fill:#576c8c; stroke:none;" d="M95 96L96 97L95 96z"/>
<path style="fill:#98a4b6; stroke:none;" d="M102 96L103 97L102 96z"/>
<path style="fill:#576c8c; stroke:none;" d="M177 96L178 97L177 96z"/>
<path style="fill:#98a4b6; stroke:none;" d="M185 96L186 97L185 96M31 97L32 98L31 97M35 97L36 98L35 97z"/>
<path style="fill:#576c8c; stroke:none;" d="M93 97L94 98L93 97z"/>
<path style="fill:#98a4b6; stroke:none;" d="M95 97L96 98L95 97z"/>
<path style="fill:#576c8c; stroke:none;" d="M101 97L102 98L101 97z"/>
<path style="fill:#98a4b6; stroke:none;" d="M110 97L111 98L110 97M174.333 97.6667L174.667 98.3333L174.333 97.6667z"/>
<path style="fill:#576c8c; stroke:none;" d="M178 97L179 98L178 97M185 97L186 98L185 97z"/>
<path style="fill:#98a4b6; stroke:none;" d="M30 98L31 99L30 98z"/>
<path style="fill:#576c8c; stroke:none;" d="M35 98L36 99L35 98z"/>
<path style="fill:#98a4b6; stroke:none;" d="M93 98L94 99L93 98z"/>
<path style="fill:#576c8c; stroke:none;" d="M96 98L97 99L96 98z"/>
<path style="fill:#98a4b6; stroke:none;" d="M100 98L101 99L100 98M111 98L112 99L111 98z"/>
<path style="fill:#576c8c; stroke:none;" d="M179 98L180 99L179 98z"/>
<path style="fill:#98a4b6; stroke:none;" d="M23 99L24 100L23 99M29 99L30 100L29 99M97 99L98 100L97 99z"/>
<path style="fill:#576c8c; stroke:none;" d="M98 99L99 100L98 99z"/>
<path style="fill:#98a4b6; stroke:none;" d="M112 99L113 100L112 99z"/>
<path style="fill:#2c4b75; stroke:none;" d="M174 99L175 100L174 99z"/>
<path style="fill:#576c8c; stroke:none;" d="M180 99L181 100L180 99z"/>
<path style="fill:#98a4b6; stroke:none;" d="M186 99L187 100L186 99z"/>
<path style="fill:#2c4b75; stroke:none;" d="M23 100L24 101L23 100z"/>
<path style="fill:#98a4b6; stroke:none;" d="M28 100L29 101L28 100M113 100L114 101L113 100M181 100L182 101L181 100z"/>
<path style="fill:#576c8c; stroke:none;" d="M186 100L187 101L186 100z"/>
<path style="fill:#98a4b6; stroke:none;" d="M27 101L28 102L27 101M34 101L35 102L34 101M175 101L176 102L175 101M182 101L183 102L182 101M22 102L23 103L22 102M26 102L27 103L26 102z"/>
<path style="fill:#2c4b75; stroke:none;" d="M34 102L35 103L34 102z"/>
<path style="fill:#576c8c; stroke:none;" d="M92 102L93 103L92 102M175 102L176 103L175 102z"/>
<path style="fill:#98a4b6; stroke:none;" d="M183 102L184 103L183 102M187 102L188 103L187 102z"/>
<path style="fill:#2c4b75; stroke:none;" d="M22 103L23 104L22 103z"/>
<path style="fill:#98a4b6; stroke:none;" d="M25 103L26 104L25 103z"/>
<path style="fill:#2c4b75; stroke:none;" d="M92 103L93 104L92 103z"/>
<path style="fill:#98a4b6; stroke:none;" d="M184 103L185 104L184 103z"/>
<path style="fill:#576c8c; stroke:none;" d="M187 103L188 104L187 103z"/>
<path style="fill:#98a4b6; stroke:none;" d="M33 104L34 105L33 104M93.3333 104.667L93.6667 105.333L93.3333 104.667M185 104L186 105L185 104M21 105L22 106L21 105z"/>
<path style="fill:#576c8c; stroke:none;" d="M33 105L34 106L33 105z"/>
<path style="fill:#98a4b6; stroke:none;" d="M118 105L119 106L118 105M176 105L177 106L176 105M186 105L187 106L186 105M188 105L189 106L188 105z"/>
<path style="fill:#576c8c; stroke:none;" d="M119 106L120 107L119 106z"/>
<path style="fill:#2c4b75; stroke:none;" d="M176 106L177 107L176 106M188 106L189 107L188 106z"/>
<path style="fill:#98a4b6; stroke:none;" d="M20 107L21 108L20 107M32 108L33 109L32 108M92 108L93 109L92 108z"/>
<path style="fill:#2c4b75; stroke:none;" d="M120 108L121 109L120 108z"/>
<path style="fill:#98a4b6; stroke:none;" d="M177 108L178 109L177 108z"/>
<path style="fill:#2c4b75; stroke:none;" d="M32 109L33 110L32 109z"/>
<path style="fill:#576c8c; stroke:none;" d="M120 109L121 110L120 109M177 109L178 110L177 109z"/>
<path style="fill:#98a4b6; stroke:none;" d="M91 110L92 111L91 110M120.333 110.667L120.667 111.333L120.333 110.667M31 111L32 112L31 111M178.333 111.667L178.667 112.333L178.333 111.667z"/>
<path style="fill:#576c8c; stroke:none;" d="M31 112L32 113L31 112z"/>
<path style="fill:#98a4b6; stroke:none;" d="M90 112L91 113L90 112z"/>
<path style="fill:#576c8c; stroke:none;" d="M120.333 112.667L120.667 113.333L120.333 112.667z"/>
<path style="fill:#98a4b6; stroke:none;" d="M30 114L31 115L30 114z"/>
<path style="fill:#576c8c; stroke:none;" d="M89 114L90 115L89 114M30 115L31 116L30 115z"/>
<path style="fill:#98a4b6; stroke:none;" d="M89 115L90 116L89 115M179 115L180 116L179 115M119 116L120 117L119 116M29 117L30 118L29 117z"/>
<path style="fill:#576c8c; stroke:none;" d="M119 117L120 118L119 117z"/>
<path style="fill:#98a4b6; stroke:none;" d="M180 117L181 118L180 117z"/>
<path style="fill:#2c4b75; stroke:none;" d="M29 118L30 119L29 118z"/>
<path style="fill:#576c8c; stroke:none;" d="M180 118L181 119L180 118z"/>
<path style="fill:#2c4b75; stroke:none;" d="M88 119L89 120L88 119z"/>
<path style="fill:#576c8c; stroke:none;" d="M28 120L29 121L28 120M88 120L89 121L88 120z"/>
<path style="fill:#98a4b6; stroke:none;" d="M118 120L118 124L119 124L118 120M181 120L182 121L181 120z"/>
<path style="fill:#2c4b75; stroke:none;" d="M88 121L89 122L88 121z"/>
<path style="fill:#98a4b6; stroke:none;" d="M27 122L28 123L27 122M182 122L183 123L182 122M26 124L27 125L26 124M89 124L90 125L89 124M183 124L184 125L183 124z"/>
<path style="fill:#576c8c; stroke:none;" d="M89 125L90 126L89 125z"/>
<path style="fill:#98a4b6; stroke:none;" d="M25 126L26 127L25 126M184 126L185 127L184 126M90.3333 127.667L90.6667 128.333L90.3333 127.667z"/>
<path style="fill:#576c8c; stroke:none;" d="M119 127L120 128L119 127M24 128L25 129L24 128M32 128L32 131L33 131L32 128z"/>
<path style="fill:#2c4b75; stroke:none;" d="M33 128L34 129L33 128z"/>
<path style="fill:#98a4b6; stroke:none;" d="M119 128L120 129L119 128z"/>
<path style="fill:#576c8c; stroke:none;" d="M176 128L177 129L176 128z"/>
<path style="fill:#2c4b75; stroke:none;" d="M177 128L179 130L177 128z"/>
<path style="fill:#98a4b6; stroke:none;" d="M185 128L186 129L185 128M23 129L24 130L23 129z"/>
<path style="fill:#fefefe; stroke:none;" d="M32 129L33 130L32 129M177 129L178 130L177 129z"/>
<path style="fill:#98a4b6; stroke:none;" d="M30 130L31 131L30 130M177 130L178 131L177 130M179 130L180 131L179 130z"/>
<path style="fill:#576c8c; stroke:none;" d="M186 130L187 131L186 130z"/>
<path style="fill:#98a4b6; stroke:none;" d="M22 131L23 132L22 131z"/>
<path style="fill:#2c4b75; stroke:none;" d="M28 131L29 132L28 131z"/>
<path style="fill:#98a4b6; stroke:none;" d="M91.3333 131.667L91.6667 132.333L91.3333 131.667z"/>
<path style="fill:#576c8c; stroke:none;" d="M120 131L121 132L120 131z"/>
<path style="fill:#98a4b6; stroke:none;" d="M180 131L181 132L180 131M187 131L188 132L187 131M27 132L28 133L27 132M31 132L32 133L31 132M120 132L120 136L121 136L120 132M178 132L179 133L178 132z"/>
<path style="fill:#576c8c; stroke:none;" d="M182 132L183 133L182 132M21 133L22 134L21 133M25 133L26 134L25 133M91 133L92 134L91 133z"/>
<path style="fill:#2c4b75; stroke:none;" d="M178 133L179 134L178 133M184 133L185 134L184 133z"/>
<path style="fill:#576c8c; stroke:none;" d="M188 133L189 134L188 133z"/>
<path style="fill:#98a4b6; stroke:none;" d="M20 134L21 135L20 134M24 134L25 135L24 134M30 134L31 135L30 134M179 134L180 135L179 134M185 134L186 135L185 134M189 134L190 135L189 134M22 135L23 136L22 135z"/>
<path style="fill:#576c8c; stroke:none;" d="M179 135L180 136L179 135M187 135L188 136L187 135z"/>
<path style="fill:#2c4b75; stroke:none;" d="M19 136L20 137L19 136z"/>
<path style="fill:#576c8c; stroke:none;" d="M20 136L21 137L20 136z"/>
<path style="fill:#98a4b6; stroke:none;" d="M29 136L30 137L29 136z"/>
<path style="fill:#576c8c; stroke:none;" d="M120 136L121 137L120 136M189.667 136.333L190.333 136.667L189.667 136.333z"/>
<path style="fill:#98a4b6; stroke:none;" d="M18 137L19 138L18 137z"/>
<path style="fill:#2c4b75; stroke:none;" d="M29 137L30 138L29 137z"/>
<path style="fill:#576c8c; stroke:none;" d="M180 137L181 138L180 137z"/>
<path style="fill:#98a4b6; stroke:none;" d="M190 137L191 138L190 137M28 138L29 139L28 138M119 138L120 139L119 138z"/>
<path style="fill:#2c4b75; stroke:none;" d="M28 139L29 140L28 139M119 139L120 140L119 139z"/>
<path style="fill:#576c8c; stroke:none;" d="M181 139L182 140L181 139z"/>
<path style="fill:#98a4b6; stroke:none;" d="M27 140L28 141L27 140z"/>
<path style="fill:#2c4b75; stroke:none;" d="M91 140L92 141L91 140z"/>
<path style="fill:#576c8c; stroke:none;" d="M27 141L28 142L27 141z"/>
<path style="fill:#98a4b6; stroke:none;" d="M50 141L50 145L51 145L50 141z"/>
<path style="fill:#576c8c; stroke:none;" d="M91.3333 141.667L91.6667 142.333L91.3333 141.667z"/>
<path style="fill:#98a4b6; stroke:none;" d="M118 141L118 144L119 144L118 141z"/>
<path style="fill:#2c4b75; stroke:none;" d="M143 141L144 142L143 141z"/>
<path style="fill:#576c8c; stroke:none;" d="M182 141L183 142L182 141M66 142L67 143L66 142z"/>
<path style="fill:#98a4b6; stroke:none;" d="M143.333 142.667L143.667 143.333L143.333 142.667z"/>
<path style="fill:#576c8c; stroke:none;" d="M26 143L27 144L26 143z"/>
<path style="fill:#98a4b6; stroke:none;" d="M66 143L67 144L66 143M91.3333 143.667L91.6667 144.333L91.3333 143.667z"/>
<path style="fill:#576c8c; stroke:none;" d="M159.333 143.667L159.667 144.333L159.333 143.667z"/>
<path style="fill:#98a4b6; stroke:none;" d="M183 143L184 144L183 143z"/>
<path style="fill:#576c8c; stroke:none;" d="M118 144L118 147L119 147L118 144M25 145L26 146L25 145M50 145L51 146L50 145z"/>
<path style="fill:#2c4b75; stroke:none;" d="M67 145L68 146L67 145z"/>
<path style="fill:#576c8c; stroke:none;" d="M142 145L143 146L142 145z"/>
<path style="fill:#98a4b6; stroke:none;" d="M184 145L185 146L184 145z"/>
<path style="fill:#2c4b75; stroke:none;" d="M50 146L51 147L50 146z"/>
<path style="fill:#98a4b6; stroke:none;" d="M67 146L68 147L67 146M142 146L143 147L142 146z"/>
<path style="fill:#2c4b75; stroke:none;" d="M24 147L25 148L24 147z"/>
<path style="fill:#98a4b6; stroke:none;" d="M90 147L91 148L90 147M118 147L119 148L118 147z"/>
<path style="fill:#576c8c; stroke:none;" d="M185 147L186 148L185 147z"/>
<path style="fill:#98a4b6; stroke:none;" d="M23 148L24 149L23 148z"/>
<path style="fill:#576c8c; stroke:none;" d="M68 148L69 149L68 148z"/>
<path style="fill:#98a4b6; stroke:none;" d="M141 148L142 149L141 148M158.333 148.667L158.667 149.333L158.333 148.667z"/>
<path style="fill:#2c4b75; stroke:none;" d="M23 149L24 150L23 149z"/>
<path style="fill:#98a4b6; stroke:none;" d="M51 149L52 150L51 149M68 149L69 150L68 149z"/>
<path style="fill:#576c8c; stroke:none;" d="M89 149L90 150L89 149z"/>
<path style="fill:#2c4b75; stroke:none;" d="M119 149L120 150L119 149z"/>
<path style="fill:#576c8c; stroke:none;" d="M186 149L187 150L186 149z"/>
<path style="fill:#98a4b6; stroke:none;" d="M22 150L23 151L22 150z"/>
<path style="fill:#576c8c; stroke:none;" d="M35 150L36 151L35 150M51 150L52 151L51 150z"/>
<path style="fill:#2c4b75; stroke:none;" d="M69 150L70 151L69 150z"/>
<path style="fill:#576c8c; stroke:none;" d="M140 150L141 151L140 150z"/>
<path style="fill:#2c4b75; stroke:none;" d="M158 150L159 151L158 150z"/>
<path style="fill:#576c8c; stroke:none;" d="M174 150L175 151L174 150z"/>
<path style="fill:#2c4b75; stroke:none;" d="M34 151L35 152L34 151z"/>
<path style="fill:#98a4b6; stroke:none;" d="M35 151L36 152L35 151M69 151L70 152L69 151M120 151L121 152L120 151M174 151L177 154L174 151z"/>
<path style="fill:#576c8c; stroke:none;" d="M187 151L188 152L187 151z"/>
<path style="fill:#98a4b6; stroke:none;" d="M21 152L22 153L21 152z"/>
<path style="fill:#fefefe; stroke:none;" d="M34 152L35 153L34 152z"/>
<path style="fill:#576c8c; stroke:none;" d="M47 152L48 153L47 152M70 152L71 153L70 152z"/>
<path style="fill:#2c4b75; stroke:none;" d="M86 152L87 153L86 152z"/>
<path style="fill:#98a4b6; stroke:none;" d="M121 152L122 153L121 152M139 152L140 153L139 152M157 152L158 153L157 152z"/>
<path style="fill:#2c4b75; stroke:none;" d="M161 152L162 153L161 152z"/>
<path style="fill:#576c8c; stroke:none;" d="M162 152L163 153L162 152z"/>
<path style="fill:#2c4b75; stroke:none;" d="M174 152L175 153L174 152z"/>
<path style="fill:#98a4b6; stroke:none;" d="M188 152L189 153L188 152M33.6667 153.333L34.3333 153.667L33.6667 153.333z"/>
<path style="fill:#576c8c; stroke:none;" d="M48 153L49 154L48 153z"/>
<path style="fill:#98a4b6; stroke:none;" d="M52 153L53 154L52 153z"/>
<path style="fill:#576c8c; stroke:none;" d="M85 153L86 154L85 153z"/>
<path style="fill:#98a4b6; stroke:none;" d="M122 153L123 154L122 153z"/>
<path style="fill:#576c8c; stroke:none;" d="M157 153L158 154L157 153M161 153L162 154L161 153z"/>
<path style="fill:#fefefe; stroke:none;" d="M175 153L176 154L175 153z"/>
<path style="fill:#576c8c; stroke:none;" d="M20 154L21 155L20 154M32 154L33 155L32 154z"/>
<path style="fill:#fefefe; stroke:none;" d="M33 154L34 155L33 154z"/>
<path style="fill:#98a4b6; stroke:none;" d="M48 154L49 155L48 154z"/>
<path style="fill:#576c8c; stroke:none;" d="M52 154L53 155L52 154z"/>
<path style="fill:#98a4b6; stroke:none;" d="M71 154L72 155L71 154z"/>
<path style="fill:#576c8c; stroke:none;" d="M84 154L85 155L84 154M124 154L125 155L124 154z"/>
<path style="fill:#98a4b6; stroke:none;" d="M161 154L162 155L161 154M163 154L164 155L163 154z"/>
<path style="fill:#576c8c; stroke:none;" d="M175 154L176 155L175 154z"/>
<path style="fill:#2c4b75; stroke:none;" d="M177 154L178 155L177 154z"/>
<path style="fill:#98a4b6; stroke:none;" d="M189 154L190 155L189 154z"/>
<path style="fill:#2c4b75; stroke:none;" d="M31 155L32 156L31 155z"/>
<path style="fill:#98a4b6; stroke:none;" d="M33 155L34 156L33 155M45 155L46 156L45 155z"/>
<path style="fill:#2c4b75; stroke:none;" d="M72 155L73 156L72 155z"/>
<path style="fill:#576c8c; stroke:none;" d="M83 155L84 156L83 155z"/>
<path style="fill:#98a4b6; stroke:none;" d="M126 155L127 156L126 155M137 155L138 156L137 155M156 155L157 156L156 155z"/>
<path style="fill:#576c8c; stroke:none;" d="M164 155L165 156L164 155z"/>
<path style="fill:#2c4b75; stroke:none;" d="M19 156L20 157L19 156M33 156L34 157L33 156z"/>
<path style="fill:#576c8c; stroke:none;" d="M44 156L45 157L44 156z"/>
<path style="fill:#2c4b75; stroke:none;" d="M49 156L50 157L49 156z"/>
<path style="fill:#98a4b6; stroke:none;" d="M53 156L54 157L53 156z"/>
<path style="fill:#576c8c; stroke:none;" d="M82 156L83 157L82 156z"/>
<path style="fill:#98a4b6; stroke:none;" d="M127 156L128 157L127 156z"/>
<path style="fill:#576c8c; stroke:none;" d="M136 156L137 157L136 156M156 156L157 157L156 156M160 156L161 157L160 156M176 156L177 157L176 156M190 156L191 157L190 156z"/>
<path style="fill:#98a4b6; stroke:none;" d="M18 157L19 158L18 157M49 157L50 158L49 157M73 157L74 158L73 157M81 157L82 158L81 157z"/>
<path style="fill:#576c8c; stroke:none;" d="M128 157L129 158L128 157z"/>
<path style="fill:#98a4b6; stroke:none;" d="M160 157L161 158L160 157M179 157L180 158L179 157M29 158L30 159L29 158z"/>
<path style="fill:#576c8c; stroke:none;" d="M32 158L33 159L32 158z"/>
<path style="fill:#98a4b6; stroke:none;" d="M54 158L55 159L54 158M74 158L75 159L74 158M128 158L129 159L128 158M155 158L156 159L155 158M166 158L167 159L166 158M177 158L178 159L177 158M180 158L181 159L180 158z"/>
<path style="fill:#2c4b75; stroke:none;" d="M191 158L192 159L191 158z"/>
<path style="fill:#576c8c; stroke:none;" d="M17 159L18 160L17 159z"/>
<path style="fill:#98a4b6; stroke:none;" d="M28 159L29 160L28 159M42 159L43 160L42 159z"/>
<path style="fill:#2c4b75; stroke:none;" d="M50 159L51 160L50 159z"/>
<path style="fill:#576c8c; stroke:none;" d="M54 159L55 160L54 159z"/>
<path style="fill:#98a4b6; stroke:none;" d="M75 159L76 160L75 159z"/>
<path style="fill:#2c4b75; stroke:none;" d="M79 159L80 160L79 159z"/>
<path style="fill:#576c8c; stroke:none;" d="M159 159L160 160L159 159z"/>
<path style="fill:#98a4b6; stroke:none;" d="M167 159L168 160L167 159z"/>
<path style="fill:#576c8c; stroke:none;" d="M181 159L182 160L181 159z"/>
<path style="fill:#98a4b6; stroke:none;" d="M192 159L193 160L192 159M27 160L28 161L27 160z"/>
<path style="fill:#576c8c; stroke:none;" d="M31 160L32 161L31 160z"/>
<path style="fill:#98a4b6; stroke:none;" d="M41 160L42 161L41 160z"/>
<path style="fill:#576c8c; stroke:none;" d="M50 160L50 163L51 163L50 160z"/>
<path style="fill:#98a4b6; stroke:none;" d="M76 160L77 161L76 160M154 160L155 161L154 160M159 160L159 163L160 163L159 160M168 160L169 161L168 160M178 160L179 161L178 160z"/>
<path style="fill:#576c8c; stroke:none;" d="M182 160L183 161L182 160z"/>
<path style="fill:#98a4b6; stroke:none;" d="M26 161L27 162L26 161M40 161L41 162L40 161z"/>
<path style="fill:#576c8c; stroke:none;" d="M55 161L56 162L55 161z"/>
<path style="fill:#98a4b6; stroke:none;" d="M77 161L78 162L77 161M79 161L80 162L79 161M169 161L170 162L169 161z"/>
<path style="fill:#576c8c; stroke:none;" d="M183 161L184 162L183 161M193 161L194 162L193 161z"/>
<path style="fill:#98a4b6; stroke:none;" d="M15 162L16 163L15 162M25 162L26 163L25 162z"/>
<path style="fill:#576c8c; stroke:none;" d="M30 162L31 163L30 162z"/>
<path style="fill:#98a4b6; stroke:none;" d="M39 162L40 163L39 162M153 162L154 163L153 162M170 162L171 163L170 162M179 162L180 163L179 162z"/>
<path style="fill:#576c8c; stroke:none;" d="M184 162L185 163L184 162z"/>
<path style="fill:#98a4b6; stroke:none;" d="M194 162L195 163L194 162M24 163L25 164L24 163M38 163L39 164L38 163z"/>
<path style="fill:#2c4b75; stroke:none;" d="M56 163L57 164L56 163z"/>
<path style="fill:#576c8c; stroke:none;" d="M159 163L160 164L159 163z"/>
<path style="fill:#98a4b6; stroke:none;" d="M171 163L172 164L171 163M185 163L186 164L185 163M23 164L24 165L23 164z"/>
<path style="fill:#576c8c; stroke:none;" d="M29 164L30 165L29 164z"/>
<path style="fill:#98a4b6; stroke:none;" d="M37 164L38 165L37 164M57 164L58 165L57 164z"/>
<path style="fill:#576c8c; stroke:none;" d="M152 164L153 165L152 164z"/>
<path style="fill:#98a4b6; stroke:none;" d="M172 164L173 165L172 164M180 164L181 165L180 164M186 164L187 165L186 164z"/>
<path style="fill:#576c8c; stroke:none;" d="M195 164L196 165L195 164M13 165L14 166L13 165z"/>
<path style="fill:#98a4b6; stroke:none;" d="M49 165L50 166L49 165M173 165L174 166L173 165M187 165L188 166L187 165M196 165L197 166L196 165M12 166L13 167L12 166z"/>
<path style="fill:#2c4b75; stroke:none;" d="M20 166L21 167L20 166z"/>
<path style="fill:#576c8c; stroke:none;" d="M28 166L29 167L28 166z"/>
<path style="fill:#2c4b75; stroke:none;" d="M34 166L35 167L34 166z"/>
<path style="fill:#576c8c; stroke:none;" d="M49 166L50 167L49 166M58 166L59 167L58 166z"/>
<path style="fill:#98a4b6; stroke:none;" d="M160 166L161 167L160 166M181 166L182 167L181 166M19 167L20 168L19 167z"/>
<path style="fill:#576c8c; stroke:none;" d="M33 167L34 168L33 167z"/>
<path style="fill:#98a4b6; stroke:none;" d="M59 167L60 168L59 167z"/>
<path style="fill:#576c8c; stroke:none;" d="M150 167L151 168L150 167M176 167L177 168L176 167M190 167L191 168L190 167z"/>
<path style="fill:#2c4b75; stroke:none;" d="M17 168L18 169L17 168z"/>
<path style="fill:#576c8c; stroke:none;" d="M27 168L28 169L27 168z"/>
<path style="fill:#98a4b6; stroke:none;" d="M32 168L33 169L32 168M44.6667 168.333L45.3333 168.667L44.6667 168.333z"/>
<path style="fill:#2c4b75; stroke:none;" d="M48 168L49 169L48 168z"/>
<path style="fill:#98a4b6; stroke:none;" d="M149 168L150 169L149 168z"/>
<path style="fill:#576c8c; stroke:none;" d="M161 168L162 169L161 168z"/>
<path style="fill:#98a4b6; stroke:none;" d="M164.667 168.333L165.333 168.667L164.667 168.333M177 168L178 169L177 168M182 168L183 169L182 168M191 168L192 169L191 168z"/>
<path style="fill:#576c8c; stroke:none;" d="M198 168L199 169L198 168M10 169L11 170L10 169z"/>
<path style="fill:#98a4b6; stroke:none;" d="M16 169L17 170L16 169z"/>
<path style="fill:#2c4b75; stroke:none;" d="M30 169L31 170L30 169M47 169L48 170L47 169M60 169L61 170L60 169M162 169L163 170L162 169z"/>
<path style="fill:#98a4b6; stroke:none;" d="M193 169L194 170L193 169M199 169L200 170L199 169z"/>
<path style="fill:#576c8c; stroke:none;" d="M9 170L10 171L9 170z"/>
<path style="fill:#98a4b6; stroke:none;" d="M14 170L15 171L14 170z"/>
<path style="fill:#2c4b75; stroke:none;" d="M26 170L27 171L26 170z"/>
<path style="fill:#98a4b6; stroke:none;" d="M29 170L30 171L29 170M42 170L42 173L43 173L42 170z"/>
<path style="fill:#576c8c; stroke:none;" d="M61 170L62 171L61 170z"/>
<path style="fill:#2c4b75; stroke:none;" d="M148 170L149 171L148 170z"/>
<path style="fill:#98a4b6; stroke:none;" d="M167.333 170.667L167.667 171.333L167.333 170.667M180 170L181 171L180 170z"/>
<path style="fill:#576c8c; stroke:none;" d="M183 170L184 171L183 170M195 170L196 171L195 170z"/>
<path style="fill:#98a4b6; stroke:none;" d="M200 170L201 171L200 170M8 171L9 172L8 171M12 171L13 172L12 171M25 171L26 172L25 171z"/>
<path style="fill:#576c8c; stroke:none;" d="M27 171L28 172L27 171z"/>
<path style="fill:#98a4b6; stroke:none;" d="M62 171L63 172L62 171z"/>
<path style="fill:#576c8c; stroke:none;" d="M147 171L148 172L147 171z"/>
<path style="fill:#2c4b75; stroke:none;" d="M182 171L183 172L182 171z"/>
<path style="fill:#98a4b6; stroke:none;" d="M184 171L185 172L184 171M197 171L198 172L197 171M201 171L202 172L201 171M7 172L8 173L7 172M9 172L10 173L9 172M26 172L27 173L26 172M63 172L64 173L63 172z"/>
<path style="fill:#576c8c; stroke:none;" d="M146 172L147 173L146 172z"/>
<path style="fill:#98a4b6; stroke:none;" d="M183 172L184 173L183 172M199.667 172.333L200.333 172.667L199.667 172.333M202 172L203 173L202 172M24 173L25 174L24 173M145 173L146 174L145 173z"/>
<path style="fill:#2c4b75; stroke:none;" d="M166 173L167 174L166 173z"/>
<path style="fill:#98a4b6; stroke:none;" d="M185 173L186 174L185 173M43 174L44 175L43 174M144 174L145 175L144 174M166 174L167 175L166 174z"/>
<path style="fill:#576c8c; stroke:none;" d="M44 175L45 176L44 175z"/>
<path style="fill:#98a4b6; stroke:none;" d="M143 175L144 176L143 175z"/>
<path style="fill:#576c8c; stroke:none;" d="M165 175L166 176L165 175z"/>
<path style="fill:#98a4b6; stroke:none;" d="M67 176L68 177L67 176z"/>
<path style="fill:#576c8c; stroke:none;" d="M142 176L143 177L142 176z"/>
<path style="fill:#2c4b75; stroke:none;" d="M164 176L165 177L164 176z"/>
<path style="fill:#98a4b6; stroke:none;" d="M68 177L69 178L68 177z"/>
<path style="fill:#576c8c; stroke:none;" d="M141 177L142 178L141 177z"/>
<path style="fill:#98a4b6; stroke:none;" d="M46 178L47 179L46 178z"/>
<path style="fill:#576c8c; stroke:none;" d="M69 178L70 179L69 178z"/>
<path style="fill:#2c4b75; stroke:none;" d="M140 178L141 179L140 178z"/>
<path style="fill:#98a4b6; stroke:none;" d="M47 179L48 180L47 179z"/>
<path style="fill:#2c4b75; stroke:none;" d="M70 179L71 180L70 179z"/>
<path style="fill:#98a4b6; stroke:none;" d="M138 179L139 180L138 179M162 179L163 180L162 179M48 180L49 181L48 180M72 180L73 181L72 180z"/>
<path style="fill:#576c8c; stroke:none;" d="M137 180L138 181L137 180z"/>
<path style="fill:#98a4b6; stroke:none;" d="M161 180L162 181L161 180M49 181L50 182L49 181z"/>
<path style="fill:#576c8c; stroke:none;" d="M73 181L74 182L73 181z"/>
<path style="fill:#98a4b6; stroke:none;" d="M135 181L136 182L135 181M160 181L161 182L160 181M50 182L51 183L50 182M75 182L76 183L75 182z"/>
<path style="fill:#576c8c; stroke:none;" d="M134 182L135 183L134 182z"/>
<path style="fill:#98a4b6; stroke:none;" d="M159 182L160 183L159 182M51 183L52 184L51 183z"/>
<path style="fill:#2c4b75; stroke:none;" d="M76 183L77 184L76 183z"/>
<path style="fill:#98a4b6; stroke:none;" d="M77 183L78 184L77 183M132 183L133 184L132 183M158 183L159 184L158 183M52 184L53 185L52 184z"/>
<path style="fill:#576c8c; stroke:none;" d="M78 184L79 185L78 184z"/>
<path style="fill:#98a4b6; stroke:none;" d="M130 184L131 185L130 184M157 184L158 185L157 184z"/>
<path style="fill:#576c8c; stroke:none;" d="M80 185L81 186L80 185z"/>
<path style="fill:#98a4b6; stroke:none;" d="M81 185L82 186L81 185M128 185L129 186L128 185z"/>
<path style="fill:#576c8c; stroke:none;" d="M156 185L157 186L156 185z"/>
<path style="fill:#98a4b6; stroke:none;" d="M52 186L53 187L52 186z"/>
<path style="fill:#2c4b75; stroke:none;" d="M82 186L83 187L82 186z"/>
<path style="fill:#98a4b6; stroke:none;" d="M83 186L84 187L83 186M126 186L127 187L126 186M157 186L158 187L157 186M36 187L36 188L40 188L36 187M51 187L52 188L51 187z"/>
<path style="fill:#576c8c; stroke:none;" d="M85 187L86 188L85 187z"/>
<path style="fill:#98a4b6; stroke:none;" d="M86 187L87 188L86 187M123 187L124 188L123 187z"/>
<path style="fill:#2c4b75; stroke:none;" d="M124 187L125 188L124 187z"/>
<path style="fill:#98a4b6; stroke:none;" d="M170 187L170 188L174 188L170 187M33 188L34 189L33 188z"/>
<path style="fill:#576c8c; stroke:none;" d="M34 188L35 189L34 188z"/>
<path style="fill:#2c4b75; stroke:none;" d="M41 188L42 189L41 188z"/>
<path style="fill:#98a4b6; stroke:none;" d="M42 188L43 189L42 188z"/>
<path style="fill:#576c8c; stroke:none;" d="M88 188L89 189L88 188z"/>
<path style="fill:#98a4b6; stroke:none;" d="M89 188L90 189L89 188M120 188L121 189L120 188z"/>
<path style="fill:#2c4b75; stroke:none;" d="M121 188L122 189L121 188z"/>
<path style="fill:#98a4b6; stroke:none;" d="M167 188L168 189L167 188z"/>
<path style="fill:#2c4b75; stroke:none;" d="M168 188L169 189L168 188z"/>
<path style="fill:#576c8c; stroke:none;" d="M175 188L176 189L175 188M32 189L33 190L32 189z"/>
<path style="fill:#98a4b6; stroke:none;" d="M44 189L45 190L44 189z"/>
<path style="fill:#2c4b75; stroke:none;" d="M50 189L51 190L50 189z"/>
<path style="fill:#576c8c; stroke:none;" d="M92 189L93 190L92 189z"/>
<path style="fill:#98a4b6; stroke:none;" d="M93.6667 189.333L94.3333 189.667L93.6667 189.333M115.667 189.333L116.333 189.667L115.667 189.333z"/>
<path style="fill:#576c8c; stroke:none;" d="M117 189L118 190L117 189M159 189L160 190L159 189z"/>
<path style="fill:#98a4b6; stroke:none;" d="M165 189L166 190L165 189M177 189L178 190L177 189z"/>
<path style="fill:#2c4b75; stroke:none;" d="M31 190L32 191L31 190z"/>
<path style="fill:#98a4b6; stroke:none;" d="M46 190L47 191L46 190M49 190L50 191L49 190z"/>
<path style="fill:#2c4b75; stroke:none;" d="M97 190L98 191L97 190z"/>
<path style="fill:#576c8c; stroke:none;" d="M98 190L99 191L98 190z"/>
<path style="fill:#98a4b6; stroke:none;" d="M99 190L99 191L110 191L99 190z"/>
<path style="fill:#576c8c; stroke:none;" d="M110.667 190.333L111.333 190.667L110.667 190.333z"/>
<path style="fill:#98a4b6; stroke:none;" d="M160 190L161 191L160 190M163 190L164 191L163 190z"/>
<path style="fill:#576c8c; stroke:none;" d="M178 190L179 191L178 190M30 191L31 192L30 191M47 191L48 192L47 191z"/>
<path style="fill:#98a4b6; stroke:none;" d="M48 191L49 192L48 191M161 191L162 192L161 191z"/>
<path style="fill:#576c8c; stroke:none;" d="M162 191L163 192L162 191M179 191L180 192L179 191z"/>
<path style="fill:#98a4b6; stroke:none;" d="M29 192L30 193L29 192M180 192L181 193L180 192z"/>
<path style="fill:#576c8c; stroke:none;" d="M180 193L181 194L180 193z"/>
<path style="fill:#98a4b6; stroke:none;" d="M16 196L16 197L22 197L16 196M188 196L188 197L194 197L188 196M12 197L13 198L12 197z"/>
<path style="fill:#576c8c; stroke:none;" d="M13 197L14 198L13 197M25 197L26 198L25 197z"/>
<path style="fill:#98a4b6; stroke:none;" d="M26.6667 197.333L27.3333 197.667L26.6667 197.333M182 197L183 198L182 197z"/>
<path style="fill:#576c8c; stroke:none;" d="M183 197L184 198L183 197z"/>
<path style="fill:#2c4b75; stroke:none;" d="M184 197L185 198L184 197z"/>
<path style="fill:#576c8c; stroke:none;" d="M196 197L197 198L196 197z"/>
<path style="fill:#98a4b6; stroke:none;" d="M197 197L198 198L197 197M10 198L11 199L10 198z"/>
<path style="fill:#2c4b75; stroke:none;" d="M198 198L199 199L198 198z"/>
<path style="fill:#98a4b6; stroke:none;" d="M9 199L10 200L9 199M200 199L201 200L200 199M8 200L9 201L8 200z"/>
<path style="fill:#576c8c; stroke:none;" d="M202 202L203 203L202 202z"/>
<path style="fill:#98a4b6; stroke:none;" d="M6.33333 203.667L6.66667 204.333L6.33333 203.667z"/>
<path style="fill:#576c8c; stroke:none;" d="M6.33333 205.667L6.66667 206.333L6.33333 205.667z"/>
<path style="fill:#98a4b6; stroke:none;" d="M203 205L203 208L204 208L203 205M6 207L6 210L7 210L6 207z"/>
<path style="fill:#576c8c; stroke:none;" d="M73 210L74 211L73 210z"/>
<path style="fill:#98a4b6; stroke:none;" d="M77 210L78 211L77 210z"/>
<path style="fill:#2c4b75; stroke:none;" d="M78 210L79 211L78 210z"/>
<path style="fill:#576c8c; stroke:none;" d="M131 210L132 211L131 210z"/>
<path style="fill:#98a4b6; stroke:none;" d="M132 210L133 211L132 210z"/>
<path style="fill:#2c4b75; stroke:none;" d="M202 210L203 211L202 210z"/>
<path style="fill:#576c8c; stroke:none;" d="M7 211L8 212L7 211z"/>
<path style="fill:#98a4b6; stroke:none;" d="M79 211L80 212L79 211z"/>
<path style="fill:#576c8c; stroke:none;" d="M80 211L81 212L80 211M129 211L130 212L129 211z"/>
<path style="fill:#98a4b6; stroke:none;" d="M202 211L203 212L202 211M7 212L8 213L7 212M20 212L20 213L25 213L20 212z"/>
<path style="fill:#2c4b75; stroke:none;" d="M25 212L26 213L25 212z"/>
<path style="fill:#576c8c; stroke:none;" d="M82 212L83 213L82 212z"/>
<path style="fill:#98a4b6; stroke:none;" d="M127 212L128 213L127 212M135.333 212.667L135.667 213.333L135.333 212.667z"/>
<path style="fill:#576c8c; stroke:none;" d="M184 212L185 213L184 212z"/>
<path style="fill:#98a4b6; stroke:none;" d="M185 212L185 213L189 213L185 212z"/>
<path style="fill:#576c8c; stroke:none;" d="M189 212L190 213L189 212M18 213L19 214L18 213z"/>
<path style="fill:#98a4b6; stroke:none;" d="M28 213L29 214L28 213M74 213L75 214L74 213M84 213L85 214L84 213z"/>
<path style="fill:#2c4b75; stroke:none;" d="M124 213L125 214L124 213z"/>
<path style="fill:#98a4b6; stroke:none;" d="M125 213L126 214L125 213z"/>
<path style="fill:#2c4b75; stroke:none;" d="M180 213L181 214L180 213z"/>
<path style="fill:#98a4b6; stroke:none;" d="M181 213L182 214L181 213z"/>
<path style="fill:#2c4b75; stroke:none;" d="M191 213L192 214L191 213M201 213L202 214L201 213z"/>
<path style="fill:#576c8c; stroke:none;" d="M8 214L9 215L8 214M31 214L32 215L31 214M74 214L75 215L74 214z"/>
<path style="fill:#98a4b6; stroke:none;" d="M86 214L87 215L86 214z"/>
<path style="fill:#576c8c; stroke:none;" d="M87 214L88 215L87 214z"/>
<path style="fill:#98a4b6; stroke:none;" d="M122 214L123 215L122 214M178 214L179 215L178 214M201 214L202 215L201 214z"/>
<path style="fill:#576c8c; stroke:none;" d="M17.3333 215.667L17.6667 216.333L17.3333 215.667z"/>
<path style="fill:#98a4b6; stroke:none;" d="M33 215L34 216L33 215z"/>
<path style="fill:#2c4b75; stroke:none;" d="M34 215L35 216L34 215z"/>
<path style="fill:#98a4b6; stroke:none;" d="M90 215L91 216L90 215z"/>
<path style="fill:#576c8c; stroke:none;" d="M91 215L92 216L91 215M118 215L119 216L118 215z"/>
<path style="fill:#98a4b6; stroke:none;" d="M119 215L120 216L119 215z"/>
<path style="fill:#576c8c; stroke:none;" d="M175 215L176 216L175 215z"/>
<path style="fill:#98a4b6; stroke:none;" d="M176 215L177 216L176 215z"/>
<path style="fill:#576c8c; stroke:none;" d="M9 216L10 217L9 216z"/>
<path style="fill:#98a4b6; stroke:none;" d="M35 216L36 217L35 216z"/>
<path style="fill:#576c8c; stroke:none;" d="M36 216L37 217L36 216z"/>
<path style="fill:#98a4b6; stroke:none;" d="M95.6667 216.333L96.3333 216.667L95.6667 216.333z"/>
<path style="fill:#576c8c; stroke:none;" d="M97.6667 216.333L98.3333 216.667L97.6667 216.333z"/>
<path style="fill:#2c4b75; stroke:none;" d="M99 216L100 217L99 216M110 216L111 217L110 216z"/>
<path style="fill:#576c8c; stroke:none;" d="M111.667 216.333L112.333 216.667L111.667 216.333z"/>
<path style="fill:#98a4b6; stroke:none;" d="M113.667 216.333L114.333 216.667L113.667 216.333M134 216L135 217L134 216z"/>
<path style="fill:#576c8c; stroke:none;" d="M173 216L174 217L173 216z"/>
<path style="fill:#98a4b6; stroke:none;" d="M200 216L201 217L200 216z"/>
<path style="fill:#576c8c; stroke:none;" d="M38 217L39 218L38 217z"/>
<path style="fill:#98a4b6; stroke:none;" d="M75 217L76 218L75 217z"/>
<path style="fill:#576c8c; stroke:none;" d="M134 217L135 218L134 217z"/>
<path style="fill:#98a4b6; stroke:none;" d="M171 217L172 218L171 217M191 217L192 218L191 217z"/>
<path style="fill:#576c8c; stroke:none;" d="M10 218L11 219L10 218M18 218L19 219L18 218z"/>
<path style="fill:#98a4b6; stroke:none;" d="M40 218L41 219L40 218z"/>
<path style="fill:#576c8c; stroke:none;" d="M75 218L76 219L75 218z"/>
<path style="fill:#98a4b6; stroke:none;" d="M169 218L170 219L169 218z"/>
<path style="fill:#2c4b75; stroke:none;" d="M191 218L192 219L191 218z"/>
<path style="fill:#98a4b6; stroke:none;" d="M199 218L200 219L199 218M19 219L20 220L19 219M42 219L43 220L42 219M75 219L76 220L75 219z"/>
<path style="fill:#576c8c; stroke:none;" d="M134 219L135 220L134 219z"/>
<path style="fill:#2c4b75; stroke:none;" d="M166 219L167 220L166 219z"/>
<path style="fill:#98a4b6; stroke:none;" d="M167 219L168 220L167 219M190 219L191 220L190 219z"/>
<path style="fill:#576c8c; stroke:none;" d="M198 219L199 220L198 219z"/>
<path style="fill:#98a4b6; stroke:none;" d="M44 220L45 221L44 220z"/>
<path style="fill:#576c8c; stroke:none;" d="M45 220L46 221L45 220M164 220L165 221L164 220z"/>
<path style="fill:#98a4b6; stroke:none;" d="M189 220L190 221L189 220M12 221L13 222L12 221M47 221L48 222L47 221M135 221L136 222L135 221z"/>
<path style="fill:#2c4b75; stroke:none;" d="M161 221L162 222L161 221z"/>
<path style="fill:#98a4b6; stroke:none;" d="M162 221L163 222L162 221M13 222L14 223L13 222z"/>
<path style="fill:#576c8c; stroke:none;" d="M21 222L22 223L21 222z"/>
<path style="fill:#98a4b6; stroke:none;" d="M49 222L50 223L49 222z"/>
<path style="fill:#576c8c; stroke:none;" d="M50 222L51 223L50 222z"/>
<path style="fill:#2c4b75; stroke:none;" d="M72 222L73 223L72 222z"/>
<path style="fill:#98a4b6; stroke:none;" d="M136 222L137 223L136 222M159 222L160 223L159 222M22 223L23 224L22 223M53 223L54 224L53 223z"/>
<path style="fill:#576c8c; stroke:none;" d="M54 223L55 224L54 223z"/>
<path style="fill:#98a4b6; stroke:none;" d="M71 223L72 224L71 223z"/>
<path style="fill:#576c8c; stroke:none;" d="M138 223L139 224L138 223M155 223L156 224L155 223z"/>
<path style="fill:#98a4b6; stroke:none;" d="M156 223L157 224L156 223z"/>
<path style="fill:#576c8c; stroke:none;" d="M187 223L188 224L187 223M194 223L195 224L194 223z"/>
<path style="fill:#98a4b6; stroke:none;" d="M16 224L17 225L16 224M23 224L24 225L23 224M57.6667 224.333L58.3333 224.667L57.6667 224.333z"/>
<path style="fill:#576c8c; stroke:none;" d="M59 224L60 225L59 224z"/>
<path style="fill:#2c4b75; stroke:none;" d="M60 224L61 225L60 224M67 224L68 225L67 224z"/>
<path style="fill:#576c8c; stroke:none;" d="M68 224L69 225L68 224z"/>
<path style="fill:#98a4b6; stroke:none;" d="M69 224L70 225L69 224M140 224L141 225L140 224z"/>
<path style="fill:#576c8c; stroke:none;" d="M141 224L142 225L141 224z"/>
<path style="fill:#2c4b75; stroke:none;" d="M142 224L143 225L142 224z"/>
<path style="fill:#576c8c; stroke:none;" d="M149.667 224.333L150.333 224.667L149.667 224.333z"/>
<path style="fill:#98a4b6; stroke:none;" d="M151.667 224.333L152.333 224.667L151.667 224.333z"/>
<path style="fill:#576c8c; stroke:none;" d="M186 224L187 225L186 224z"/>
<path style="fill:#98a4b6; stroke:none;" d="M193 224L194 225L193 224M18 225L19 226L18 225M185 225L186 226L185 225z"/>
<path style="fill:#2c4b75; stroke:none;" d="M190 225L191 226L190 225z"/>
<path style="fill:#98a4b6; stroke:none;" d="M191 225L192 226L191 225M21 226L22 227L21 226z"/>
<path style="fill:#576c8c; stroke:none;" d="M22 226L22 227L25 227L22 226M185 226L185 227L188 227L185 226z"/>
<path style="fill:#98a4b6; stroke:none;" d="M188 226L189 227L188 226z"/>
</svg>
