<?xml version="1.0" standalone="yes"?>
<svg xmlns="http://www.w3.org/2000/svg" width="252" height="300">
<path style="fill:#010101; stroke:none;" d="M0 0L0 264C9.53263 258.267 17.0178 257 28 257C29.7128 241.63 43.4268 244.197 53 250L54 250C55.6033 247.688 58.8592 244.2 58.1767 241.13C57.7157 239.057 55.7397 237.44 54.409 235.91C51.2498 232.278 39.5185 214.079 53 218C55.4241 210.353 53.7445 205.541 52 198L51 198C45.1691 209.706 33.4716 223.597 20 226L31 203L30 203C22.5236 213.399 13.6196 222.365 1 226L24 174L16 178C17.9563 164.753 22.535 151.177 25.4244 138C26.9401 131.087 26.8945 125.445 33 121L30 147L31 147C31.5495 134.235 34.6893 122.266 40 111L22 127C22.186 104.526 23.9389 74.9936 35.0347 55C49.1752 29.5203 73.8784 37.3612 88 57C95.1177 55.1169 104.468 53.3042 106 63L110 63L113 48L109 49C110.864 38.955 108.211 30.0014 98.9992 24.4822C94.8699 22.0083 90.339 21.6163 87 18L97 18L97 17L87 14L87 18C76.9079 12.1042 89.9846 -3.24301 98 4L99 4L110 5L114 1L79 0L0 0z"/>
<path style="fill:#012d63; stroke:none;" d="M110 5C106.577 3.42145 102.009 0.842682 99 4L98 4C90.5987 -6.43011 82.2227 10.5315 84 18L86 18L87 14L97 17L97 18L87 18C89.5834 22.2263 94.9694 22.4608 98.9992 25.1088C108.085 31.079 110.28 38.8622 109 49L113 48L110 63L106 63C105.245 53.2171 95.0143 54.4436 88 57C77.2073 35.8603 50.4163 30.8856 36.3873 52.0147C23.4564 71.49 22.0628 104.255 22 127C29.9862 124.286 34.5485 116.968 40 111C33.0727 120.963 31.2505 135.865 31 148L30 148L33 121C22.6502 125.988 22.298 153.352 19.5224 164C18.2725 168.795 15.9636 173.024 17 178L24 174L1 226C13.1923 223.104 24.4032 214.236 30 203L31 203L20 226C33.0817 224.66 47.0017 210.055 51 198L52 198L53 218C39.4021 212.914 50.213 232.056 53.5856 235.91C54.9327 237.45 57.0033 239.081 57.5718 241.13C58.3644 243.988 55.2358 247.586 54 250L53 250C43.979 242.237 28.8047 242.311 28 257C19.8625 257 7.22391 255.701 1.6034 263.214C-8.39125 276.574 7.39586 300.597 23 298L14 280C32.7396 282.37 50.0325 292.772 69 292.996C77.0818 293.092 88.4289 292.825 87 282L123 286L162 282C156.964 292.018 171.239 292.998 178 293C198.191 293.007 216.068 281.411 236 281L226 300C240.725 299.327 258.825 281.071 249.972 265.105C245.393 256.846 229.765 256.705 222 259C221.932 251.454 217.057 242.907 208.004 244.438C203.017 245.282 194.863 253.902 192.662 243.995C191.25 237.639 203.103 230.852 204.448 224.001C205.423 219.035 202.439 217.011 198 218L199 198L200 198C203.963 210.436 218.944 225.475 232 228L221 204L222 204C226.887 215.542 239.963 225.141 252 228L227 173L235 178L226 125L231 127C229.156 103.638 230.601 72.3103 217.452 52C203.725 30.7953 175.556 32.316 165 56L153 54L153 53L158 47L149 39C153.79 38.0301 156.239 35.8874 157 31L141 17L141 16L148 11C140.022 9.14905 114.585 -9.15274 110 5z"/>
<path style="fill:#010101; stroke:none;" d="M123 0L123 1L148 11L141 16L141 17L157 31C155.748 35.4215 153.309 37.5301 149 39C151.098 43.3033 153.154 45.4486 158 46L153 53L153 54L165 56C179.247 33.2235 204.464 30.0972 218.662 55C230.543 75.8375 228.076 103.86 231 127L226 125L235 178L227 173C231.573 192.305 242.751 208.333 251 226L252 226L252 0L123 0M107 10L110 7L107 10M97 8L98 9L97 8M115 13L116 14L115 13M116 15L118 21L130 18C124.256 19.3631 120.754 18.4044 116 15z"/>
<path style="fill:#010bf0; stroke:none;" d="M143 15L144 16L143 15M86 17L87 18L86 17z"/>
<path style="fill:#010101; stroke:none;" d="M119 23L118 27L119 27L119 23z"/>
<path style="fill:#010bf0; stroke:none;" d="M116 24L117 25L116 24z"/>
<path style="fill:#010101; stroke:none;" d="M148 32L149 33L148 32M132 35L133 36L132 35M144 36L145 37L144 36z"/>
<path style="fill:#010bf0; stroke:none;" d="M109 38L110 39L109 38M144 38L145 39L144 38z"/>
<path style="fill:#010101; stroke:none;" d="M113 39L114 40L113 39M128 39L129 40L128 39M138 41L139 42L138 41M142 43L143 44L142 43M39 62L40 62C51.4273 37.9843 71.9829 46.4056 83 65C84.4983 55.7787 70.0703 45.6149 62 44.7052C50.834 43.4466 41.9457 51.7981 39 62z"/>
<path style="fill:#010bf0; stroke:none;" d="M61 44L62 45L61 44z"/>
<path style="fill:#010101; stroke:none;" d="M168 64C175.028 59.414 177.532 50.3631 186 46.6489C205.005 38.3133 217.022 64.3084 219 79C220.511 74.7859 218.633 69.1711 217.25 65C214.657 57.1796 208.833 48.5041 201 45.2284C187.952 39.7717 170.667 50.7743 168 64z"/>
<path style="fill:#017d01; stroke:none;" d="M114 46L115 47L114 46z"/>
<path style="fill:#010101; stroke:none;" d="M125 47L126 50L122 51L122 58L123 58C124.666 52.2713 128.7 52.1992 134 53L134 52L128 50L129 46L125 47z"/>
<path style="fill:#010bf0; stroke:none;" d="M157 46L158 47L157 46z"/>
<path style="fill:#010101; stroke:none;" d="M138 49L139 50L138 49M151 49L152 50L151 49M189 49C193.683 61.876 183.63 62.704 174 66L174 67C181.236 67 198.451 70.5644 200.426 61.0849C201.056 58.0598 199.425 54.9632 199 52L189 49M51 66C56.7067 67.3587 72.9102 69.6803 77 65C67.5933 65.4662 58.0507 60.3414 63 50C52.8663 52.7749 54.2956 57.633 51 66z"/>
<path style="fill:#010bf0; stroke:none;" d="M83 50L84 51L83 50z"/>
<path style="fill:#017d01; stroke:none;" d="M168 50L169 51L168 50z"/>
<path style="fill:#010101; stroke:none;" d="M142 51L143 52L142 51z"/>
<path style="fill:#010bf0; stroke:none;" d="M130 52L131 53L130 52M35 53L36 54L35 53z"/>
<path style="fill:#010101; stroke:none;" d="M69 53L70 54L69 53z"/>
<path style="fill:#010bf0; stroke:none;" d="M75 53L76 54L75 53z"/>
<path style="fill:#010101; stroke:none;" d="M200 53L202 55L200 53z"/>
<path style="fill:#010bf0; stroke:none;" d="M53 54L54 55L53 54z"/>
<path style="fill:#017d01; stroke:none;" d="M60 54L60 57L61 57L60 54z"/>
<path style="fill:#010101; stroke:none;" d="M131 54C130.902 59.2308 127.577 59.7063 123 59L123 61L120 60L121 64L111 66L111 67L141 67L132 64L131 54M148 54L149 55L148 54z"/>
<path style="fill:#010bf0; stroke:none;" d="M131 56L132 57L131 56z"/>
<path style="fill:#010101; stroke:none;" d="M138 56L139 57L138 56M95 57L96 66C105.579 64.9294 103.753 57.4796 95 57M140 57L141 58L140 57M157 65L157 57C148.731 57.6291 148.585 64.5351 157 65M204 57L207 60L204 57z"/>
<path style="fill:#010bf0; stroke:none;" d="M61 58L62 59L61 58z"/>
<path style="fill:#010101; stroke:none;" d="M74 58L75 59L74 58M119 58L120 59L119 58M162 64L160 59L164 62C164.135 56.6162 156.185 60.1963 162 64M90 59L89 61L90 59z"/>
<path style="fill:#017d01; stroke:none;" d="M156 59L157 60L156 59z"/>
<path style="fill:#010101; stroke:none;" d="M93 60L92 65L93 65L93 60M45 61L46 62L45 61z"/>
<path style="fill:#010bf0; stroke:none;" d="M64 62L65 63L64 62z"/>
<path style="fill:#010101; stroke:none;" d="M88 62L87 67L90 67L90 66L88 62z"/>
<path style="fill:#010bf0; stroke:none;" d="M200 62L201 63L200 62z"/>
<path style="fill:#010101; stroke:none;" d="M38 63L37 67L38 67L38 63M44 63L45 64L44 63z"/>
<path style="fill:#010bf0; stroke:none;" d="M199 63L200 64L199 63M214 63L215 64L214 63M82 64L83 65L82 64z"/>
<path style="fill:#010101; stroke:none;" d="M164 64L162 66L162 67L171 67L171 66L164 64M209 64L210 67L211 67L209 64z"/>
<path style="fill:#010bf0; stroke:none;" d="M30 65L31 66L30 65z"/>
<path style="fill:#010101; stroke:none;" d="M43 65L42 68L43 68L43 65z"/>
<path style="fill:#010bf0; stroke:none;" d="M74.6667 65.3333L75.3333 65.6667L74.6667 65.3333M165 65L166 66L165 65M223 65L224 66L223 65M52 66L53 67L52 66z"/>
<path style="fill:#017d01; stroke:none;" d="M36 67L37 68L36 67z"/>
<path style="fill:#010101; stroke:none;" d="M36 68L36 71L37 71L36 68M211 68C211.273 70.5946 212.339 73.4563 211.361 76C209.639 80.4817 204.291 81.9103 207 76C204.179 77.5959 201.916 83.0221 207.114 83.4537C214.342 84.0538 213.25 71.7576 211 68M41 69C40.5023 72.9382 40.9472 90.9432 48 81C40.0438 80.8675 42.9746 74.3307 41 69M51 70L51 185L52 185L52 71L200 71C188.306 66.0931 167.73 70 155 70L51 70M35 71L35 75L36 75L35 71M54 73L54 160C63.2876 156.788 65.9932 161.208 66 170L54 169L57 201L58 201L65 189L67 189L68 190C64.8614 198.828 70.5498 200.163 74.196 207.174C75.8273 210.31 75.4212 213.805 77 217L78 217L81 215L82 216C78.7877 220.36 68.0432 226.825 68.3056 216.015C68.3765 213.091 71.6844 210.487 73 208L63 212L71 206L71 205L58 202C74.2406 249.695 135.949 263.281 172.91 231.195C190.439 215.979 197 195.466 197 173C180.232 180.057 184.516 155.302 196 164L197 164L197 159L185 159L191 151L191 150L185 150L185 147L196 147L190 156L198 158C195.803 146.167 198.221 133.962 197.985 122C197.674 106.249 194.302 88.5333 198 73L54 73M34 75L34 78L35 78L34 75z"/>
<path style="fill:#012d63; stroke:none;" d="M80 82L80 83L71 83L71 86C82.1552 86 88.4673 79.0112 74 79L74 78L83 78L83 75C79.8482 75 75.2135 74.1738 72.3187 75.6034C64.4439 79.4924 77.5072 81.9981 80 82M88 75L88 86L91 86L91 75L88 75M96 75L96 86L109 86L109 83L99 83L99 82L109 82L109 79L99 79L99 78L109 78L109 75L96 75M113 75L113 86L116 86L116 81L117 81L122 86L124 82L125 82L125 86L128 86L128 75L121 80L113 75M131 75L131 86L135 86L135 83C137.649 82.998 151.598 79.8371 143.552 75.6034C140.327 73.907 134.564 75 131 75M149 75L149 86L152 83L162 86L161 81C168.097 74.7064 152.026 75 149 75M165 75L165 86L179 85L179 84L168 83L168 82L179 82C176.52 78.1753 172.192 79.0005 168 79L168 78L179 77L165 75z"/>
<path style="fill:#010101; stroke:none;" d="M44 78L44 79L48 77L44 78M135 78L135 80L141 80L141 78L135 78M153 78L153 80L159 79L153 78M33 79L33 83L34 83L33 79z"/>
<path style="fill:#010bf0; stroke:none;" d="M145 79L146 80L145 79M42 80L43 81L42 80M220 80L221 81L220 80z"/>
<path style="fill:#010101; stroke:none;" d="M214 81C210.826 85.0285 208.01 86.3094 203 85C207.551 91.9399 214.56 85.6381 207 95L213 96C210.5 100.281 207.745 101.016 203 100C205.617 105.184 210.367 105.658 213.03 99.9807C215.455 94.8126 216.214 86.2761 214 81M220 81L220 87L221 87L220 81M38 82C38 88.496 37.4651 95.7944 40.0285 101.941C42.2259 107.211 47.1502 106.091 48 101C44.0322 100.557 41.877 99.5785 40 96L46 96L46 94C36.7949 91.3051 45.8155 89.2901 48 86L38 82M32 84L32 89L33 89L32 84z"/>
<path style="fill:#010bf0; stroke:none;" d="M162 84L163 85L162 84z"/>
<path style="fill:#012d63; stroke:none;" d="M55 87L55 99C65.4411 99 67 97.4411 67 87L63 89L62 89L59 87L59 95L58 95L58 87L55 87M68 87L68 152C68 179.114 66.4398 200.383 87 221L74 225L85 234L82 229L82 228L87 221L91 223L91 224L88 224C88 237.081 88.9425 237.472 101 234L101 230L112 233L112 234L108 237L99 235C97.6839 242.545 101.61 243.534 108 246L112 234L146 232L146 233L144 235L148 236C145.956 245.173 155.196 241.731 160 239C158.764 234.68 157.527 230.462 153 229L154 234L146 232L146 231L160 224C151.77 240.329 180.592 233.072 168.492 222.742C167.103 221.557 165.712 221.362 164 221L176 204C180.442 206.991 187.407 205.211 192 203L186 192L195 192L189 184L196 178L185 177L188 181L188 182L185 183L188 188L183 188C188.901 156.214 184 119.344 184 87L68 87M185 87C187.408 98.7316 179.211 114.987 196 115L196 112L189 112L188 107L196 107L196 104L186 104C194.902 97.6049 198.867 90.6045 185 87z"/>
<path style="fill:#010101; stroke:none;" d="M221 88L221 96L222 96L221 88z"/>
<path style="fill:#010bf0; stroke:none;" d="M25 89L26 90L25 89z"/>
<path style="fill:#010101; stroke:none;" d="M31 90L30 107L31 107L31 90M127 92L127 94L129 92L127 92M130 92L133 95L131 110L131 111L136 116L137 116L140 114L140 113L137 111L144 111L144 118L138 118L138 119L144 119L143.529 149.996L147 163L144 161L144 177L147 179L148 179L150 177L149 180L158 180L158 184L156 181L155 181L155 184L150 183L150 184L158 185L158 187L154 187L154 188L163 188L162 185L165 181L164 181L162 184L162 180L169 180L167 184L167 185C170.054 184.346 169.936 182.993 170 180L172 180L173 185L175 185L176 180L179 181L179 178L176 179L179 176L179 175L176 176L176 172L179 173L179 170L176 171L176 164L179 165L179 162L176 163L176 156L179 157L179 154L176 155L176 151L179 152L179 151L176 148L179 149L179 145L178 145L176 147L176 143L179 144L179 141L176 142L179 139L179 138L176 139L176 135L179 136L179 135L176 134L176 132L179 131L179 130L176 131L176 127L179 128L179 127C175.865 123.666 175.865 121.334 179 118L179 117L176 118L176 114L179 115L179 114L176 113L176 111L179 108L178 108L176 110L176 106L179 107L179 106L176 105L176 103L179 102L179 101L176 102L176 98L178 100L179 100L176 97L176 95L179 92L178 92L177 92L178 94L176 92L175 92L173 92L172 92L170 94L171 92L170 92L145 94L146 92L145 92L131 94L132 92L130 92M138.667 92.3333L139.333 92.6667L138.667 92.3333M141.667 92.3333L142.333 92.6667L141.667 92.3333z"/>
<path style="fill:#010bf0; stroke:none;" d="M146 92L147 93L146 92z"/>
<path style="fill:#010101; stroke:none;" d="M152.667 92.3333L153.333 92.6667L152.667 92.3333M155.667 92.3333L156.333 92.6667L155.667 92.3333M163.667 92.3333L164.333 92.6667L163.667 92.3333M166.667 92.3333L167.333 92.6667L166.667 92.3333z"/>
<path style="fill:#010bf0; stroke:none;" d="M171 92L172 93L171 92M174 92L175 93L174 92M42 93L43 94L42 93z"/>
<path style="fill:#012d63; stroke:none;" d="M134.667 93.3333L135.333 93.6667L134.667 93.3333M145.667 93.3333L146.333 93.6667L145.667 93.3333M148.667 93.3333L149.333 93.6667L148.667 93.3333z"/>
<path style="fill:#017d01; stroke:none;" d="M155 93L156 94L155 93z"/>
<path style="fill:#012d63; stroke:none;" d="M159.667 93.3333L160.333 93.6667L159.667 93.3333M170.667 93.3333L171.333 93.6667L170.667 93.3333z"/>
<path style="fill:#010101; stroke:none;" d="M62 94L63 95L62 94M190 94L190 96L192 96L190 94z"/>
<path style="fill:#012d63; stroke:none;" d="M134 95L134 97L136 97L136 95L134 95M137 95L137 97L144 97L144 95L137 95M145 95L145 97L147 97L147 95L145 95M148 95L148 97L150 97L150 95L148 95M151 95L151 97L155 97L155 95L151 95M156 95L158 97L158 98L156 101L155 101L155 98L151 98L154 102L154 103L151 103L153 105L153 106C151.187 107.556 151.187 108.444 153 110L153 111C150.953 111.787 150.953 112.213 153 113L153 114C151.187 115.556 151.187 116.444 153 118L153 119L151 126L154 125L151 127L151 131L156 130L157 131L156 134L158 132L159 132C159.787 134.047 160.213 134.047 161 132L162 132C162.787 134.047 163.213 134.047 164 132L165 132L169 134L166 132L166 131L169 131L169 125L172 126L170 119L170 118C171.813 116.444 171.813 115.556 170 114L170 113C172.047 112.213 172.047 111.787 170 111L170 110L172 106C168.674 104.001 168.871 101.664 169 98L165 98L165 97L169 97L169 95L165 97L164 97C163.213 94.953 162.787 94.953 162 97L161 97C160.213 94.953 159.787 94.953 159 97L158 97L156 95z"/>
<path style="fill:#010bf0; stroke:none;" d="M164 95L165 96L164 95z"/>
<path style="fill:#012d63; stroke:none;" d="M170 95L170 97L172 97L172 95L170 95M173 95L173 97L175 97L175 95L173 95M176 95L176 97L178 97L178 95L176 95z"/>
<path style="fill:#017d01; stroke:none;" d="M178 95L179 96L178 95z"/>
<path style="fill:#010101; stroke:none;" d="M164 96L165 97L164 96z"/>
<path style="fill:#010bf0; stroke:none;" d="M178 96L179 97L178 96z"/>
<path style="fill:#012d63; stroke:none;" d="M134 98L134 102L136 102L136 98L134 98M137 98L137 102L144 102L144 98L137 98M145 98L145 102L147 102L147 98L145 98M148 98L148 102L150 102L150 98L148 98z"/>
<path style="fill:#017d01; stroke:none;" d="M155 98L156 99L155 98z"/>
<path style="fill:#012d63; stroke:none;" d="M170 98L170 102L172 102L172 98L170 98M173 98L173 102L175 102L175 98L173 98z"/>
<path style="fill:#010101; stroke:none;" d="M130 99L131 100L130 99M155.333 99.6667L155.667 100.333L155.333 99.6667z"/>
<path style="fill:#010bf0; stroke:none;" d="M166 99L167 100L166 99z"/>
<path style="fill:#010101; stroke:none;" d="M222 99L222 105L223 105L222 99z"/>
<path style="fill:#012d63; stroke:none;" d="M55 114L63 114L63 115L55 120L63 128L63 138L58 138L60 129C55.0894 129.82 51.9306 138.781 57.3179 141.396C60.0795 142.736 64.7064 141.968 65.6821 138.772C67.3115 133.433 64.8348 128.062 64.3133 122.91C63.539 115.262 65.0753 107.179 67 100C56.3117 101.813 55 102.81 55 114z"/>
<path style="fill:#010101; stroke:none;" d="M90 100L91 101L90 100z"/>
<path style="fill:#010bf0; stroke:none;" d="M139 100L140 101L139 100z"/>
<path style="fill:#010101; stroke:none;" d="M162 100L164 102L162 100M36.3333 102.667L36.6667 103.333L36.3333 102.667M216 102L217 103L216 102M88 103L90 107L91 107L88 103z"/>
<path style="fill:#012d63; stroke:none;" d="M134 103L134 105L136 105L136 103L134 103M137 103L137 105L144 105L144 103L137 103M145 103L145 105L147 105L147 103L145 103M148 103L148 105L150 105L150 103L148 103M170 103L170 105L172 105L172 103L170 103M173 103L173 105L175 105L175 103L173 103M176 103L176 105L178 105L178 103L176 103z"/>
<path style="fill:#010bf0; stroke:none;" d="M178.333 103.667L178.667 104.333L178.333 103.667z"/>
<path style="fill:#010101; stroke:none;" d="M217 104L218 105L217 104M35 105L36 106L35 105M59 105L59 111L60 111L59 105z"/>
<path style="fill:#012d63; stroke:none;" d="M134 106L134 110L136 110L136 106L134 106M137 106L137 110L144 110L144 106L137 106M145 106L145 110L147 110L147 106L145 106M148 106L148 110L150 110L150 106L148 106M173 106L173 110L175 110L175 106L173 106z"/>
<path style="fill:#010101; stroke:none;" d="M218 106L223 113L218 106z"/>
<path style="fill:#010bf0; stroke:none;" d="M29.3333 107.667L29.6667 108.333L29.3333 107.667M34 107L35 108L34 107z"/>
<path style="fill:#017d01; stroke:none;" d="M130 107L131 108L130 107z"/>
<path style="fill:#010101; stroke:none;" d="M139 107L140 108L139 107M33 108L34 109L33 108M29 109L29 114L33 109L29 109M40 109L41 110L40 109M47 110L45 113L47 110M124 110L126 112L124 110M128 110L129 111L128 110M163 110L158 117L162 119L163 110M213 110L215 112L213 110z"/>
<path style="fill:#012d63; stroke:none;" d="M134 111L134 113L136 113L136 111L134 111M145 111L145 113L147 113L147 111L145 111M148 111L148 113L150 113L150 111L148 111M173 111L173 113L175 113L175 111L173 111M176 111L176 113L178 113L178 111L176 111z"/>
<path style="fill:#010bf0; stroke:none;" d="M178.333 111.667L178.667 112.333L178.333 111.667z"/>
<path style="fill:#010101; stroke:none;" d="M206 111L207 112L206 111M141.667 113.333L142.333 113.667L141.667 113.333z"/>
<path style="fill:#010bf0; stroke:none;" d="M36 114L37 115L36 114z"/>
<path style="fill:#012d63; stroke:none;" d="M145 114L145 118L147 118L147 114L145 114M148 114L148 118L150 118L150 114L148 114M173 114L173 118L175 118L175 114L173 114z"/>
<path style="fill:#010bf0; stroke:none;" d="M212 114L213 115L212 114z"/>
<path style="fill:#010101; stroke:none;" d="M216 114L217 115L216 114M73 115L73 116L80 116L73 115M113.333 115.667L113.667 116.333L113.333 115.667z"/>
<path style="fill:#010bf0; stroke:none;" d="M139 115L140 116L139 115z"/>
<path style="fill:#010101; stroke:none;" d="M141 115L142 116L141 115M152 115L153 116L152 115M212 115L212 118L213 118L212 115M118 116L119 117L118 116z"/>
<path style="fill:#017d01; stroke:none;" d="M178 116L179 117L178 116z"/>
<path style="fill:#012d63; stroke:none;" d="M194 116L193 121L185 121C186.343 125.046 189.065 124.953 193 125L193 129L197 129L196 116L194 116z"/>
<path style="fill:#010101; stroke:none;" d="M203 116L207 128L208 128L203 116z"/>
<path style="fill:#010bf0; stroke:none;" d="M40 117L41 118L40 117z"/>
<path style="fill:#010101; stroke:none;" d="M48 117L47 120L48 117M120 117L121 118L120 117M126 117L127 118L126 117M218 117L221 144L222 144L220 121L226 125L218 117M40 118L41 125L44 122L40 118M116 118L119 120L119 119L116 118z"/>
<path style="fill:#010bf0; stroke:none;" d="M139 119L140 120L139 119z"/>
<path style="fill:#012d63; stroke:none;" d="M145 119L145 126L147 126L147 119L145 119M148 119L148 126L150 126L150 119L148 119M173 119L173 126L175 126L175 119L173 119z"/>
<path style="fill:#010bf0; stroke:none;" d="M178.333 119.667L178.667 120.333L178.333 119.667M206 119L207 120L206 119z"/>
<path style="fill:#010101; stroke:none;" d="M87 120L87 121L91 123L87 120z"/>
<path style="fill:#010bf0; stroke:none;" d="M141 120L142 121L141 120M41 121L42 122L41 121z"/>
<path style="fill:#010101; stroke:none;" d="M44 121L45 122L44 121M60.3333 121.667L60.6667 122.333L60.3333 121.667M114 121L115 125L116 125L114 121M123 121L124 122L123 121M170 121L171 122L170 121M211 121L211 125L212 125L211 121M47 122L46 126L47 126L47 122M178 122L179 123L178 122M73 123L73 124L81 124L73 123M98 123L98 124L111 124L98 123M152 123L153 124L152 123z"/>
<path style="fill:#010bf0; stroke:none;" d="M177 123L178 124L177 123z"/>
<path style="fill:#017d01; stroke:none;" d="M210 123L211 124L210 123z"/>
<path style="fill:#010101; stroke:none;" d="M139.333 124.667L139.667 125.333L139.333 124.667M178 124L179 125L178 124z"/>
<path style="fill:#010bf0; stroke:none;" d="M178 125L179 126L178 125z"/>
<path style="fill:#010101; stroke:none;" d="M45 127L44 131L45 131L45 127z"/>
<path style="fill:#012d63; stroke:none;" d="M145 127L145 131L147 131L147 127L145 127M148 127L148 131L150 131L150 127L148 127M170 127L170 131L172 131L172 127L170 127M173 127L173 131L175 131L175 127L173 127z"/>
<path style="fill:#010101; stroke:none;" d="M112 128L113 129L112 128M158 128L159 129L158 128M161 128L161 129L164 129L161 128M152 129L153 130L152 129z"/>
<path style="fill:#010bf0; stroke:none;" d="M153 129L154 130L153 129z"/>
<path style="fill:#010101; stroke:none;" d="M167 129L168 130L167 129M208 129L209 130L208 129M140.333 130.667L140.667 131.333L140.333 130.667M155 130L155 133L157 132L157 131L155 130z"/>
<path style="fill:#012d63; stroke:none;" d="M188.148 130.746C181.286 133.743 185.841 146.697 193.772 143.243C200.662 140.242 196.262 127.203 188.148 130.746z"/>
<path style="fill:#010bf0; stroke:none;" d="M44 131L45 132L44 131z"/>
<path style="fill:#010101; stroke:none;" d="M110 131L111 132L110 131z"/>
<path style="fill:#010bf0; stroke:none;" d="M146 131L147 132L146 131M151 131L152 132L151 131z"/>
<path style="fill:#010101; stroke:none;" d="M152.667 131.333L153.333 131.667L152.667 131.333z"/>
<path style="fill:#010bf0; stroke:none;" d="M154 131L155 132L154 131z"/>
<path style="fill:#010101; stroke:none;" d="M203 131L205 134L203 131z"/>
<path style="fill:#012d63; stroke:none;" d="M145 132L145 134L147 134L147 132L145 132M148 132L148 134L150 134L150 132L148 132M151 132L151 134L155 134L155 132L151 132M170 132L170 134L172 134L172 132L170 132M173 132L173 134L175 134L175 132L173 132M176 132L176 134L178 134L178 132L176 132z"/>
<path style="fill:#010bf0; stroke:none;" d="M178.333 132.667L178.667 133.333L178.333 132.667M155 133L156 134L155 133z"/>
<path style="fill:#010101; stroke:none;" d="M40.3333 134.667L40.6667 135.333L40.3333 134.667M189 134L189 140L193 140L193 134L189 134M109 135L110 136L109 135M119 135L118 140L125 141L121 135L119 135M139.667 135.333L140.333 135.667L139.667 135.333z"/>
<path style="fill:#012d63; stroke:none;" d="M145 135L145 139L147 139L147 135L145 135M148 135L148 139L150 139L150 135L148 135M151 135L151 139L155 139L155 135L151 135z"/>
<path style="fill:#017d01; stroke:none;" d="M155 135L156 136L155 135z"/>
<path style="fill:#012d63; stroke:none;" d="M156 135L156 140L151 140L154 142L154 143L151 143L151 171L156 171L156 176L158 173L159 173L160 176L161 173L162 173L162 176L169 176L166 172L166 171L169 171C169 164.53 171.975 147.347 167 143L167 142L169 140L166 141L169 139L169 135C165.637 135 162.796 134.284 162 138L161 138L160 135L159 138L158 138L156 135M170 135L170 139L172 139L172 135L170 135M173 135L173 139L175 139L175 135L173 135z"/>
<path style="fill:#010101; stroke:none;" d="M211 135L210 154L211 154L211 135z"/>
<path style="fill:#010bf0; stroke:none;" d="M40 136L41 137L40 136z"/>
<path style="fill:#010101; stroke:none;" d="M73 136L73 137L106 137L73 136z"/>
<path style="fill:#010bf0; stroke:none;" d="M120 136L121 137L120 136z"/>
<path style="fill:#010101; stroke:none;" d="M155.333 136.667L155.667 137.333L155.333 136.667M164 136L163 138L165 138L164 136z"/>
<path style="fill:#017d01; stroke:none;" d="M178 136L179 137L178 136z"/>
<path style="fill:#010101; stroke:none;" d="M40 137L40 143L41 143L40 137M44 137L45 151C48.6859 147.39 48 142.889 48 138L44 137z"/>
<path style="fill:#010bf0; stroke:none;" d="M166 137L167 138L166 137z"/>
<path style="fill:#010101; stroke:none;" d="M203 137L206 156L207 156L208 138L203 137M128 141L133 138L128 141z"/>
<path style="fill:#010bf0; stroke:none;" d="M155 138L156 139L155 138z"/>
<path style="fill:#010101; stroke:none;" d="M108.667 139.333L109.333 139.667L108.667 139.333M139 139L140 140L139 139z"/>
<path style="fill:#010bf0; stroke:none;" d="M89 140L90 141L89 140M127 140L128 141L127 140z"/>
<path style="fill:#012d63; stroke:none;" d="M145 140L145 142L147 142L147 140L145 140M148 140L148 142L150 142L150 140L148 140M170 140L170 142L172 142L172 140L170 140M173 140L173 142L175 142L175 140L173 140M176 140L176 142L178 142L178 140L176 140z"/>
<path style="fill:#010bf0; stroke:none;" d="M178 140L179 141L178 140M31 141L32 142L31 141M185 141L186 142L185 141z"/>
<path style="fill:#010101; stroke:none;" d="M37 142L38 143L37 142M139.333 142.667L139.667 143.333L139.333 142.667z"/>
<path style="fill:#010bf0; stroke:none;" d="M40 143L41 144L40 143z"/>
<path style="fill:#010101; stroke:none;" d="M108 143L109 144L108 143z"/>
<path style="fill:#010bf0; stroke:none;" d="M125 143L126 144L125 143z"/>
<path style="fill:#010101; stroke:none;" d="M132 143L134 146L132 143z"/>
<path style="fill:#012d63; stroke:none;" d="M145 143L145 147L147 147L147 143L145 143M148 143L148 147L150 147L150 143L148 143z"/>
<path style="fill:#010101; stroke:none;" d="M160 143L162 145L160 143z"/>
<path style="fill:#012d63; stroke:none;" d="M170 143L170 147L172 147L172 143L170 143M173 143L173 147L175 147L175 143L173 143z"/>
<path style="fill:#010101; stroke:none;" d="M36.3333 144.667L36.6667 145.333L36.3333 144.667z"/>
<path style="fill:#012d63; stroke:none;" d="M55 144L55 147L63 147L63 152L55 152C58.9726 163.969 72.5606 147.209 62.8519 144.318C60.4482 143.602 57.4819 144 55 144z"/>
<path style="fill:#010bf0; stroke:none;" d="M119 144L120 145L119 144z"/>
<path style="fill:#010101; stroke:none;" d="M125 144L125 146L127 146L127 144L125 144z"/>
<path style="fill:#017d01; stroke:none;" d="M221 144L222 145L221 144z"/>
<path style="fill:#010101; stroke:none;" d="M119 145L120 146L119 145z"/>
<path style="fill:#010bf0; stroke:none;" d="M207 145L208 146L207 145z"/>
<path style="fill:#010101; stroke:none;" d="M215 145L216 146L215 145M222 145L222 149L223 149L222 145M109 146L110 147L109 146M162 146L163 147L162 146z"/>
<path style="fill:#010bf0; stroke:none;" d="M30 147L31 148L30 147z"/>
<path style="fill:#010101; stroke:none;" d="M35 147L36 148L35 147M41 147L41 151L42 151L41 147M216 147L217 148L216 147M29 148L29 151L30 151L29 148z"/>
<path style="fill:#012d63; stroke:none;" d="M145 148L145 150L147 150L147 148L145 148M148 148L148 150L150 150L150 148L148 148M170 148L170 150L172 150L172 148L170 148M173 148L173 150L175 150L175 148L173 148M176 148L176 150L178 150L178 148L176 148z"/>
<path style="fill:#010101; stroke:none;" d="M34 149L35 150L34 149M118 149L118 150L123 151L123 150L118 149z"/>
<path style="fill:#017d01; stroke:none;" d="M178 149L179 150L178 149z"/>
<path style="fill:#010101; stroke:none;" d="M217 149L219 151L217 149M128 150L128 151L132 151L128 150M223 150L223 153L224 153L223 150M33 151L34 152L33 151z"/>
<path style="fill:#012d63; stroke:none;" d="M145 151L145 155L147 155L147 151L145 151M148 151L148 155L150 155L150 151L148 151M170 151L170 155L172 155L172 151L170 151M173 151L173 155L175 155L175 151L173 151z"/>
<path style="fill:#010101; stroke:none;" d="M91 152L91 160L92 160L91 152M122 152L119 153L120 158L121 158L122 152M128 152L130 159L132 152L128 152M32 153L31 155L32 153z"/>
<path style="fill:#017d01; stroke:none;" d="M178 153L179 154L178 153z"/>
<path style="fill:#010bf0; stroke:none;" d="M210 154L211 155L210 154z"/>
<path style="fill:#010101; stroke:none;" d="M213 154L214 155L213 154M220.333 154.667L220.667 155.333L220.333 154.667M224 154L224 157L225 157L224 154M28 155L25 165L26 165L31 156L28 155M38 155L39 156L38 155M42 155L42 159L43 159L42 155z"/>
<path style="fill:#010bf0; stroke:none;" d="M27 156L28 157L27 156z"/>
<path style="fill:#012d63; stroke:none;" d="M148 156L148 163L150 163L150 156L148 156M170 156L170 158L172 158L172 156L170 156M173 156L173 158L175 158L175 156L173 156M176 156L178 163L178 156L176 156z"/>
<path style="fill:#010101; stroke:none;" d="M209.333 156.667L209.667 157.333L209.333 156.667M214 156L216 160L217 160L214 156M157 157L160 166L157 157z"/>
<path style="fill:#010bf0; stroke:none;" d="M178 157L179 158L178 157z"/>
<path style="fill:#010101; stroke:none;" d="M36 158L37 159L36 158z"/>
<path style="fill:#010bf0; stroke:none;" d="M173.667 158.333L174.333 158.667L173.667 158.333z"/>
<path style="fill:#010101; stroke:none;" d="M177 158L178 159L177 158M205 158L203 168L204 168L205 158M46 159L47 168L48 168L46 159M86.3333 159.667L86.6667 160.333L86.3333 159.667z"/>
<path style="fill:#012d63; stroke:none;" d="M170 159L170 163L172 163L172 159L170 159M173 159L173 163L175 163L175 159L173 159z"/>
<path style="fill:#010101; stroke:none;" d="M178 159L179 160L178 159M35 160L30 167L30 168C33.2538 177.949 21.7621 193.408 19 203L20 203C25.2433 190.406 35.5613 173.994 35 160M43 160L44 161L43 160z"/>
<path style="fill:#010bf0; stroke:none;" d="M54 160L55 161L54 160z"/>
<path style="fill:#010101; stroke:none;" d="M177 160L178 161L177 160M224 160L225 163L226 163L224 160M119 161L120 162L119 161M129.667 161.333L130.333 161.667L129.667 161.333z"/>
<path style="fill:#017d01; stroke:none;" d="M178 161L179 162L178 161z"/>
<path style="fill:#010101; stroke:none;" d="M217 161L218 162L217 161M58 162L58 166L63 166L63 162L58 162z"/>
<path style="fill:#012d63; stroke:none;" d="M196 162C193.74 162 191.292 161.765 189.057 162.148C175.295 164.509 196.967 185.989 196.867 168.004C196.855 165.987 196.366 163.973 196 162z"/>
<path style="fill:#010101; stroke:none;" d="M86 163L89 166L86 163M218 163C218.627 177.377 225.853 192.756 233 205L234 205L220 167L224 169L218 163M119 164L119 168L120 168L119 164z"/>
<path style="fill:#012d63; stroke:none;" d="M145 164L145 171L147 164L145 164M148 164L150 171L150 164L148 164M170 164L170 171L172 171L172 164L170 164M173 164L175 171L175 164L173 164z"/>
<path style="fill:#010bf0; stroke:none;" d="M196.667 164.333L197.333 164.667L196.667 164.333z"/>
<path style="fill:#010101; stroke:none;" d="M129 165L129 169L130 169L129 165z"/>
<path style="fill:#010bf0; stroke:none;" d="M178 165L179 166L178 165z"/>
<path style="fill:#010101; stroke:none;" d="M189 165L189 171L193 171L193 165L189 165z"/>
<path style="fill:#010bf0; stroke:none;" d="M190 165L191 166L190 165z"/>
<path style="fill:#010101; stroke:none;" d="M197 165L197 172L198 172L197 165M44 166L45 167L44 166M139 167L140 168L139 167M178 167L179 168L178 167z"/>
<path style="fill:#010bf0; stroke:none;" d="M48.3333 168.667L48.6667 169.333L48.3333 168.667z"/>
<path style="fill:#010101; stroke:none;" d="M86 168L87 169L86 168M89.6667 168.333L90.3333 168.667L89.6667 168.333z"/>
<path style="fill:#010bf0; stroke:none;" d="M111 168L112 169L111 168z"/>
<path style="fill:#010101; stroke:none;" d="M152.667 168.333L153.333 168.667L152.667 168.333M157 168L158 169L157 168M160 168L160 169L163 169L160 168M167 168L168 169L167 168z"/>
<path style="fill:#010bf0; stroke:none;" d="M174 168L175 169L174 168z"/>
<path style="fill:#010101; stroke:none;" d="M177 168L178 169L177 168z"/>
<path style="fill:#010bf0; stroke:none;" d="M200 168L201 169L200 168z"/>
<path style="fill:#010101; stroke:none;" d="M209 168C209.399 175.689 213.844 182.699 218 189L219 189L209 168M45 169L46 170L45 169M111.333 169.667L111.667 170.333L111.333 169.667z"/>
<path style="fill:#010bf0; stroke:none;" d="M178 169L179 170L178 169z"/>
<path style="fill:#010101; stroke:none;" d="M27 170L26 172L27 170M41 170L23 203C30.1882 197.826 44.7014 179.506 41 170M119 170L120 171L119 170M128 170L130 173L128 170M139 170L140 171L139 170M205 170L206 171L205 170z"/>
<path style="fill:#010bf0; stroke:none;" d="M42 171L43 172L42 171z"/>
<path style="fill:#010101; stroke:none;" d="M46 172L47 173L46 172z"/>
<path style="fill:#012d63; stroke:none;" d="M55 172L55 185C65.6584 184.999 66 182.044 66 172L63 172L63 181L62 181L62 172L59 172L59 181L58 181L58 172L55 172z"/>
<path style="fill:#010101; stroke:none;" d="M117 172L118 173L117 172z"/>
<path style="fill:#012d63; stroke:none;" d="M145 172L145 176L147 176L147 172L145 172M148 172L148 176L150 176L150 172L148 172M151 172L151 176L155 176L155 172L151 172z"/>
<path style="fill:#010101; stroke:none;" d="M164 172L164 175L165 175L164 172z"/>
<path style="fill:#012d63; stroke:none;" d="M170 172L170 176L172 176L172 172L170 172M173 172L173 176L175 176L175 172L173 172z"/>
<path style="fill:#010bf0; stroke:none;" d="M185 172L186 173L185 172M196 172L197 173L196 172z"/>
<path style="fill:#010101; stroke:none;" d="M204 172L205 173L204 172M226 172L227 173L226 172M111 173L112 174L111 173M139 173L139 176L140 176L139 173z"/>
<path style="fill:#017d01; stroke:none;" d="M178 173L179 174L178 173z"/>
<path style="fill:#010101; stroke:none;" d="M47 174L49 177L47 174M130 174L131 175L130 174z"/>
<path style="fill:#010bf0; stroke:none;" d="M152.667 174.333L153.333 174.667L152.667 174.333z"/>
<path style="fill:#010101; stroke:none;" d="M166 174L167 175L166 174M73 175L73 176L106 176L73 175z"/>
<path style="fill:#010bf0; stroke:none;" d="M106 175L107 176L106 175z"/>
<path style="fill:#010101; stroke:none;" d="M107 175L108 176L107 175M111 175L112 176L111 175z"/>
<path style="fill:#017d01; stroke:none;" d="M155 175L156 176L155 175z"/>
<path style="fill:#010bf0; stroke:none;" d="M16 177L17 178L16 177z"/>
<path style="fill:#012d63; stroke:none;" d="M151 177L151 179L155 179L155 177L151 177M156 177L156 179L158 179L158 177L156 177M159 177L159 179L161 179L161 177L159 177M162 177L162 179L164 179L164 177L162 177z"/>
<path style="fill:#010bf0; stroke:none;" d="M164 177L165 178L164 177z"/>
<path style="fill:#012d63; stroke:none;" d="M165 177L165 179L169 179L169 177L165 177M170 177L170 179L172 179L172 177L170 177M173 177L173 179L175 179L175 177L173 177M176 177L176 179L178 179L178 177L176 177z"/>
<path style="fill:#017d01; stroke:none;" d="M178 177L179 178L178 177z"/>
<path style="fill:#010101; stroke:none;" d="M205 177L206 178L205 177M104.667 178.333L105.333 178.667L104.667 178.333M206 179L208 190L209 190L212 189L206 179z"/>
<path style="fill:#010bf0; stroke:none;" d="M212 179L213 180L212 179M155 180L156 181L155 180z"/>
<path style="fill:#012d63; stroke:none;" d="M156 180L156 184L158 184L158 180L156 180M159 180L159 184L161 184L161 180L159 180M162 180L162 184L164 184L164 180L162 180z"/>
<path style="fill:#010bf0; stroke:none;" d="M164 180L165 181L164 180z"/>
<path style="fill:#012d63; stroke:none;" d="M173 180L173 184L175 184L175 180L173 180z"/>
<path style="fill:#010101; stroke:none;" d="M188 180L189 181L188 180M44.3333 181.667L44.6667 182.333L44.3333 181.667M120 182L120 184L128 181L120 182z"/>
<path style="fill:#017d01; stroke:none;" d="M222 181L223 182L222 181M73 183L74 184L73 183z"/>
<path style="fill:#010101; stroke:none;" d="M84 183L85 184L84 183M98 183L99 184L98 183M100 183L101 184L100 183M43 184L40 190L43 191L43 184M177 184L178 185L177 184M180 184L180 187L181 187L180 184M134 185L132 186L132 187L134 185z"/>
<path style="fill:#012d63; stroke:none;" d="M159 185L159 187L161 187L161 185L159 185z"/>
<path style="fill:#010bf0; stroke:none;" d="M25 186L26 187L25 186z"/>
<path style="fill:#010101; stroke:none;" d="M112 186L113 187L112 186z"/>
<path style="fill:#010bf0; stroke:none;" d="M152 186L153 187L152 186z"/>
<path style="fill:#010101; stroke:none;" d="M170 187L167 192L177 188L170 187M117 188L118 189L117 188M127.667 188.333L128.333 188.667L127.667 188.333M138 188L139 189L138 188z"/>
<path style="fill:#010bf0; stroke:none;" d="M155 188L156 189L155 188M179 188L180 189L179 188z"/>
<path style="fill:#010101; stroke:none;" d="M188 188L189 189L188 188z"/>
<path style="fill:#017d01; stroke:none;" d="M196 188L197 189L196 188z"/>
<path style="fill:#010101; stroke:none;" d="M74 191L74 192L91 192L74 191M119.667 189.333L120.333 189.667L119.667 189.333M131 190L131 191L136 189L131 190M155 189L156 190L155 189M179.333 189.667L179.667 190.333L179.333 189.667M182 189L177 204C182.451 200.667 184.359 195.081 182 189M201 189L202 190L201 189M49 190L50 191L49 190M92 190L92 191L96 191L92 190M107 190L107 192L118 195C116.679 190.484 111.19 190.284 107 190M162 190L159 192L159 193L162 190M212 190L213 191L212 190M219 190L221 192L219 190z"/>
<path style="fill:#010bf0; stroke:none;" d="M94 191L95 192L94 191z"/>
<path style="fill:#010101; stroke:none;" d="M185 191L186 192L185 191M202 191C203.521 197.343 206.815 202.998 212 207L202 191M209 191L210 196L211 196L209 191M38 192L39 193L38 192M41 192L37 204L38 204L41 192M48 192L49 193L48 192M137 192L138 193L137 192M178.333 192.667L178.667 193.333L178.333 192.667M213 192L214 193L213 192z"/>
<path style="fill:#010bf0; stroke:none;" d="M66 193L67 194L66 193M195 193L196 194L195 193z"/>
<path style="fill:#010101; stroke:none;" d="M221 193L222 194L221 193M47 194L48 195L47 194M75 194L82 208L85 205L83 199L81 200L75 194M172 194L173 195L172 194M214 194L218 199L214 194M36 195L37 196L36 195M85 201L89 200L90 200L91 195L85 201M158 195L159 196L158 195M174 195L169 201L166 201L161 196L169 208L174 195M222 195L225 198L222 195z"/>
<path style="fill:#010bf0; stroke:none;" d="M21 196L22 197L21 196z"/>
<path style="fill:#010101; stroke:none;" d="M46 196L47 197L46 196M105 200L115 204L115 203L111 200L118 200C113.535 196.551 109.056 195.597 105 200M177 196L178 197L177 196z"/>
<path style="fill:#010bf0; stroke:none;" d="M210 196L211 197L210 196z"/>
<path style="fill:#010101; stroke:none;" d="M211.333 197.667L211.667 198.333L211.333 197.667M45 198L44 200L45 198M63 198L62 200L64 200L63 198M176 198L177 199L176 198M199 198C197.068 206.134 195.353 209.733 198 218C202.614 217.609 205.427 220.129 203.847 225C201.738 231.5 192.894 235.59 191.903 242C191.302 245.881 195.061 250.026 198.929 249.221C202.309 248.518 204.612 245.451 208.004 244.76C216.336 243.062 221.833 252.076 222 259C230.431 256.993 243.801 257.112 249.397 265.105C258.136 277.588 242.686 296.549 231 299L231 300L252 300L252 250L251.397 229.418L239 221.64L222 204L221 204L232 228C216.504 223.095 208.949 209.409 199 198z"/>
<path style="fill:#010bf0; stroke:none;" d="M224 198L225 199L224 198z"/>
<path style="fill:#010101; stroke:none;" d="M119 200L119 201L135 204L135 203C133.499 201.188 133.842 200.978 136 200L119 200M212.333 199.667L212.667 200.333L212.333 199.667M225 199L226 200L225 199z"/>
<path style="fill:#010bf0; stroke:none;" d="M162 200L163 201L162 200z"/>
<path style="fill:#010101; stroke:none;" d="M175 200L176 201L175 200M186 200L187 201L186 200z"/>
<path style="fill:#017d01; stroke:none;" d="M191 200L192 201L191 200z"/>
<path style="fill:#010101; stroke:none;" d="M218 200L220 202L218 200M226 200L227 201L226 200M43 201L36 205L33 213L43 201M75 201L76 202L75 201M145 202L141 204L141 205L145 202M174 202L175 203L174 202M213 202C213.553 205.316 216.667 208.917 213 208L221 216L213 202M227 202L231 206L227 202z"/>
<path style="fill:#017d01; stroke:none;" d="M79 203L80 204L79 203z"/>
<path style="fill:#010101; stroke:none;" d="M220 203L221 204L220 203M104 204L104 205L108 205L104 204M173 204L174 205L173 204z"/>
<path style="fill:#010bf0; stroke:none;" d="M40 205L41 206L40 205z"/>
<path style="fill:#010101; stroke:none;" d="M137 205L138 206L137 205z"/>
<path style="fill:#010bf0; stroke:none;" d="M181 205L182 206L181 205M233 205L234 206L233 205z"/>
<path style="fill:#010101; stroke:none;" d="M17 206L15 211L20 206L17 206M57 206L58 207L57 206M102 206L102 207L106 208L106 207L102 206M232 207L237 212L235 206L232 207M171 207L172 208L171 207z"/>
<path style="fill:#010bf0; stroke:none;" d="M232 208L233 209L232 208z"/>
<path style="fill:#010101; stroke:none;" d="M80 209L81 210L80 209z"/>
<path style="fill:#012d63; stroke:none;" d="M175 209C174.008 212.405 170.636 218.233 171.573 221.656C173.779 229.724 182.59 219.021 184 216L177 209L175 209z"/>
<path style="fill:#010bf0; stroke:none;" d="M16 210L17 211L16 210z"/>
<path style="fill:#010101; stroke:none;" d="M103 210L101 222L109 223L109 222C101.603 220.782 105.766 214.791 103 210M112 211L111 221L111 222C117.366 220.937 115.562 215.139 116 210L112 211M121 210L121 211L124 212L121 210M136 210L136 211L139 211L139 222L143 211L136 210M169 210L167 213L169 210z"/>
<path style="fill:#010bf0; stroke:none;" d="M217 210L218 211L217 210z"/>
<path style="fill:#010101; stroke:none;" d="M128 211L125 223C130.084 220.734 130.02 215.771 128 211M57 212L58 213L57 212z"/>
<path style="fill:#010bf0; stroke:none;" d="M104 212L105 213L104 212z"/>
<path style="fill:#010101; stroke:none;" d="M190 212L191 213L190 212M237.333 212.667L237.667 213.333L237.333 212.667M83 213L84 214L83 213M150 213L150 223L151 223L150 213z"/>
<path style="fill:#010bf0; stroke:none;" d="M180 213L181 214L180 213z"/>
<path style="fill:#017d01; stroke:none;" d="M20 214L21 215L20 214z"/>
<path style="fill:#010101; stroke:none;" d="M32 214L33 215L32 214M238 214L239 215L238 214M56.3333 215.667L56.6667 216.333L56.3333 215.667M71 215L75 220L71 215z"/>
<path style="fill:#017d01; stroke:none;" d="M115 215L116 216L115 215z"/>
<path style="fill:#010101; stroke:none;" d="M165 215L164 217L165 215M59 216L55 224C59.5183 225.06 60.679 227.768 62 232L63 232L62 230L63 230L67 236L77 242L76 245C84.7458 243.919 90.4371 246.028 97 252L98 252L100 249C81.844 243.994 70.2646 229.97 59 216M62 216L63 217L62 216M86 216L88 218L86 216M191 216C182.914 230.506 167.633 243.311 152 249L153 252C160.914 247.616 166.813 244.813 176 247L176 246L171 242L180 240L179 237C185.162 234.373 189.95 229.403 192 223L197 226L191 216M194 216C195.424 220.443 197.235 223.229 202 224L202 220L194 216M175 221L179 217L175 221z"/>
<path style="fill:#010bf0; stroke:none;" d="M226 217L227 218L226 217M60 218L61 219L60 218M139 218L139 221L140 221L139 218z"/>
<path style="fill:#010101; stroke:none;" d="M54 219L55 220L54 219M49 220L49 224L53 222L49 220M159 220L158 222L159 220M185 220L186 221L185 220z"/>
<path style="fill:#010bf0; stroke:none;" d="M84 221L85 222L84 221z"/>
<path style="fill:#010101; stroke:none;" d="M160 224L164 222L160 224M147 222L148 223L147 222z"/>
<path style="fill:#010bf0; stroke:none;" d="M249 222L250 223L249 222z"/>
<path style="fill:#010101; stroke:none;" d="M67 223L68 224L67 223M95 223L96 224L95 223z"/>
<path style="fill:#010bf0; stroke:none;" d="M172 223L173 224L172 223M222 223L223 224L222 223z"/>
<path style="fill:#010101; stroke:none;" d="M53 224L54 225L53 224z"/>
<path style="fill:#010bf0; stroke:none;" d="M54 224L55 225L54 224z"/>
<path style="fill:#010101; stroke:none;" d="M91 224C91.9333 229.55 95.7807 231.077 101 230L101 229L91 224M135 224L135 227L141 227L135 224M154 224L155 225L154 224z"/>
<path style="fill:#010bf0; stroke:none;" d="M3 225L4 226L3 225z"/>
<path style="fill:#010101; stroke:none;" d="M52 225L53 226L52 225M98 225L99 226L98 225M108 225L108 227L114 227L108 225M152 225L153 226L152 225M164 232C170.474 226.421 160.775 224.153 164 232M193 225L194 226L193 225M50 226L52 228L52 226L50 226M100 226L101 227L100 226z"/>
<path style="fill:#010bf0; stroke:none;" d="M119 226L120 227L119 226z"/>
<path style="fill:#010101; stroke:none;" d="M120 226L121 227L120 226M122 229L129 229L129 226L122 229z"/>
<path style="fill:#010bf0; stroke:none;" d="M59 227L60 228L59 227z"/>
<path style="fill:#010101; stroke:none;" d="M102 227L103 228L102 227M148 227L149 228L148 227M179 227L180 228L179 227z"/>
<path style="fill:#010bf0; stroke:none;" d="M192 227L193 228L192 227z"/>
<path style="fill:#010101; stroke:none;" d="M199 227L178 246L178 247C184.717 244.011 198.5 234.934 199 227M52 228L55 232L52 228z"/>
<path style="fill:#010bf0; stroke:none;" d="M60 228L61 229L60 228z"/>
<path style="fill:#010101; stroke:none;" d="M146 228L147 229L146 228M191 228L192 229L191 228M72 229L73 230L72 229M107 229L108 230L107 229M143.667 229.333L144.333 229.667L143.667 229.333M110 230L111 231L110 230M140 230L141 231L140 230M115 231L116 232L115 231M136 231L137 232L136 231z"/>
<path style="fill:#017d01; stroke:none;" d="M137 231L138 232L137 231z"/>
<path style="fill:#010101; stroke:none;" d="M189 231L190 232L189 231M55 232L56 233L55 232M91 232L91 234L93 234L91 232z"/>
<path style="fill:#010bf0; stroke:none;" d="M118 232L119 233L118 232z"/>
<path style="fill:#010101; stroke:none;" d="M119.667 232.333L120.333 232.667L119.667 232.333M129 232L129 233L132 233L129 232M174 232L175 233L174 232M56 233L65 242L56 233z"/>
<path style="fill:#010bf0; stroke:none;" d="M58 234L59 235L58 234z"/>
<path style="fill:#010101; stroke:none;" d="M62 234L63 235L62 234M65 234L66 235L65 234z"/>
<path style="fill:#010bf0; stroke:none;" d="M166 234L167 235L166 234z"/>
<path style="fill:#017d01; stroke:none;" d="M183 234L184 235L183 234z"/>
<path style="fill:#010101; stroke:none;" d="M79 235L80 236L79 235z"/>
<path style="fill:#012d63; stroke:none;" d="M136 235L135 236L136 240L133 236L131 236L129 241L128 241L128 237L125 237C125 241.525 124.017 246.346 129 248L131 242L140 247L138 235L136 235z"/>
<path style="fill:#010101; stroke:none;" d="M63 236L64 237L63 236z"/>
<path style="fill:#012d63; stroke:none;" d="M120 236L120 248L123 248L122 236L120 236z"/>
<path style="fill:#010bf0; stroke:none;" d="M122 236L123 237L122 236z"/>
<path style="fill:#010101; stroke:none;" d="M68 237L69 238L68 237z"/>
<path style="fill:#010bf0; stroke:none;" d="M111 237L112 238L111 237z"/>
<path style="fill:#010101; stroke:none;" d="M151 238L151 239L156 238L151 238M182 237L181 239L182 237M101 239L101 240L107 241L107 240L101 239z"/>
<path style="fill:#010bf0; stroke:none;" d="M104 239L105 240L104 239z"/>
<path style="fill:#010101; stroke:none;" d="M86 240L87 241L86 240M70 241L71 242L70 241M88 241L89 242L88 241z"/>
<path style="fill:#010bf0; stroke:none;" d="M178 241L179 242L178 241z"/>
<path style="fill:#010101; stroke:none;" d="M65 242L65 243L70 246L65 242z"/>
<path style="fill:#010bf0; stroke:none;" d="M72 242L73 243L72 242z"/>
<path style="fill:#017d01; stroke:none;" d="M171 243L172 244L171 243z"/>
<path style="fill:#010101; stroke:none;" d="M175 243L176 244L175 243M187 246L191 259L192 259L187 246M38 247L38 248L41 249L38 247M62 247L59 254L60 254L62 247M64 258L114 260C109.299 257.89 103.822 258.047 99.0394 255.892C86.2457 250.128 73.4977 240.541 64 258z"/>
<path style="fill:#010bf0; stroke:none;" d="M110 247L111 248L110 247z"/>
<path style="fill:#010101; stroke:none;" d="M149 256L149 257L185 257C177.155 240.594 160.127 253.189 149 256M211 248L206 252L211 259L211 248M31 257L32 257L38 254L37 249C32.7336 250.499 31.3408 252.521 31 257M41 250L43 256L44 256L41 250M101 250L102 251L101 250M144 252L144 253L151 251L144 252M212 257L213 257L213 254L218 257C220.487 250.376 212.47 248.525 212 257M103 251L103 252L122 255L103 251M50 252L52 254L52 252L50 252z"/>
<path style="fill:#010bf0; stroke:none;" d="M60 252L61 253L60 252z"/>
<path style="fill:#010101; stroke:none;" d="M142 252L143 253L142 252M100.667 253.333L101.333 253.667L100.667 253.333M135 253L136 254L135 253M138 253L132 256L133 254L129 254L129 255C131.9 256.227 139.26 258.612 138 253M148 253L149 254L148 253M199.667 253.333L200.333 253.667L199.667 253.333M104 254L104 255L107 255L104 254M144 254L144 255L147 255L144 254z"/>
<path style="fill:#010bf0; stroke:none;" d="M216 254L217 255L216 254z"/>
<path style="fill:#010101; stroke:none;" d="M36 255L37 256L36 255M45 262L51 261L51 255L45 262M58 255L61 259L58 255z"/>
<path style="fill:#01ff01; stroke:none;" d="M65 255L66 256L65 255z"/>
<path style="fill:#010bf0; stroke:none;" d="M132 255L133 256L132 255z"/>
<path style="fill:#010101; stroke:none;" d="M140.667 255.333L141.333 255.667L140.667 255.333z"/>
<path style="fill:#010bf0; stroke:none;" d="M76 256L77 257L76 256z"/>
<path style="fill:#010101; stroke:none;" d="M188 256L189 257L188 256M198 261L204 262C203.362 256.455 199.375 254.875 198 261M54.3333 257.667L54.6667 258.333L54.3333 257.667M115 260L115 261L134 261C126.714 255.605 122.838 258.883 115 260M146.667 257.333L147.333 257.667L146.667 257.333M195 257L195 261L196 261L195 257M142 258L142 259L145 259L142 258M189 258L190 259L189 258z"/>
<path style="fill:#010bf0; stroke:none;" d="M190 258L191 259L190 258z"/>
<path style="fill:#010101; stroke:none;" d="M84 259L84 260L94 260L84 259z"/>
<path style="fill:#010bf0; stroke:none;" d="M94 259L95 260L94 259z"/>
<path style="fill:#010101; stroke:none;" d="M135 259L135 260L139 260L135 259M153 259L154 260L153 259z"/>
<path style="fill:#010bf0; stroke:none;" d="M154 259L155 260L154 259z"/>
<path style="fill:#010101; stroke:none;" d="M161 259L161 260L165 260L161 259M12.6667 260.333L13.3333 260.667L12.6667 260.333M28 260L29 261L28 260M71.3333 260.667L71.6667 261.333L71.3333 260.667z"/>
<path style="fill:#010bf0; stroke:none;" d="M74 260L75 261L74 260z"/>
<path style="fill:#010101; stroke:none;" d="M81.6667 260.333L82.3333 260.667L81.6667 260.333M96 260L96 261L100 261L96 260M147 260L148 261L147 260M182 260L182 264L183 264L182 260M226.667 260.333L227.333 260.667L226.667 260.333M66 261L67 262L66 261M78.6667 261.333L79.3333 261.667L78.6667 261.333M101 261L101 262L105 262L101 261M171 261L172 262L171 261M177 261L178 262L177 261z"/>
<path style="fill:#010bf0; stroke:none;" d="M219 261L220 262L219 261z"/>
<path style="fill:#010101; stroke:none;" d="M220.667 261.333L221.333 261.667L220.667 261.333M15 266L16 266L18 263L18 274L16 271L15 271L15 275L30 277L30 276L27 268L26 268L22 274L22 267L21 267L21 274L19 274L19 263L25 264C21.3423 261.229 16.5781 261.245 15 266M34 262L35 263L34 262M61 262L62 263L61 262z"/>
<path style="fill:#010bf0; stroke:none;" d="M66 262L67 263L66 262z"/>
<path style="fill:#010101; stroke:none;" d="M69.3333 262.667L69.6667 263.333L69.3333 262.667M76 262L77 263L76 262M72 280L80 278C79.3104 275.436 80.1054 261.564 83 267L84 267L87 264L87 272L88 272L88 263L94 263C87.6855 260.351 73.4033 263.405 70.3642 270.301C69.0616 273.257 71.2168 277.122 72 280M106 262L106 263L117 264L106 262M100 264C102.671 275.222 93.3281 277.391 96 266L95 266L94 276L91 273L84 276L83 276L81 274C81.9963 278.649 100.994 277.979 106 278L106 274L105 274L102 277L102 265L105 268L108 266L107 279L130 281L130 280L128 277L127 277C124.158 279.827 121.455 280.077 118 278L117 278L115 280C113.356 278.419 110.772 278.185 109.745 275.838C107.194 270.004 113.692 264.795 115 273L116 273L116 268L119 268L119 273L120 273L120 268L123 268L123 278L124 278L126 268L128 268L131 280L152 276L151 271L155 273C153.063 269.273 150.954 266.482 154 263L127 266.826L100 264M156 262L157 267L155 265L154 265L156 270L157 270L160 262L156 262M161 262L162 268L163 268L164 263L166 265L170 264L169 276L165 275L175 281C179.652 268.919 173.932 262.275 161 262M241 262L242 263L241 262M12 263L12 275L13 275L12 263M27.6667 263.333L28.3333 263.667L27.6667 263.333M37 263L38 264L37 263M74 263L75 264L74 263M95 263L96 265L97 265L98 263L95 263M175 263L177 265L175 263M179 263L180 264L179 263M185 263L186 264L185 263M212 263L213 264L212 263M224 263L224 264L232 266L235 264L224 263M243 263L244 264L243 263M9 264C2.8244 268.056 3 272.075 3 279L9 276C6.03934 271.505 5.89643 268.71 10 265L9 264M30 264L30 265L33 265L30 264M72 264L71 266L72 264z"/>
<path style="fill:#012d63; stroke:none;" d="M141 268L135 266L135 278L140 275L141 275C143.499 277.751 145.917 276.086 147 273L144 274L147 268L144 269L147 264L141 268z"/>
<path style="fill:#010bf0; stroke:none;" d="M157 264L158 265L157 264M163 264L164 265L163 264z"/>
<path style="fill:#010101; stroke:none;" d="M211 266L211 267L214 269L221 265L211 266z"/>
<path style="fill:#010bf0; stroke:none;" d="M226 264L227 265L226 264z"/>
<path style="fill:#010101; stroke:none;" d="M237 264L237 265L240 265L237 264M34 265L34 266L37 269L45 270L45 281L42 279L41 279L39 280L39 281L74 288L74 287L68 273L34 265M43 265L44 266L43 265M59 265L60 266L59 265z"/>
<path style="fill:#010bf0; stroke:none;" d="M102 265L103 266L102 265M141 265L142 266L141 265z"/>
<path style="fill:#010101; stroke:none;" d="M205 265L206 266L205 265M241 265L240 276L236 274L235 275L246 281C249.031 273.817 247.842 269.002 241 265M246 265L247 266L246 265z"/>
<path style="fill:#010bf0; stroke:none;" d="M9.33333 266.667L9.66667 267.333L9.33333 266.667z"/>
<path style="fill:#017d01; stroke:none;" d="M60 266L61 267L60 266z"/>
<path style="fill:#010bf0; stroke:none;" d="M155 266L156 267L155 266M243 266L244 267L243 266z"/>
<path style="fill:#010101; stroke:none;" d="M29 267L31 269L29 267M98 267L98 273L99 273L98 267M220 267C221.008 271.4 219.804 280.374 214 275L211 280L208 280L208 268C201.907 268.532 184.06 271.113 179.924 275.6C176.901 278.878 177.345 283.765 174 287L174 288L184 288L184 287L182 275L184 275C184 278.767 182.587 284.054 187 285C185.951 280.579 185.616 277.314 189 274L189 284L190 284L190 273L193 273L192 286L196 286L196 285L194 272L203 274L200 273C201.366 276.726 203.595 279.533 201 283L201 284L222 278L220 267M228 267L228 272L229 272L228 267M235 267L238 270L235 267M9 268L9 272L10 272L9 268z"/>
<path style="fill:#010bf0; stroke:none;" d="M52 268L53 269L52 268z"/>
<path style="fill:#010101; stroke:none;" d="M56 269L56 270L59 270L56 269M137 269L139 271L137 269M217 269L217 275L218 275L217 269M232 269L232 271L234 271L232 269z"/>
<path style="fill:#010bf0; stroke:none;" d="M62 270L63 271L62 270M69 270L70 271L69 270z"/>
<path style="fill:#010101; stroke:none;" d="M188 270L189 271L188 270z"/>
<path style="fill:#012d63; stroke:none;" d="M46 271L46 282L50 281L54 282L54 285L56 285L55 272L52 272L52 277L46 271z"/>
<path style="fill:#010101; stroke:none;" d="M112 271L111 275L112 271M166 271L166 274L167 274L166 271M182 271L183 272L182 271z"/>
<path style="fill:#010bf0; stroke:none;" d="M6 272L7 273L6 272z"/>
<path style="fill:#010101; stroke:none;" d="M29 272L31 274L31 272L29 272z"/>
<path style="fill:#010bf0; stroke:none;" d="M36 272L38 274L36 272z"/>
<path style="fill:#010101; stroke:none;" d="M40 272L41 275L42 275L42 272L40 272M137.333 272.667L137.667 273.333L137.333 272.667M159 272L158 276L159 272z"/>
<path style="fill:#010bf0; stroke:none;" d="M22 273L23 274L22 273z"/>
<path style="fill:#012d63; stroke:none;" d="M57 273L57.0008 278.024C57.0967 291.474 68.0165 277.201 57 273z"/>
<path style="fill:#017d01; stroke:none;" d="M123 273L124 274L123 273z"/>
<path style="fill:#010bf0; stroke:none;" d="M11 274L12 275L11 274z"/>
<path style="fill:#010101; stroke:none;" d="M37 274L38 275L37 274z"/>
<path style="fill:#010bf0; stroke:none;" d="M100 274L101 275L100 274M166 274L167 275L166 274z"/>
<path style="fill:#010101; stroke:none;" d="M225 274L224 277L233 276L233 275L225 274z"/>
<path style="fill:#010bf0; stroke:none;" d="M230 274L231 275L230 274M37 275L38 276L37 275z"/>
<path style="fill:#010101; stroke:none;" d="M155.667 275.333L156.333 275.667L155.667 275.333M162 275L163 276L162 275z"/>
<path style="fill:#010bf0; stroke:none;" d="M31 276L32 277L31 276z"/>
<path style="fill:#010101; stroke:none;" d="M31 277L31 278L36 279L35 276L31 277M48.3333 276.667L48.6667 277.333L48.3333 276.667z"/>
<path style="fill:#010bf0; stroke:none;" d="M87 276L88 277L87 276z"/>
<path style="fill:#017d01; stroke:none;" d="M151 276L152 277L151 276z"/>
<path style="fill:#010101; stroke:none;" d="M197 276L197 280L201 281L197 276z"/>
<path style="fill:#010bf0; stroke:none;" d="M222 276L223 277L222 276z"/>
<path style="fill:#010101; stroke:none;" d="M16 277L16 278L21 278L16 277z"/>
<path style="fill:#010bf0; stroke:none;" d="M126.333 277.667L126.667 278.333L126.333 277.667z"/>
<path style="fill:#010101; stroke:none;" d="M24.6667 278.333L25.3333 278.667L24.6667 278.333z"/>
<path style="fill:#017d01; stroke:none;" d="M37 278L38 279L37 278z"/>
<path style="fill:#010bf0; stroke:none;" d="M62 278L63 279L62 278z"/>
<path style="fill:#010101; stroke:none;" d="M154 278L154 279L163 279L154 278M229 278L230 279L229 278M234.667 278.333L235.333 278.667L234.667 278.333z"/>
<path style="fill:#010bf0; stroke:none;" d="M27 279L28 280L27 279z"/>
<path style="fill:#010101; stroke:none;" d="M28.6667 279.333L29.3333 279.667L28.6667 279.333M36.6667 279.333L37.3333 279.667L36.6667 279.333M50.3333 279.667L50.6667 280.333L50.3333 279.667M80 279L80 280L86 280L80 279M91 279L91 280L95 280L91 279z"/>
<path style="fill:#010bf0; stroke:none;" d="M95 279L96 280L95 279z"/>
<path style="fill:#010101; stroke:none;" d="M147 279L147 280L152 280L147 279M164 279L164 280L167 280L164 279z"/>
<path style="fill:#010bf0; stroke:none;" d="M225 279L226 280L225 279z"/>
<path style="fill:#010101; stroke:none;" d="M0 280L0 300L178 300L211 300C215.261 300 221.759 301.202 225.572 298.972C231.383 295.574 234.53 287.189 236 281C216.381 281.162 198.759 292.976 179 293C171.977 293.009 158.454 292.149 162 282L122 286L87 282C87.5239 292.19 77.0294 293.179 69 292.985C49.9025 292.524 33.0397 281.503 14 280L23 298C10.2719 299.315 5.34452 289.459 0 280M77.6667 280.333L78.3333 280.667L77.6667 280.333M102.667 280.333L103.333 280.667L102.667 280.333M142 280L142 281L146 281L142 280M168.667 280.333L169.333 280.667L168.667 280.333M220 280L221 281L220 280M75 281L74 283L75 281M106 281L106 282L109 282L106 281M137 281L137 282L140 282L137 281M171 281L173 283L171 281M217 281L218 282L217 281M75 285L75 286L84 282L75 285z"/>
<path style="fill:#017d01; stroke:none;" d="M111 282L112 283L111 282z"/>
<path style="fill:#010101; stroke:none;" d="M112.667 282.333L113.333 282.667L112.667 282.333M131 282L131 283L134 283L131 282z"/>
<path style="fill:#010bf0; stroke:none;" d="M134 282L135 283L134 282z"/>
<path style="fill:#010101; stroke:none;" d="M164 282L172 285L164 282M213 282L214 283L213 282z"/>
<path style="fill:#010bf0; stroke:none;" d="M223 282L224 283L223 282z"/>
<path style="fill:#010101; stroke:none;" d="M116.667 283.333L117.333 283.667L116.667 283.333z"/>
<path style="fill:#010bf0; stroke:none;" d="M118 283L119 284L118 283z"/>
<path style="fill:#010101; stroke:none;" d="M126 283L126 284L130 284L126 283M174 283L175 284L174 283M197 283L200 285L197 283M210.667 283.333L211.333 283.667L210.667 283.333z"/>
<path style="fill:#010bf0; stroke:none;" d="M235 283L236 284L235 283z"/>
<path style="fill:#010101; stroke:none;" d="M43 284L44 285L43 284z"/>
<path style="fill:#010bf0; stroke:none;" d="M196 284L197 285L196 284z"/>
<path style="fill:#010101; stroke:none;" d="M207.667 284.333L208.333 284.667L207.667 284.333M245 284L246 285L245 284z"/>
<path style="fill:#010bf0; stroke:none;" d="M113 285L114 286L113 285z"/>
<path style="fill:#010101; stroke:none;" d="M204 285L205 286L204 285M49 286L50 287L49 286M163 286L166 289L163 286M167 286L168 287L167 286M187 286L187 287L191 287L187 286M200.667 286.333L201.333 286.667L200.667 286.333M51.6667 287.333L52.3333 287.667L51.6667 287.333z"/>
<path style="fill:#010bf0; stroke:none;" d="M87 287L88 288L87 287z"/>
<path style="fill:#010101; stroke:none;" d="M170 287L171 288L170 287z"/>
<path style="fill:#010bf0; stroke:none;" d="M171 287L172 288L171 287M198 287L199 288L198 287z"/>
<path style="fill:#017d01; stroke:none;" d="M207 287L208 288L207 287z"/>
<path style="fill:#010101; stroke:none;" d="M82 288L83 289L82 288M193.667 288.333L194.333 288.667L193.667 288.333z"/>
<path style="fill:#017d01; stroke:none;" d="M49 289L50 290L49 289z"/>
<path style="fill:#010101; stroke:none;" d="M79.6667 289.333L80.3333 289.667L79.6667 289.333M187 289L187 290L190 290L187 289z"/>
<path style="fill:#010bf0; stroke:none;" d="M200 289L201 290L200 289z"/>
<path style="fill:#010101; stroke:none;" d="M174 290L174 291L180 291L174 290z"/>
<path style="fill:#010bf0; stroke:none;" d="M245 290L246 291L245 290M22 296L23 297L22 296M19 298L20 299L19 298z"/>
</svg>
